SplineFontDB: 3.2
FontName: FiraSans-ExtraBold
FullName: Fira Sans ExtraBold
FamilyName: Fira Sans ExtraBold
Weight: Heavy
Copyright: Digitized data copyright 2012-2016, The Mozilla Foundation and Telefonica S.A.
Version: 4.203
ItalicAngle: 0
UnderlinePosition: -100
UnderlineWidth: 50
Ascent: 800
Descent: 200
InvalidEm: 0
sfntRevision: 0x000433f7
LayerCount: 2
Layer: 0 1 "Back" 1
Layer: 1 1 "Fore" 0
XUID: [1021 530 411024468 4415246]
StyleMap: 0x0040
FSType: 0
OS2Version: 4
OS2_WeightWidthSlopeOnly: 0
OS2_UseTypoMetrics: 1
CreationTime: 1476947922
ModificationTime: 1480667555
PfmFamily: 17
TTFWeight: 800
TTFWidth: 5
LineGap: 0
VLineGap: 0
Panose: 2 11 9 3 5 0 0 2 0 4
OS2TypoAscent: 935
OS2TypoAOffset: 0
OS2TypoDescent: -265
OS2TypoDOffset: 0
OS2TypoLinegap: 0
OS2WinAscent: 935
OS2WinAOffset: 0
OS2WinDescent: 265
OS2WinDOffset: 0
HheadAscent: 935
HheadAOffset: 0
HheadDescent: -265
HheadDOffset: 0
OS2SubXSize: 650
OS2SubYSize: 600
OS2SubXOff: 0
OS2SubYOff: 75
OS2SupXSize: 650
OS2SupYSize: 600
OS2SupXOff: 0
OS2SupYOff: 350
OS2StrikeYSize: 50
OS2StrikeYPos: 319
OS2CapHeight: 695
OS2XHeight: 533
OS2Vendor: 'CTDB'
OS2CodePages: 2000019f.00000000
OS2UnicodeRanges: 600002ff.00000001.00000000.00000000
Lookup: 1 0 0 "'aalt' Access All Alternates lookup 0" { "'aalt' Access All Alternates lookup 0 subtable"  } ['aalt' ('DFLT' <'dflt' > 'cyrl' <'dflt' > 'grek' <'dflt' > 'latn' <'AFK ' 'AZE ' 'CAT ' 'CRT ' 'KAZ ' 'MOL ' 'PLK ' 'ROM ' 'TAT ' 'TRK ' 'dflt' > ) ]
Lookup: 3 0 0 "'aalt' Access All Alternates lookup 1" { "'aalt' Access All Alternates lookup 1 subtable"  } ['aalt' ('DFLT' <'dflt' > 'cyrl' <'dflt' > 'grek' <'dflt' > 'latn' <'AFK ' 'AZE ' 'CAT ' 'CRT ' 'KAZ ' 'MOL ' 'PLK ' 'ROM ' 'TAT ' 'TRK ' 'dflt' > ) ]
Lookup: 1 0 0 "'locl' Localized Forms in Latin lookup 2" { "'locl' Localized Forms in Latin lookup 2 subtable"  } ['locl' ('latn' <'TAT ' > ) ]

StartChar: .notdef
Encoding: 65536 -1 0
Width: 666
GlyphClass: 1
Flags: W
LayerCount: 2
Fore
SplineSet
543 1050 m 1,0,-1
 543 -350 l 1,1,-1
 123 -350 l 1,2,-1
 123 1050 l 1,3,-1
 543 1050 l 1,0,-1
489 998 m 1,4,-1
 178 998 l 1,5,-1
 178 -298 l 1,6,-1
 489 -298 l 1,7,-1
 489 998 l 1,4,-1
409.5 419 m 128,-1,9
 435 387 435 387 435 336 c 0,10,11
 435 283 435 283 412.5 254 c 128,-1,12
 390 225 390 225 340 218 c 1,13,-1
 340 173 l 2,14,15
 340 162 340 162 332.5 155.5 c 128,-1,16
 325 149 325 149 315 149 c 256,17,18
 305 149 305 149 297.5 155.5 c 128,-1,19
 290 162 290 162 290 173 c 2,20,-1
 290 257 l 1,21,22
 343 260 343 260 362 276.5 c 128,-1,23
 381 293 381 293 381 334 c 0,24,25
 381 367 381 367 368 385 c 128,-1,26
 355 403 355 403 320 403 c 0,27,28
 291 403 291 403 268 392 c 0,29,30
 260 389 260 389 255 389 c 0,31,32
 244 389 244 389 237.5 395.5 c 128,-1,33
 231 402 231 402 231 412 c 0,34,35
 231 431 231 431 260.5 441 c 128,-1,36
 290 451 290 451 324 451 c 0,37,8
 384 451 384 451 409.5 419 c 128,-1,9
340 110 m 128,-1,39
 350 100 350 100 350 85 c 0,40,41
 350 69 350 69 340 58.5 c 128,-1,42
 330 48 330 48 315 48 c 256,43,44
 300 48 300 48 290 58.5 c 128,-1,45
 280 69 280 69 280 85 c 0,46,47
 280 100 280 100 290 110 c 128,-1,48
 300 120 300 120 315 120 c 256,49,38
 330 120 330 120 340 110 c 128,-1,39
EndSplineSet
EndChar

StartChar: A
Encoding: 65 65 3
Width: 596
GlyphClass: 2
Flags: W
AnchorPoint: "Anchor-18" 0 0 basechar 0
AnchorPoint: "Anchor-17" 0 0 basechar 0
AnchorPoint: "Anchor-16" 298 695 basechar 0
AnchorPoint: "Anchor-15" 528 0 basechar 0
AnchorPoint: "Anchor-14" 298 0 basechar 0
LayerCount: 2
Fore
SplineSet
419 0 m 1,0,-1
 388 142 l 1,1,-1
 204 142 l 1,2,-1
 173 0 l 1,3,-1
 -19 0 l 1,4,-1
 187 695 l 1,5,-1
 409 695 l 1,6,-1
 615 0 l 1,7,-1
 419 0 l 1,0,-1
233 274 m 1,8,-1
 359 274 l 1,9,-1
 296 563 l 1,10,-1
 233 274 l 1,8,-1
EndSplineSet
Substitution2: "Single Substitution lookup 45 subtable" ordfeminine
Substitution2: "'c2sc' Capitals to Small Capitals lookup 26 subtable" a.sc
AlternateSubs2: "'aalt' Access All Alternates lookup 1 subtable" ordfeminine a.sc
Position2: "'cpsp' Capital Spacing lookup 0 subtable" dx=5 dy=0 dh=10 dv=0
EndChar

StartChar: uni2C6D
Encoding: 11373 11373 27
Width: 688
GlyphClass: 2
Flags: W
AnchorPoint: "Anchor-18" 0 0 basechar 0
AnchorPoint: "Anchor-17" 0 0 basechar 0
AnchorPoint: "Anchor-16" 344 695 basechar 0
AnchorPoint: "Anchor-15" 0 0 basechar 0
AnchorPoint: "Anchor-14" 344 0 basechar 0
LayerCount: 2
Fore
SplineSet
637 139.5 m 128,-1,1
 646 123 646 123 670 111 c 1,2,-1
 618 -18 l 1,3,4
 565 -10 565 -10 530.5 7.5 c 128,-1,5
 496 25 496 25 475 57 c 1,6,7
 443 21 443 21 401 1.5 c 128,-1,8
 359 -18 359 -18 300 -18 c 0,9,10
 218 -18 218 -18 156.5 24.5 c 128,-1,11
 95 67 95 67 61 147 c 128,-1,12
 27 227 27 227 27 337 c 0,13,14
 27 453 27 453 62.5 538 c 128,-1,15
 98 623 98 623 160.5 668 c 128,-1,16
 223 713 223 713 303 713 c 0,17,18
 396 713 396 713 461 644 c 1,19,-1
 471 695 l 1,20,-1
 628 695 l 1,21,-1
 628 190 l 2,22,0
 628 156 628 156 637 139.5 c 128,-1,1
443 153 m 1,24,-1
 443 535 l 1,25,26
 401 580 401 580 342 580 c 0,27,28
 281 580 281 580 250 523 c 128,-1,29
 219 466 219 466 219 337 c 0,30,31
 219 214 219 214 250 162.5 c 128,-1,32
 281 111 281 111 341 111 c 0,33,23
 400 111 400 111 443 153 c 1,24,-1
EndSplineSet
Substitution2: "'c2sc' Capitals to Small Capitals lookup 26 subtable" uni0251.sc
Substitution2: "'aalt' Access All Alternates lookup 0 subtable" uni0251.sc
Position2: "'cpsp' Capital Spacing lookup 0 subtable" dx=5 dy=0 dh=10 dv=0
EndChar

StartChar: Aogonek
Encoding: 260 260 29
Width: 596
GlyphClass: 2
Flags: W
AnchorPoint: "Anchor-18" 0 0 basechar 0
AnchorPoint: "Anchor-17" 0 0 basechar 0
AnchorPoint: "Anchor-16" 298 695 basechar 0
AnchorPoint: "Anchor-15" 528 0 basechar 0
AnchorPoint: "Anchor-14" 298 0 basechar 0
LayerCount: 2
Fore
SplineSet
402 -99 m 0,1,2
 402 -143 402 -143 454 -143 c 0,3,4
 483 -143 483 -143 515 -136 c 1,5,-1
 503 -242 l 1,6,7
 469 -250 469 -250 431 -250 c 0,8,9
 364 -250 364 -250 321 -217 c 128,-1,10
 278 -184 278 -184 278 -129 c 0,11,12
 278 -27 278 -27 412 30 c 1,13,-1
 388 142 l 1,14,-1
 204 142 l 1,15,-1
 173 0 l 1,16,-1
 -19 0 l 1,17,-1
 187 695 l 1,18,-1
 409 695 l 1,19,-1
 615 0 l 1,20,-1
 518 0 l 1,21,0
 402 -41 402 -41 402 -99 c 0,1,2
233 274 m 1,22,-1
 359 274 l 1,23,-1
 296 563 l 1,24,-1
 233 274 l 1,22,-1
EndSplineSet
Substitution2: "'c2sc' Capitals to Small Capitals lookup 26 subtable" aogonek.sc
Substitution2: "'aalt' Access All Alternates lookup 0 subtable" aogonek.sc
Position2: "'cpsp' Capital Spacing lookup 0 subtable" dx=5 dy=0 dh=10 dv=0
EndChar

StartChar: uni023A
Encoding: 570 570 32
Width: 596
GlyphClass: 2
Flags: W
AnchorPoint: "Anchor-18" 0 0 basechar 0
AnchorPoint: "Anchor-17" 0 0 basechar 0
AnchorPoint: "Anchor-16" 298 695 basechar 0
AnchorPoint: "Anchor-15" 0 0 basechar 0
AnchorPoint: "Anchor-14" 298 0 basechar 0
LayerCount: 2
Fore
SplineSet
436 0 m 1,0,-1
 402 142 l 1,1,-1
 295 142 l 1,2,-1
 238 -76 l 1,3,-1
 176 -61 l 1,4,-1
 230 142 l 1,5,-1
 191 142 l 1,6,-1
 157 0 l 1,7,-1
 -19 0 l 1,8,-1
 187 695 l 1,9,-1
 377 695 l 1,10,-1
 393 757 l 1,11,-1
 454 743 l 1,12,-1
 426 637 l 1,13,-1
 615 0 l 1,14,-1
 436 0 l 1,0,-1
220 265 m 1,15,-1
 262 265 l 1,16,-1
 320 482 l 1,17,-1
 296 581 l 1,18,-1
 220 265 l 1,15,-1
328 265 m 1,19,-1
 372 265 l 1,20,-1
 351 353 l 1,21,-1
 328 265 l 1,19,-1
EndSplineSet
Substitution2: "'c2sc' Capitals to Small Capitals lookup 26 subtable" uni2C65.sc
Substitution2: "'aalt' Access All Alternates lookup 0 subtable" uni2C65.sc
Position2: "'cpsp' Capital Spacing lookup 0 subtable" dx=5 dy=0 dh=10 dv=0
EndChar

StartChar: AE
Encoding: 198 198 34
Width: 854
GlyphClass: 2
Flags: W
AnchorPoint: "Anchor-18" 0 0 basechar 0
AnchorPoint: "Anchor-17" 0 0 basechar 0
AnchorPoint: "Anchor-16" 486 695 basechar 0
AnchorPoint: "Anchor-15" 0 0 basechar 0
AnchorPoint: "Anchor-14" 427 0 basechar 0
LayerCount: 2
Fore
SplineSet
596 131 m 1,0,-1
 828 131 l 1,1,-1
 828 0 l 1,2,-1
 440 0 l 1,3,-1
 418 142 l 1,4,-1
 219 142 l 1,5,-1
 173 0 l 1,6,-1
 -27 0 l 1,7,-1
 245 695 l 1,8,-1
 792 695 l 1,9,-1
 772 564 l 1,10,-1
 514 564 l 1,11,-1
 542 415 l 1,12,-1
 783 415 l 1,13,-1
 783 287 l 1,14,-1
 566 287 l 1,15,-1
 596 131 l 1,0,-1
261 274 m 1,16,-1
 398 274 l 1,17,-1
 353 561 l 1,18,-1
 261 274 l 1,16,-1
EndSplineSet
Substitution2: "'c2sc' Capitals to Small Capitals lookup 26 subtable" ae.sc
Substitution2: "'aalt' Access All Alternates lookup 0 subtable" ae.sc
Position2: "'cpsp' Capital Spacing lookup 0 subtable" dx=5 dy=0 dh=10 dv=0
EndChar

StartChar: B
Encoding: 66 66 37
Width: 619
GlyphClass: 2
Flags: W
AnchorPoint: "Anchor-18" 0 0 basechar 0
AnchorPoint: "Anchor-17" 0 0 basechar 0
AnchorPoint: "Anchor-16" 293 695 basechar 0
AnchorPoint: "Anchor-15" 0 0 basechar 0
AnchorPoint: "Anchor-14" 310 0 basechar 0
LayerCount: 2
Fore
SplineSet
556 317 m 128,-1,1
 599 280 599 280 599 204 c 0,2,3
 599 91 599 91 517 45.5 c 128,-1,4
 435 0 435 0 288 0 c 2,5,-1
 54 0 l 1,6,-1
 54 695 l 1,7,-1
 261 695 l 2,8,9
 411 695 411 695 490.5 653.5 c 128,-1,10
 570 612 570 612 570 516 c 0,11,12
 570 455 570 455 533.5 418.5 c 128,-1,13
 497 382 497 382 443 368 c 1,14,0
 513 354 513 354 556 317 c 128,-1,1
239 566 m 1,15,-1
 239 421 l 1,16,-1
 287 421 l 2,17,18
 336 421 336 421 359 439 c 128,-1,19
 382 457 382 457 382 497 c 0,20,21
 382 534 382 534 357.5 550 c 128,-1,22
 333 566 333 566 278 566 c 2,23,-1
 239 566 l 1,15,-1
378 149.5 m 128,-1,25
 408 167 408 167 408 215 c 0,26,27
 408 261 408 261 380 281.5 c 128,-1,28
 352 302 352 302 299 302 c 2,29,-1
 239 302 l 1,30,-1
 239 132 l 1,31,-1
 289 132 l 2,32,24
 348 132 348 132 378 149.5 c 128,-1,25
EndSplineSet
Substitution2: "'c2sc' Capitals to Small Capitals lookup 26 subtable" b.sc
Substitution2: "'aalt' Access All Alternates lookup 0 subtable" b.sc
Position2: "'cpsp' Capital Spacing lookup 0 subtable" dx=5 dy=0 dh=10 dv=0
EndChar

StartChar: uniA7B4
Encoding: 42932 42932 40
Width: 619
GlyphClass: 2
Flags: W
AnchorPoint: "Anchor-18" 0 0 basechar 0
AnchorPoint: "Anchor-17" 0 0 basechar 0
AnchorPoint: "Anchor-16" 310 695 basechar 0
AnchorPoint: "Anchor-15" 0 0 basechar 0
AnchorPoint: "Anchor-14" 310 -213 basechar 0
LayerCount: 2
Fore
SplineSet
555.5 317.5 m 128,-1,1
 599 281 599 281 599 207 c 0,2,3
 599 97 599 97 523.5 48.5 c 128,-1,4
 448 0 448 0 334 0 c 0,5,6
 287 0 287 0 239 8 c 1,7,-1
 239 -213 l 1,8,-1
 54 -213 l 1,9,-1
 54 695 l 1,10,-1
 261 695 l 2,11,12
 411 695 411 695 490.5 653.5 c 128,-1,13
 570 612 570 612 570 516 c 0,14,15
 570 455 570 455 533.5 418.5 c 128,-1,16
 497 382 497 382 443 368 c 1,17,0
 512 354 512 354 555.5 317.5 c 128,-1,1
408 220 m 0,19,20
 408 262 408 262 383.5 282 c 128,-1,21
 359 302 359 302 315 302 c 2,22,-1
 287 302 l 1,23,-1
 297 421 l 1,24,-1
 305 421 l 2,25,26
 340 421 340 421 361 439.5 c 128,-1,27
 382 458 382 458 382 493 c 0,28,29
 382 533 382 533 358 549.5 c 128,-1,30
 334 566 334 566 278 566 c 2,31,-1
 239 566 l 1,32,-1
 239 136 l 1,33,34
 268 132 268 132 305 132 c 0,35,18
 408 132 408 132 408 220 c 0,19,20
EndSplineSet
Substitution2: "'c2sc' Capitals to Small Capitals lookup 26 subtable" uniA7B5.sc
Substitution2: "'aalt' Access All Alternates lookup 0 subtable" uniA7B5.sc
Position2: "'cpsp' Capital Spacing lookup 0 subtable" dx=5 dy=0 dh=10 dv=0
EndChar

StartChar: uni0181
Encoding: 385 385 41
Width: 779
GlyphClass: 2
Flags: W
AnchorPoint: "Anchor-18" 0 0 basechar 0
AnchorPoint: "Anchor-17" 0 0 basechar 0
AnchorPoint: "Anchor-16" 452 695 basechar 0
AnchorPoint: "Anchor-15" 0 0 basechar 0
AnchorPoint: "Anchor-14" 469 0 basechar 0
LayerCount: 2
Fore
SplineSet
715 317 m 128,-1,1
 758 280 758 280 758 204 c 0,2,3
 758 91 758 91 676 45.5 c 128,-1,4
 594 0 594 0 447 0 c 2,5,-1
 213 0 l 1,6,-1
 213 565 l 1,7,-1
 187 565 l 2,8,9
 143 565 143 565 143 525 c 0,10,11
 143 510 143 510 147 496 c 128,-1,12
 151 482 151 482 159 462 c 1,13,-1
 47 414 l 1,14,15
 26 446 26 446 14 475.5 c 128,-1,16
 2 505 2 505 2 537 c 0,17,18
 2 611 2 611 55 653 c 128,-1,19
 108 695 108 695 197 695 c 2,20,-1
 420 695 l 2,21,22
 570 695 570 695 649.5 653.5 c 128,-1,23
 729 612 729 612 729 516 c 0,24,25
 729 455 729 455 692.5 418.5 c 128,-1,26
 656 382 656 382 602 368 c 1,27,0
 672 354 672 354 715 317 c 128,-1,1
398 566 m 1,28,-1
 398 421 l 1,29,-1
 446 421 l 2,30,31
 495 421 495 421 518 439 c 128,-1,32
 541 457 541 457 541 497 c 0,33,34
 541 534 541 534 516.5 550 c 128,-1,35
 492 566 492 566 437 566 c 2,36,-1
 398 566 l 1,28,-1
537 149.5 m 128,-1,38
 567 167 567 167 567 215 c 0,39,40
 567 261 567 261 539 281.5 c 128,-1,41
 511 302 511 302 458 302 c 2,42,-1
 398 302 l 1,43,-1
 398 132 l 1,44,-1
 448 132 l 2,45,37
 507 132 507 132 537 149.5 c 128,-1,38
EndSplineSet
Substitution2: "'ss02' Style Set 2 lookup 34 subtable" uni0181.ss02
Substitution2: "'salt' Stylistic Alternatives lookup 32 subtable" uni0181.ss02
Substitution2: "'c2sc' Capitals to Small Capitals lookup 26 subtable" uni0253.sc
AlternateSubs2: "'aalt' Access All Alternates lookup 1 subtable" uni0253.sc uni0181.ss02
Position2: "'cpsp' Capital Spacing lookup 0 subtable" dx=5 dy=0 dh=10 dv=0
EndChar

StartChar: uni0243
Encoding: 579 579 43
Width: 635
GlyphClass: 2
Flags: W
AnchorPoint: "Anchor-18" 0 0 basechar 0
AnchorPoint: "Anchor-17" 0 0 basechar 0
AnchorPoint: "Anchor-16" 308 695 basechar 0
AnchorPoint: "Anchor-15" 0 0 basechar 0
AnchorPoint: "Anchor-14" 325 0 basechar 0
LayerCount: 2
Fore
SplineSet
571 317 m 128,-1,1
 614 280 614 280 614 204 c 0,2,3
 614 91 614 91 532 45.5 c 128,-1,4
 450 0 450 0 303 0 c 2,5,-1
 69 0 l 1,6,-1
 69 178 l 1,7,-1
 12 178 l 1,8,-1
 12 261 l 1,9,-1
 69 261 l 1,10,-1
 69 695 l 1,11,-1
 276 695 l 2,12,13
 426 695 426 695 505.5 653.5 c 128,-1,14
 585 612 585 612 585 516 c 0,15,16
 585 455 585 455 548.5 418.5 c 128,-1,17
 512 382 512 382 458 368 c 1,18,0
 528 354 528 354 571 317 c 128,-1,1
254 566 m 1,19,-1
 254 421 l 1,20,-1
 302 421 l 2,21,22
 351 421 351 421 374 439 c 128,-1,23
 397 457 397 457 397 497 c 0,24,25
 397 534 397 534 372.5 550 c 128,-1,26
 348 566 348 566 293 566 c 2,27,-1
 254 566 l 1,19,-1
393 149.5 m 128,-1,29
 423 167 423 167 423 215 c 0,30,31
 423 261 423 261 395 281.5 c 128,-1,32
 367 302 367 302 314 302 c 2,33,-1
 254 302 l 1,34,-1
 254 261 l 1,35,-1
 357 261 l 1,36,-1
 357 178 l 1,37,-1
 254 178 l 1,38,-1
 254 132 l 1,39,-1
 304 132 l 2,40,28
 363 132 363 132 393 149.5 c 128,-1,29
EndSplineSet
Substitution2: "'c2sc' Capitals to Small Capitals lookup 26 subtable" uni0180.sc
Substitution2: "'aalt' Access All Alternates lookup 0 subtable" uni0180.sc
Position2: "'cpsp' Capital Spacing lookup 0 subtable" dx=5 dy=0 dh=10 dv=0
EndChar

StartChar: C
Encoding: 67 67 45
Width: 579
GlyphClass: 2
Flags: W
AnchorPoint: "Anchor-18" 369 352 basechar 0
AnchorPoint: "Anchor-17" 0 0 basechar 0
AnchorPoint: "Anchor-16" 356 695 basechar 0
AnchorPoint: "Anchor-15" 0 0 basechar 0
AnchorPoint: "Anchor-14" 340 0 basechar 0
LayerCount: 2
Fore
SplineSet
469 693 m 128,-1,1
 522 673 522 673 568 634 c 1,2,-1
 481 531 l 1,3,4
 450 554 450 554 421 566 c 128,-1,5
 392 578 392 578 359 578 c 0,6,7
 293 578 293 578 256 521 c 128,-1,8
 219 464 219 464 219 349 c 256,9,10
 219 234 219 234 256.5 178 c 128,-1,11
 294 122 294 122 361 122 c 0,12,13
 397 122 397 122 427.5 136.5 c 128,-1,14
 458 151 458 151 494 179 c 1,15,-1
 576 75 l 1,16,17
 535 34 535 34 477.5 8 c 128,-1,18
 420 -18 420 -18 353 -18 c 0,19,20
 254 -18 254 -18 180.5 24.5 c 128,-1,21
 107 67 107 67 67 149.5 c 128,-1,22
 27 232 27 232 27 349 c 0,23,24
 27 463 27 463 68 545 c 128,-1,25
 109 627 109 627 182 670 c 128,-1,26
 255 713 255 713 350 713 c 0,27,0
 416 713 416 713 469 693 c 128,-1,1
EndSplineSet
Substitution2: "'c2sc' Capitals to Small Capitals lookup 26 subtable" c.sc
Substitution2: "'aalt' Access All Alternates lookup 0 subtable" c.sc
Position2: "'cpsp' Capital Spacing lookup 0 subtable" dx=5 dy=0 dh=10 dv=0
EndChar

StartChar: Ccedilla
Encoding: 199 199 49
Width: 579
GlyphClass: 2
Flags: W
AnchorPoint: "Anchor-18" 369 352 basechar 0
AnchorPoint: "Anchor-17" 0 0 basechar 0
AnchorPoint: "Anchor-16" 356 695 basechar 0
AnchorPoint: "Anchor-15" 0 0 basechar 0
AnchorPoint: "Anchor-14" 357 -269 basechar 0
LayerCount: 2
Fore
SplineSet
465 -78.5 m 128,-1,1
 492 -105 492 -105 492 -149 c 0,2,3
 492 -202 492 -202 450 -235.5 c 128,-1,4
 408 -269 408 -269 336 -269 c 0,5,6
 300 -269 300 -269 269 -259.5 c 128,-1,7
 238 -250 238 -250 217 -236 c 1,8,-1
 257 -157 l 1,9,10
 288 -175 288 -175 320 -175 c 0,11,12
 366 -175 366 -175 366 -147 c 0,13,14
 366 -131 366 -131 344 -123.5 c 128,-1,15
 322 -116 322 -116 273 -116 c 1,16,-1
 286 -13 l 1,17,18
 164 8 164 8 95.5 101 c 128,-1,19
 27 194 27 194 27 349 c 0,20,21
 27 463 27 463 68 545 c 128,-1,22
 109 627 109 627 182 670 c 128,-1,23
 255 713 255 713 350 713 c 0,24,25
 416 713 416 713 469 693 c 128,-1,26
 522 673 522 673 568 634 c 1,27,-1
 481 531 l 1,28,29
 450 554 450 554 421 566 c 128,-1,30
 392 578 392 578 359 578 c 0,31,32
 293 578 293 578 256 521 c 128,-1,33
 219 464 219 464 219 349 c 256,34,35
 219 234 219 234 256.5 178 c 128,-1,36
 294 122 294 122 361 122 c 0,37,38
 397 122 397 122 427.5 136.5 c 128,-1,39
 458 151 458 151 494 179 c 1,40,-1
 576 75 l 1,41,42
 541 40 541 40 491.5 15 c 128,-1,43
 442 -10 442 -10 385 -16 c 1,44,-1
 385 -45 l 1,45,0
 438 -52 438 -52 465 -78.5 c 128,-1,1
EndSplineSet
Substitution2: "'c2sc' Capitals to Small Capitals lookup 26 subtable" ccedilla.sc
Substitution2: "'aalt' Access All Alternates lookup 0 subtable" ccedilla.sc
Position2: "'cpsp' Capital Spacing lookup 0 subtable" dx=5 dy=0 dh=10 dv=0
EndChar

StartChar: uniA7B3
Encoding: 42931 42931 52
Width: 584
GlyphClass: 2
Flags: W
AnchorPoint: "Anchor-18" 0 0 basechar 0
AnchorPoint: "Anchor-17" 0 0 basechar 0
AnchorPoint: "Anchor-16" 292 695 basechar 0
AnchorPoint: "Anchor-15" 0 0 basechar 0
AnchorPoint: "Anchor-14" 292 -213 basechar 0
LayerCount: 2
Fore
SplineSet
399 290 m 1,0,-1
 591 -171 l 1,1,-1
 391 -171 l 1,2,-1
 288 167 l 1,3,-1
 189 -171 l 1,4,-1
 -7 -171 l 1,5,-1
 178 284 l 1,6,-1
 7 695 l 1,7,-1
 206 695 l 1,8,-1
 290 399 l 1,9,-1
 380 695 l 1,10,-1
 575 695 l 1,11,-1
 399 290 l 1,0,-1
EndSplineSet
Substitution2: "'c2sc' Capitals to Small Capitals lookup 26 subtable" uniAB53.sc
Substitution2: "'aalt' Access All Alternates lookup 0 subtable" uniAB53.sc
Position2: "'cpsp' Capital Spacing lookup 0 subtable" dx=5 dy=0 dh=10 dv=0
EndChar

StartChar: uni0187
Encoding: 391 391 53
Width: 579
GlyphClass: 2
Flags: W
AnchorPoint: "Anchor-18" 0 0 basechar 0
AnchorPoint: "Anchor-17" 0 0 basechar 0
AnchorPoint: "Anchor-16" 265 734 basechar 0
AnchorPoint: "Anchor-15" 0 0 basechar 0
AnchorPoint: "Anchor-14" 290 0 basechar 0
LayerCount: 2
Fore
SplineSet
730 820 m 1,1,-1
 681 710 l 1,2,3
 661 719 661 719 646.5 723.5 c 128,-1,4
 632 728 632 728 615 728 c 0,5,6
 591 728 591 728 579.5 714 c 128,-1,7
 568 700 568 700 568 670 c 2,8,-1
 568 634 l 1,9,-1
 489 541 l 1,10,11
 457 559 457 559 427 568.5 c 128,-1,12
 397 578 397 578 358 578 c 0,13,14
 293 578 293 578 256 521 c 128,-1,15
 219 464 219 464 219 349 c 0,16,17
 219 235 219 235 256.5 178.5 c 128,-1,18
 294 122 294 122 362 122 c 0,19,20
 397 122 397 122 426.5 136.5 c 128,-1,21
 456 151 456 151 494 180 c 1,22,-1
 576 75 l 1,23,24
 535 34 535 34 477.5 8 c 128,-1,25
 420 -18 420 -18 352 -18 c 0,26,27
 253 -18 253 -18 180 24.5 c 128,-1,28
 107 67 107 67 67 149.5 c 128,-1,29
 27 232 27 232 27 349 c 0,30,31
 27 461 27 461 67.5 543.5 c 128,-1,32
 108 626 108 626 176.5 669.5 c 128,-1,33
 245 713 245 713 326 713 c 0,34,35
 379 713 379 713 414 697 c 1,36,37
 418 774 418 774 461.5 815.5 c 128,-1,38
 505 857 505 857 589 857 c 0,39,0
 669 857 669 857 730 820 c 1,1,-1
EndSplineSet
Substitution2: "'c2sc' Capitals to Small Capitals lookup 26 subtable" uni0188.sc
Substitution2: "'aalt' Access All Alternates lookup 0 subtable" uni0188.sc
Position2: "'cpsp' Capital Spacing lookup 0 subtable" dx=5 dy=0 dh=10 dv=0
EndChar

StartChar: uni023B
Encoding: 571 571 54
Width: 579
GlyphClass: 2
Flags: W
AnchorPoint: "Anchor-18" 369 352 basechar 0
AnchorPoint: "Anchor-17" 0 0 basechar 0
AnchorPoint: "Anchor-16" 290 695 basechar 0
AnchorPoint: "Anchor-15" 0 0 basechar 0
AnchorPoint: "Anchor-14" 290 0 basechar 0
LayerCount: 2
Fore
SplineSet
477.5 8 m 128,-1,1
 420 -18 420 -18 353 -18 c 0,2,3
 312 -18 312 -18 278 -11 c 1,4,-1
 261 -76 l 1,5,-1
 199 -61 l 1,6,-1
 217 7 l 1,7,8
 127 43 127 43 77 130.5 c 128,-1,9
 27 218 27 218 27 349 c 0,10,11
 27 463 27 463 68 545 c 128,-1,12
 109 627 109 627 182 670 c 128,-1,13
 255 713 255 713 350 713 c 0,14,15
 380 713 380 713 403 709 c 1,16,-1
 416 757 l 1,17,-1
 477 743 l 1,18,-1
 464 695 l 1,19,20
 522 674 522 674 568 634 c 1,21,-1
 481 531 l 1,22,23
 453 552 453 552 429 563 c 1,24,-1
 315 130 l 1,25,26
 337 122 337 122 361 122 c 0,27,28
 397 122 397 122 427.5 136.5 c 128,-1,29
 458 151 458 151 494 179 c 1,30,-1
 576 75 l 1,31,0
 535 34 535 34 477.5 8 c 128,-1,1
261 172 m 1,33,-1
 368 578 l 1,34,-1
 359 578 l 2,35,36
 293 578 293 578 256 521 c 128,-1,37
 219 464 219 464 219 349 c 0,38,32
 219 230 219 230 261 172 c 1,33,-1
EndSplineSet
Substitution2: "'c2sc' Capitals to Small Capitals lookup 26 subtable" uni023C.sc
Substitution2: "'aalt' Access All Alternates lookup 0 subtable" uni023C.sc
Position2: "'cpsp' Capital Spacing lookup 0 subtable" dx=5 dy=0 dh=10 dv=0
EndChar

StartChar: D
Encoding: 68 68 55
Width: 654
GlyphClass: 2
Flags: W
AnchorPoint: "Anchor-18" 327 347 basechar 0
AnchorPoint: "Anchor-17" 0 0 basechar 0
AnchorPoint: "Anchor-16" 293 695 basechar 0
AnchorPoint: "Anchor-15" 0 0 basechar 0
AnchorPoint: "Anchor-14" 308 0 basechar 0
LayerCount: 2
Fore
SplineSet
527 620.5 m 128,-1,1
 627 546 627 546 627 350 c 0,2,3
 627 0 627 0 276 0 c 2,4,-1
 54 0 l 1,5,-1
 54 695 l 1,6,-1
 262 695 l 2,7,0
 427 695 427 695 527 620.5 c 128,-1,1
239 563 m 1,8,-1
 239 132 l 1,9,-1
 287 132 l 2,10,11
 363 132 363 132 399.5 180 c 128,-1,12
 436 228 436 228 436 350 c 0,13,14
 436 434 436 434 418.5 480.5 c 128,-1,15
 401 527 401 527 368.5 545 c 128,-1,16
 336 563 336 563 286 563 c 2,17,-1
 239 563 l 1,8,-1
EndSplineSet
Substitution2: "'c2sc' Capitals to Small Capitals lookup 26 subtable" d.sc
Substitution2: "'aalt' Access All Alternates lookup 0 subtable" d.sc
Position2: "'cpsp' Capital Spacing lookup 0 subtable" dx=5 dy=0 dh=10 dv=0
EndChar

StartChar: Eth
Encoding: 208 208 59
Width: 668
GlyphClass: 2
Flags: W
AnchorPoint: "Anchor-18" 341 347 basechar 0
AnchorPoint: "Anchor-17" 0 0 basechar 0
AnchorPoint: "Anchor-16" 307 695 basechar 0
AnchorPoint: "Anchor-15" 0 0 basechar 0
AnchorPoint: "Anchor-14" 322 0 basechar 0
LayerCount: 2
Fore
SplineSet
541 620.5 m 128,-1,1
 641 546 641 546 641 350 c 0,2,3
 641 0 641 0 290 0 c 2,4,-1
 68 0 l 1,5,-1
 68 299 l 1,6,-1
 12 299 l 1,7,-1
 12 407 l 1,8,-1
 68 407 l 1,9,-1
 68 695 l 1,10,-1
 276 695 l 2,11,0
 441 695 441 695 541 620.5 c 128,-1,1
413.5 180 m 128,-1,13
 450 228 450 228 450 350 c 0,14,15
 450 434 450 434 432.5 480.5 c 128,-1,16
 415 527 415 527 382.5 545 c 128,-1,17
 350 563 350 563 300 563 c 2,18,-1
 253 563 l 1,19,-1
 253 407 l 1,20,-1
 381 407 l 1,21,-1
 381 299 l 1,22,-1
 253 299 l 1,23,-1
 253 132 l 1,24,-1
 301 132 l 2,25,12
 377 132 377 132 413.5 180 c 128,-1,13
EndSplineSet
Substitution2: "'c2sc' Capitals to Small Capitals lookup 26 subtable" eth.sc
Substitution2: "'aalt' Access All Alternates lookup 0 subtable" eth.sc
Position2: "'cpsp' Capital Spacing lookup 0 subtable" dx=5 dy=0 dh=10 dv=0
EndChar

StartChar: uni018A
Encoding: 394 394 65
Width: 813
GlyphClass: 2
Flags: W
AnchorPoint: "Anchor-18" 486 347 basechar 0
AnchorPoint: "Anchor-17" 0 0 basechar 0
AnchorPoint: "Anchor-16" 452 695 basechar 0
AnchorPoint: "Anchor-15" 0 0 basechar 0
AnchorPoint: "Anchor-14" 467 0 basechar 0
LayerCount: 2
Fore
SplineSet
686 620.5 m 128,-1,1
 786 546 786 546 786 350 c 0,2,3
 786 0 786 0 435 0 c 2,4,-1
 213 0 l 1,5,-1
 213 565 l 1,6,-1
 187 565 l 2,7,8
 143 565 143 565 143 525 c 0,9,10
 143 510 143 510 147 496 c 128,-1,11
 151 482 151 482 159 462 c 1,12,-1
 47 414 l 1,13,14
 26 446 26 446 14 475.5 c 128,-1,15
 2 505 2 505 2 537 c 0,16,17
 2 611 2 611 55 653 c 128,-1,18
 108 695 108 695 197 695 c 2,19,-1
 421 695 l 2,20,0
 586 695 586 695 686 620.5 c 128,-1,1
558.5 180 m 128,-1,22
 595 228 595 228 595 350 c 0,23,24
 595 434 595 434 577.5 480.5 c 128,-1,25
 560 527 560 527 527.5 545 c 128,-1,26
 495 563 495 563 445 563 c 2,27,-1
 398 563 l 1,28,-1
 398 132 l 1,29,-1
 446 132 l 2,30,21
 522 132 522 132 558.5 180 c 128,-1,22
EndSplineSet
Substitution2: "'c2sc' Capitals to Small Capitals lookup 26 subtable" uni0257.sc
Substitution2: "'aalt' Access All Alternates lookup 0 subtable" uni0257.sc
Position2: "'cpsp' Capital Spacing lookup 0 subtable" dx=5 dy=0 dh=10 dv=0
EndChar

StartChar: uni018B
Encoding: 395 395 67
Width: 601
GlyphClass: 2
Flags: W
AnchorPoint: "Anchor-18" 0 0 basechar 0
AnchorPoint: "Anchor-17" 0 0 basechar 0
AnchorPoint: "Anchor-16" 300 695 basechar 0
AnchorPoint: "Anchor-15" 0 0 basechar 0
AnchorPoint: "Anchor-14" 300 0 basechar 0
LayerCount: 2
Fore
SplineSet
547 0 m 1,0,-1
 283 0 l 2,1,2
 160 0 160 0 87 57 c 128,-1,3
 14 114 14 114 14 227 c 0,4,5
 14 334 14 334 87 392.5 c 128,-1,6
 160 451 160 451 293 451 c 2,7,-1
 362 451 l 1,8,-1
 362 556 l 1,9,-1
 104 556 l 1,10,-1
 104 695 l 1,11,-1
 547 695 l 1,12,-1
 547 0 l 1,0,-1
362 132 m 1,13,-1
 362 325 l 1,14,-1
 312 325 l 2,15,16
 207 325 207 325 207 227 c 0,17,18
 207 132 207 132 308 132 c 2,19,-1
 362 132 l 1,13,-1
EndSplineSet
Substitution2: "'c2sc' Capitals to Small Capitals lookup 26 subtable" uni018C.sc
Substitution2: "'aalt' Access All Alternates lookup 0 subtable" uni018C.sc
Position2: "'cpsp' Capital Spacing lookup 0 subtable" dx=5 dy=0 dh=10 dv=0
EndChar

StartChar: E
Encoding: 69 69 70
Width: 523
GlyphClass: 2
Flags: W
AnchorPoint: "Anchor-18" 0 0 basechar 0
AnchorPoint: "Anchor-17" 0 0 basechar 0
AnchorPoint: "Anchor-16" 275 695 basechar 0
AnchorPoint: "Anchor-15" 462 0 basechar 0
AnchorPoint: "Anchor-14" 273 0 basechar 0
LayerCount: 2
Fore
SplineSet
495 695 m 1,0,-1
 476 564 l 1,1,-1
 239 564 l 1,2,-1
 239 416 l 1,3,-1
 446 416 l 1,4,-1
 446 289 l 1,5,-1
 239 289 l 1,6,-1
 239 131 l 1,7,-1
 492 131 l 1,8,-1
 492 0 l 1,9,-1
 54 0 l 1,10,-1
 54 695 l 1,11,-1
 495 695 l 1,0,-1
EndSplineSet
Substitution2: "'c2sc' Capitals to Small Capitals lookup 26 subtable" e.sc
Substitution2: "'aalt' Access All Alternates lookup 0 subtable" e.sc
Position2: "'cpsp' Capital Spacing lookup 0 subtable" dx=5 dy=0 dh=10 dv=0
EndChar

StartChar: uni0228
Encoding: 552 552 74
Width: 523
GlyphClass: 2
Flags: W
AnchorPoint: "Anchor-18" 0 0 basechar 0
AnchorPoint: "Anchor-17" 0 0 basechar 0
AnchorPoint: "Anchor-16" 275 695 basechar 0
AnchorPoint: "Anchor-15" 462 0 basechar 0
AnchorPoint: "Anchor-14" 273 0 basechar 0
LayerCount: 2
Fore
SplineSet
239 131 m 1,0,-1
 492 131 l 1,1,-1
 492 0 l 1,2,-1
 318 0 l 1,3,-1
 318 -45 l 1,4,5
 371 -52 371 -52 398 -78.5 c 128,-1,6
 425 -105 425 -105 425 -149 c 0,7,8
 425 -202 425 -202 383 -235.5 c 128,-1,9
 341 -269 341 -269 269 -269 c 0,10,11
 233 -269 233 -269 202 -259.5 c 128,-1,12
 171 -250 171 -250 150 -236 c 1,13,-1
 190 -157 l 1,14,15
 221 -175 221 -175 253 -175 c 0,16,17
 299 -175 299 -175 299 -147 c 0,18,19
 299 -131 299 -131 277 -123.5 c 128,-1,20
 255 -116 255 -116 206 -116 c 1,21,-1
 221 0 l 1,22,-1
 54 0 l 1,23,-1
 54 695 l 1,24,-1
 495 695 l 1,25,-1
 476 564 l 1,26,-1
 239 564 l 1,27,-1
 239 416 l 1,28,-1
 446 416 l 1,29,-1
 446 289 l 1,30,-1
 239 289 l 1,31,-1
 239 131 l 1,0,-1
EndSplineSet
Substitution2: "'c2sc' Capitals to Small Capitals lookup 26 subtable" uni0229.sc
Substitution2: "'aalt' Access All Alternates lookup 0 subtable" uni0229.sc
Position2: "'cpsp' Capital Spacing lookup 0 subtable" dx=5 dy=0 dh=10 dv=0
EndChar

StartChar: Eogonek
Encoding: 280 280 89
Width: 523
GlyphClass: 2
Flags: W
AnchorPoint: "Anchor-18" 0 0 basechar 0
AnchorPoint: "Anchor-17" 0 0 basechar 0
AnchorPoint: "Anchor-16" 275 695 basechar 0
AnchorPoint: "Anchor-15" 462 0 basechar 0
AnchorPoint: "Anchor-14" 273 0 basechar 0
LayerCount: 2
Fore
SplineSet
239 131 m 1,0,-1
 492 131 l 1,1,-1
 492 0 l 1,2,-1
 452 0 l 1,3,4
 336 -41 336 -41 336 -99 c 0,5,6
 336 -143 336 -143 388 -143 c 0,7,8
 417 -143 417 -143 449 -136 c 1,9,-1
 437 -242 l 1,10,11
 403 -250 403 -250 365 -250 c 0,12,13
 298 -250 298 -250 255 -217 c 128,-1,14
 212 -184 212 -184 212 -129 c 0,15,16
 212 -50 212 -50 289 0 c 1,17,-1
 54 0 l 1,18,-1
 54 695 l 1,19,-1
 495 695 l 1,20,-1
 476 564 l 1,21,-1
 239 564 l 1,22,-1
 239 416 l 1,23,-1
 446 416 l 1,24,-1
 446 289 l 1,25,-1
 239 289 l 1,26,-1
 239 131 l 1,0,-1
EndSplineSet
Substitution2: "'c2sc' Capitals to Small Capitals lookup 26 subtable" eogonek.sc
Substitution2: "'aalt' Access All Alternates lookup 0 subtable" eogonek.sc
Position2: "'cpsp' Capital Spacing lookup 0 subtable" dx=5 dy=0 dh=10 dv=0
EndChar

StartChar: uni0190
Encoding: 400 400 90
Width: 547
GlyphClass: 2
Flags: W
AnchorPoint: "Anchor-18" 0 0 basechar 0
AnchorPoint: "Anchor-17" 0 0 basechar 0
AnchorPoint: "Anchor-16" 274 695 basechar 0
AnchorPoint: "Anchor-15" 0 0 basechar 0
AnchorPoint: "Anchor-14" 274 0 basechar 0
LayerCount: 2
Fore
SplineSet
424 689.5 m 128,-1,1
 481 666 481 666 531 619 c 1,2,-1
 444 527 l 1,3,4
 383 582 383 582 318 582 c 0,5,6
 272 582 272 582 251 561.5 c 128,-1,7
 230 541 230 541 230 508 c 0,8,9
 230 471 230 471 255 450.5 c 128,-1,10
 280 430 280 430 326 430 c 2,11,-1
 404 430 l 1,12,-1
 383 301 l 1,13,-1
 329 301 l 2,14,15
 272 301 272 301 243 276.5 c 128,-1,16
 214 252 214 252 214 207 c 256,17,18
 214 162 214 162 242 138.5 c 128,-1,19
 270 115 270 115 320 115 c 0,20,21
 359 115 359 115 391 129.5 c 128,-1,22
 423 144 423 144 456 175 c 1,23,-1
 553 80 l 1,24,25
 461 -18 461 -18 302 -18 c 0,26,27
 220 -18 220 -18 156 8 c 128,-1,28
 92 34 92 34 56.5 82 c 128,-1,29
 21 130 21 130 21 194 c 0,30,31
 21 271 21 271 67.5 314.5 c 128,-1,32
 114 358 114 358 201 367 c 1,33,34
 121 384 121 384 81 426.5 c 128,-1,35
 41 469 41 469 41 529 c 0,36,37
 41 582 41 582 73 624 c 128,-1,38
 105 666 105 666 163 689.5 c 128,-1,39
 221 713 221 713 295 713 c 0,40,0
 367 713 367 713 424 689.5 c 128,-1,1
EndSplineSet
Substitution2: "'c2sc' Capitals to Small Capitals lookup 26 subtable" uni025B.sc
Substitution2: "'aalt' Access All Alternates lookup 0 subtable" uni025B.sc
Position2: "'cpsp' Capital Spacing lookup 0 subtable" dx=5 dy=0 dh=10 dv=0
EndChar

StartChar: uni018E
Encoding: 398 398 91
Width: 523
GlyphClass: 2
Flags: W
AnchorPoint: "Anchor-18" 0 0 basechar 0
AnchorPoint: "Anchor-17" 0 0 basechar 0
AnchorPoint: "Anchor-16" 239 695 basechar 0
AnchorPoint: "Anchor-15" 0 0 basechar 0
AnchorPoint: "Anchor-14" 237 0 basechar 0
LayerCount: 2
Fore
SplineSet
36 695 m 1,0,-1
 469 695 l 1,1,-1
 469 0 l 1,2,-1
 30 0 l 1,3,-1
 30 131 l 1,4,-1
 284 131 l 1,5,-1
 284 289 l 1,6,-1
 76 289 l 1,7,-1
 76 416 l 1,8,-1
 284 416 l 1,9,-1
 284 564 l 1,10,-1
 36 564 l 1,11,-1
 36 695 l 1,0,-1
EndSplineSet
Substitution2: "'c2sc' Capitals to Small Capitals lookup 26 subtable" uni0258.sc
Substitution2: "'aalt' Access All Alternates lookup 0 subtable" uni0258.sc
Position2: "'cpsp' Capital Spacing lookup 0 subtable" dx=5 dy=0 dh=10 dv=0
EndChar

StartChar: uni0246
Encoding: 582 582 93
Width: 523
GlyphClass: 2
Flags: W
AnchorPoint: "Anchor-18" 0 0 basechar 0
AnchorPoint: "Anchor-17" 0 0 basechar 0
AnchorPoint: "Anchor-16" 261 695 basechar 0
AnchorPoint: "Anchor-15" 462 0 basechar 0
AnchorPoint: "Anchor-14" 261 0 basechar 0
LayerCount: 2
Fore
SplineSet
342 289 m 1,0,-1
 301 131 l 1,1,-1
 492 131 l 1,2,-1
 492 0 l 1,3,-1
 266 0 l 1,4,-1
 246 -76 l 1,5,-1
 184 -61 l 1,6,-1
 200 0 l 1,7,-1
 54 0 l 1,8,-1
 54 695 l 1,9,-1
 385 695 l 1,10,-1
 401 757 l 1,11,-1
 462 743 l 1,12,-1
 449 695 l 1,13,-1
 495 695 l 1,14,-1
 476 564 l 1,15,-1
 415 564 l 1,16,-1
 376 416 l 1,17,-1
 446 416 l 1,18,-1
 446 289 l 1,19,-1
 342 289 l 1,0,-1
239 564 m 1,20,-1
 239 416 l 1,21,-1
 311 416 l 1,22,-1
 350 564 l 1,23,-1
 239 564 l 1,20,-1
239 289 m 1,24,-1
 239 146 l 1,25,-1
 277 289 l 1,26,-1
 239 289 l 1,24,-1
EndSplineSet
Substitution2: "'c2sc' Capitals to Small Capitals lookup 26 subtable" uni0247.sc
Substitution2: "'aalt' Access All Alternates lookup 0 subtable" uni0247.sc
Position2: "'cpsp' Capital Spacing lookup 0 subtable" dx=5 dy=0 dh=10 dv=0
EndChar

StartChar: uni01B7
Encoding: 439 439 95
Width: 556
GlyphClass: 2
Flags: W
AnchorPoint: "Anchor-18" 0 0 basechar 0
AnchorPoint: "Anchor-17" 0 0 basechar 0
AnchorPoint: "Anchor-16" 271 695 basechar 0
AnchorPoint: "Anchor-15" 0 0 basechar 0
AnchorPoint: "Anchor-14" 278 0 basechar 0
LayerCount: 2
Fore
SplineSet
481 348 m 128,-1,1
 535 296 535 296 535 208 c 0,2,3
 535 144 535 144 501 93 c 128,-1,4
 467 42 467 42 402.5 12 c 128,-1,5
 338 -18 338 -18 249 -18 c 0,6,7
 166 -18 166 -18 105.5 9.5 c 128,-1,8
 45 37 45 37 2 88 c 1,9,-1
 95 178 l 1,10,11
 130 145 130 145 162.5 130.5 c 128,-1,12
 195 116 195 116 238 116 c 0,13,14
 287 116 287 116 315.5 142 c 128,-1,15
 344 168 344 168 344 215 c 0,16,17
 344 302 344 302 230 302 c 2,18,-1
 127 302 l 1,19,-1
 127 401 l 1,20,-1
 294 563 l 1,21,-1
 44 563 l 1,22,-1
 44 695 l 1,23,-1
 496 695 l 1,24,-1
 496 567 l 1,25,-1
 329 404 l 1,26,0
 427 400 427 400 481 348 c 128,-1,1
EndSplineSet
Substitution2: "'c2sc' Capitals to Small Capitals lookup 26 subtable" uni0292.sc
Substitution2: "'aalt' Access All Alternates lookup 0 subtable" uni0292.sc
Position2: "'cpsp' Capital Spacing lookup 0 subtable" dx=5 dy=0 dh=10 dv=0
EndChar

StartChar: uni01B8
Encoding: 440 440 97
Width: 556
GlyphClass: 2
Flags: W
AnchorPoint: "Anchor-18" 0 0 basechar 0
AnchorPoint: "Anchor-17" 0 0 basechar 0
AnchorPoint: "Anchor-16" 278 695 basechar 0
AnchorPoint: "Anchor-15" 0 0 basechar 0
AnchorPoint: "Anchor-14" 278 0 basechar 0
LayerCount: 2
Fore
SplineSet
554 88 m 1,0,1
 509 36 509 36 448 9 c 128,-1,2
 387 -18 387 -18 300 -18 c 0,3,4
 214 -18 214 -18 151 11 c 128,-1,5
 88 40 88 40 54.5 91 c 128,-1,6
 21 142 21 142 21 206 c 0,7,8
 21 291 21 291 76.5 344.5 c 128,-1,9
 132 398 132 398 226 404 c 1,10,-1
 59 567 l 1,11,-1
 59 695 l 1,12,-1
 512 695 l 1,13,-1
 512 563 l 1,14,-1
 264 563 l 1,15,-1
 429 399 l 1,16,-1
 429 302 l 1,17,-1
 326 302 l 2,18,19
 271 302 271 302 241 278 c 128,-1,20
 211 254 211 254 211 209 c 0,21,22
 211 166 211 166 238 141 c 128,-1,23
 265 116 265 116 311 116 c 256,24,25
 357 116 357 116 391 130.5 c 128,-1,26
 425 145 425 145 461 178 c 1,27,-1
 554 88 l 1,0,1
EndSplineSet
Substitution2: "'c2sc' Capitals to Small Capitals lookup 26 subtable" uni01B9.sc
Substitution2: "'aalt' Access All Alternates lookup 0 subtable" uni01B9.sc
Position2: "'cpsp' Capital Spacing lookup 0 subtable" dx=5 dy=0 dh=10 dv=0
EndChar

StartChar: F
Encoding: 70 70 98
Width: 486
GlyphClass: 2
Flags: W
AnchorPoint: "Anchor-18" 0 0 basechar 0
AnchorPoint: "Anchor-17" 0 0 basechar 0
AnchorPoint: "Anchor-16" 278 695 basechar 0
AnchorPoint: "Anchor-15" 0 0 basechar 0
AnchorPoint: "Anchor-14" 146 0 basechar 0
LayerCount: 2
Fore
SplineSet
54 0 m 1,0,-1
 54 695 l 1,1,-1
 481 695 l 1,2,-1
 462 564 l 1,3,-1
 239 564 l 1,4,-1
 239 397 l 1,5,-1
 435 397 l 1,6,-1
 435 266 l 1,7,-1
 239 266 l 1,8,-1
 239 0 l 1,9,-1
 54 0 l 1,0,-1
EndSplineSet
Substitution2: "'c2sc' Capitals to Small Capitals lookup 26 subtable" f.sc
Substitution2: "'aalt' Access All Alternates lookup 0 subtable" f.sc
Position2: "'cpsp' Capital Spacing lookup 0 subtable" dx=5 dy=0 dh=10 dv=0
EndChar

StartChar: uni0191
Encoding: 401 401 100
Width: 486
GlyphClass: 2
Flags: W
AnchorPoint: "Anchor-18" 0 0 basechar 0
AnchorPoint: "Anchor-17" 0 0 basechar 0
AnchorPoint: "Anchor-16" 278 695 basechar 0
AnchorPoint: "Anchor-15" 0 0 basechar 0
AnchorPoint: "Anchor-14" 146 0 basechar 0
LayerCount: 2
Fore
SplineSet
239 564 m 1,0,-1
 239 397 l 1,1,-1
 435 397 l 1,2,-1
 435 266 l 1,3,-1
 239 266 l 1,4,-1
 239 -24 l 2,5,6
 239 -122 239 -122 181 -173 c 128,-1,7
 123 -224 123 -224 23 -224 c 0,8,9
 -65 -224 -65 -224 -126 -181 c 1,10,-1
 -67 -72 l 1,11,12
 -45 -83 -45 -83 -31.5 -87.5 c 128,-1,13
 -18 -92 -18 -92 2 -92 c 0,14,15
 27 -92 27 -92 40.5 -77.5 c 128,-1,16
 54 -63 54 -63 54 -35 c 2,17,-1
 54 695 l 1,18,-1
 481 695 l 1,19,-1
 462 564 l 1,20,-1
 239 564 l 1,0,-1
EndSplineSet
Substitution2: "'c2sc' Capitals to Small Capitals lookup 26 subtable" uni0191.sc
Substitution2: "'aalt' Access All Alternates lookup 0 subtable" uni0191.sc
Position2: "'cpsp' Capital Spacing lookup 0 subtable" dx=5 dy=0 dh=10 dv=0
EndChar

StartChar: G
Encoding: 71 71 101
Width: 649
GlyphClass: 2
Flags: W
AnchorPoint: "Anchor-18" 0 0 basechar 0
AnchorPoint: "Anchor-17" 0 0 basechar 0
AnchorPoint: "Anchor-16" 351 695 basechar 0
AnchorPoint: "Anchor-15" 0 0 basechar 0
AnchorPoint: "Anchor-14" 349 0 basechar 0
LayerCount: 2
Fore
SplineSet
607 625 m 1,1,-1
 516 530 l 1,2,3
 478 557 478 557 447.5 569.5 c 128,-1,4
 417 582 417 582 378 582 c 0,5,6
 303 582 303 582 260.5 524 c 128,-1,7
 218 466 218 466 218 347 c 0,8,9
 218 260 218 260 232 209.5 c 128,-1,10
 246 159 246 159 274.5 137 c 128,-1,11
 303 115 303 115 348 115 c 256,12,13
 393 115 393 115 430 134 c 1,14,-1
 430 277 l 1,15,-1
 351 277 l 1,16,-1
 333 404 l 1,17,-1
 609 404 l 1,18,-1
 609 58 l 1,19,20
 555 22 555 22 487 2 c 128,-1,21
 419 -18 419 -18 353 -18 c 0,22,23
 27 -18 27 -18 27 348 c 0,24,25
 27 462 27 462 71.5 544.5 c 128,-1,26
 116 627 116 627 193 670 c 128,-1,27
 270 713 270 713 368 713 c 0,28,0
 507 713 507 713 607 625 c 1,1,-1
EndSplineSet
Substitution2: "'c2sc' Capitals to Small Capitals lookup 26 subtable" g.sc
Substitution2: "'aalt' Access All Alternates lookup 0 subtable" g.sc
Position2: "'cpsp' Capital Spacing lookup 0 subtable" dx=5 dy=0 dh=10 dv=0
EndChar

StartChar: uni0194
Encoding: 404 404 103
Width: 574
GlyphClass: 2
Flags: W
AnchorPoint: "Anchor-18" 0 0 basechar 0
AnchorPoint: "Anchor-17" 0 0 basechar 0
AnchorPoint: "Anchor-16" 287 695 basechar 0
AnchorPoint: "Anchor-15" 0 0 basechar 0
AnchorPoint: "Anchor-14" 287 -213 basechar 0
LayerCount: 2
Fore
SplineSet
383 99 m 1,0,1
 418 44 418 44 434.5 -1 c 128,-1,2
 451 -46 451 -46 451 -93 c 0,3,4
 451 -154 451 -154 412 -189 c 128,-1,5
 373 -224 373 -224 290 -224 c 0,6,7
 208 -224 208 -224 169 -189 c 128,-1,8
 130 -154 130 -154 130 -93 c 0,9,10
 130 -52 130 -52 145.5 -9 c 128,-1,11
 161 34 161 34 198 99 c 1,12,-1
 -19 695 l 1,13,-1
 176 695 l 1,14,-1
 290 218 l 1,15,-1
 404 695 l 1,16,-1
 593 695 l 1,17,-1
 383 99 l 1,0,1
311.5 -44.5 m 128,-1,19
 305 -25 305 -25 290 6 c 1,20,21
 276 -25 276 -25 269 -45.5 c 128,-1,22
 262 -66 262 -66 262 -82 c 0,23,24
 262 -112 262 -112 290 -112 c 256,25,26
 318 -112 318 -112 318 -81 c 0,27,18
 318 -64 318 -64 311.5 -44.5 c 128,-1,19
EndSplineSet
Substitution2: "'c2sc' Capitals to Small Capitals lookup 26 subtable" uni0194.sc
Substitution2: "'aalt' Access All Alternates lookup 0 subtable" uni0194.sc
Position2: "'cpsp' Capital Spacing lookup 0 subtable" dx=5 dy=0 dh=10 dv=0
EndChar

StartChar: uni0193
Encoding: 403 403 109
Width: 619
GlyphClass: 2
Flags: W
AnchorPoint: "Anchor-18" 0 0 basechar 0
AnchorPoint: "Anchor-17" 0 0 basechar 0
AnchorPoint: "Anchor-16" 293 734 basechar 0
AnchorPoint: "Anchor-15" 0 0 basechar 0
AnchorPoint: "Anchor-14" 310 0 basechar 0
LayerCount: 2
Fore
SplineSet
770 820 m 1,1,-1
 721 710 l 1,2,3
 702 719 702 719 687 723.5 c 128,-1,4
 672 728 672 728 655 728 c 0,5,6
 607 728 607 728 607 670 c 2,7,-1
 607 625 l 1,8,-1
 522 536 l 1,9,10
 484 559 484 559 450 570.5 c 128,-1,11
 416 582 416 582 378 582 c 0,12,13
 303 582 303 582 260.5 524 c 128,-1,14
 218 466 218 466 218 347 c 0,15,16
 218 260 218 260 232 209.5 c 128,-1,17
 246 159 246 159 274.5 137 c 128,-1,18
 303 115 303 115 348 115 c 0,19,20
 394 115 394 115 430 135 c 1,21,-1
 430 277 l 1,22,-1
 351 277 l 1,23,-1
 333 404 l 1,24,-1
 609 404 l 1,25,-1
 609 58 l 1,26,27
 554 22 554 22 486 2 c 128,-1,28
 418 -18 418 -18 352 -18 c 0,29,30
 27 -18 27 -18 27 348 c 0,31,32
 27 461 27 461 71 544 c 128,-1,33
 115 627 115 627 188 670 c 128,-1,34
 261 713 261 713 347 713 c 0,35,36
 406 713 406 713 454 693 c 1,37,38
 457 772 457 772 500.5 814.5 c 128,-1,39
 544 857 544 857 629 857 c 0,40,0
 709 857 709 857 770 820 c 1,1,-1
EndSplineSet
Substitution2: "'c2sc' Capitals to Small Capitals lookup 26 subtable" uni0260.sc
Substitution2: "'aalt' Access All Alternates lookup 0 subtable" uni0260.sc
Position2: "'cpsp' Capital Spacing lookup 0 subtable" dx=5 dy=0 dh=10 dv=0
EndChar

StartChar: uni0241
Encoding: 577 577 110
Width: 522
GlyphClass: 2
Flags: W
AnchorPoint: "Anchor-18" 0 0 basechar 0
AnchorPoint: "Anchor-17" 0 0 basechar 0
AnchorPoint: "Anchor-16" 261 695 basechar 0
AnchorPoint: "Anchor-15" 0 0 basechar 0
AnchorPoint: "Anchor-14" 239 0 basechar 0
LayerCount: 2
Fore
SplineSet
146 334 m 1,0,-1
 196 348 l 2,1,2
 258 365 258 365 284.5 396 c 128,-1,3
 311 427 311 427 311 484 c 0,4,5
 311 530 311 530 287 556 c 128,-1,6
 263 582 263 582 219 582 c 0,7,8
 185 582 185 582 155 569 c 128,-1,9
 125 556 125 556 89 527 c 1,10,-1
 2 619 l 1,11,12
 102 713 102 713 246 713 c 0,13,14
 324 713 324 713 382 685.5 c 128,-1,15
 440 658 440 658 471 608.5 c 128,-1,16
 502 559 502 559 502 493 c 0,17,18
 502 414 502 414 466.5 367 c 128,-1,19
 431 320 431 320 357 290 c 2,20,-1
 331 280 l 1,21,-1
 331 0 l 1,22,-1
 146 0 l 1,23,-1
 146 334 l 1,0,-1
EndSplineSet
Substitution2: "'c2sc' Capitals to Small Capitals lookup 26 subtable" uni0294.sc
Substitution2: "'aalt' Access All Alternates lookup 0 subtable" uni0294.sc
Position2: "'cpsp' Capital Spacing lookup 0 subtable" dx=5 dy=0 dh=10 dv=0
EndChar

StartChar: uni01E4
Encoding: 484 484 111
Width: 673
GlyphClass: 2
Flags: W
AnchorPoint: "Anchor-18" 0 0 basechar 0
AnchorPoint: "Anchor-17" 0 0 basechar 0
AnchorPoint: "Anchor-16" 338 695 basechar 0
AnchorPoint: "Anchor-15" 0 0 basechar 0
AnchorPoint: "Anchor-14" 338 0 basechar 0
LayerCount: 2
Fore
SplineSet
672 178 m 1,0,-1
 609 178 l 1,1,-1
 609 58 l 1,2,3
 555 22 555 22 487 2 c 128,-1,4
 419 -18 419 -18 353 -18 c 0,5,6
 27 -18 27 -18 27 348 c 0,7,8
 27 462 27 462 71.5 544.5 c 128,-1,9
 116 627 116 627 193 670 c 128,-1,10
 270 713 270 713 367 713 c 0,11,12
 507 713 507 713 607 625 c 1,13,-1
 516 530 l 1,14,15
 478 557 478 557 447.5 569.5 c 128,-1,16
 417 582 417 582 378 582 c 0,17,18
 303 582 303 582 260.5 524 c 128,-1,19
 218 466 218 466 218 347 c 0,20,21
 218 260 218 260 232 209.5 c 128,-1,22
 246 159 246 159 274.5 137 c 128,-1,23
 303 115 303 115 348 115 c 0,24,25
 394 115 394 115 447 134 c 1,26,-1
 447 178 l 1,27,-1
 342 178 l 1,28,-1
 342 278 l 1,29,-1
 447 278 l 1,30,-1
 447 317 l 1,31,-1
 348 317 l 1,32,-1
 333 424 l 1,33,-1
 609 424 l 1,34,-1
 609 278 l 1,35,-1
 672 278 l 1,36,-1
 672 178 l 1,0,-1
EndSplineSet
Substitution2: "'c2sc' Capitals to Small Capitals lookup 26 subtable" uni01E5.sc
Substitution2: "'aalt' Access All Alternates lookup 0 subtable" uni01E5.sc
Position2: "'cpsp' Capital Spacing lookup 0 subtable" dx=5 dy=0 dh=10 dv=0
EndChar

StartChar: uni021C
Encoding: 540 540 112
Width: 525
GlyphClass: 2
Flags: W
AnchorPoint: "Anchor-18" 0 0 basechar 0
AnchorPoint: "Anchor-17" 0 0 basechar 0
AnchorPoint: "Anchor-16" 263 695 basechar 0
AnchorPoint: "Anchor-15" 0 0 basechar 0
AnchorPoint: "Anchor-14" 263 -213 basechar 0
LayerCount: 2
Fore
SplineSet
368.5 689 m 128,-1,1
 424 665 424 665 454 622.5 c 128,-1,2
 484 580 484 580 484 524 c 0,3,4
 484 460 484 460 444.5 417 c 128,-1,5
 405 374 405 374 324 357 c 1,6,7
 412 348 412 348 458 308.5 c 128,-1,8
 504 269 504 269 504 194 c 0,9,10
 504 88 504 88 399 6.5 c 128,-1,11
 294 -75 294 -75 69 -117 c 1,12,-1
 55 17 l 1,13,14
 159 45 159 45 215 73.5 c 128,-1,15
 271 102 271 102 291.5 132.5 c 128,-1,16
 312 163 312 163 312 203 c 0,17,18
 312 291 312 291 196 291 c 2,19,-1
 121 291 l 1,20,-1
 142 420 l 1,21,-1
 200 420 l 2,22,23
 246 420 246 420 270.5 441.5 c 128,-1,24
 295 463 295 463 295 503 c 0,25,26
 295 540 295 540 275 561 c 128,-1,27
 255 582 255 582 212 582 c 0,28,29
 148 582 148 582 78 527 c 1,30,-1
 -6 619 l 1,31,32
 93 713 93 713 239 713 c 0,33,0
 313 713 313 713 368.5 689 c 128,-1,1
EndSplineSet
Substitution2: "'c2sc' Capitals to Small Capitals lookup 26 subtable" uni021D.sc
Substitution2: "'aalt' Access All Alternates lookup 0 subtable" uni021D.sc
Position2: "'cpsp' Capital Spacing lookup 0 subtable" dx=5 dy=0 dh=10 dv=0
EndChar

StartChar: H
Encoding: 72 72 113
Width: 661
GlyphClass: 2
Flags: W
AnchorPoint: "Anchor-18" 331 347 basechar 0
AnchorPoint: "Anchor-17" 0 0 basechar 0
AnchorPoint: "Anchor-16" 331 695 basechar 0
AnchorPoint: "Anchor-15" 0 0 basechar 0
AnchorPoint: "Anchor-14" 331 0 basechar 0
LayerCount: 2
Fore
SplineSet
423 0 m 1,0,-1
 423 289 l 1,1,-1
 239 289 l 1,2,-1
 239 0 l 1,3,-1
 54 0 l 1,4,-1
 54 695 l 1,5,-1
 239 695 l 1,6,-1
 239 432 l 1,7,-1
 423 432 l 1,8,-1
 423 695 l 1,9,-1
 608 695 l 1,10,-1
 608 0 l 1,11,-1
 423 0 l 1,0,-1
EndSplineSet
Substitution2: "'c2sc' Capitals to Small Capitals lookup 26 subtable" h.sc
Substitution2: "'aalt' Access All Alternates lookup 0 subtable" h.sc
Position2: "'cpsp' Capital Spacing lookup 0 subtable" dx=5 dy=0 dh=10 dv=0
EndChar

StartChar: Hbar
Encoding: 294 294 114
Width: 674
GlyphClass: 2
Flags: W
AnchorPoint: "Anchor-18" 337 347 basechar 0
AnchorPoint: "Anchor-17" 0 0 basechar 0
AnchorPoint: "Anchor-16" 337 695 basechar 0
AnchorPoint: "Anchor-15" 0 0 basechar 0
AnchorPoint: "Anchor-14" 337 0 basechar 0
LayerCount: 2
Fore
SplineSet
668 596 m 1,0,-1
 668 497 l 1,1,-1
 614 497 l 1,2,-1
 614 0 l 1,3,-1
 429 0 l 1,4,-1
 429 289 l 1,5,-1
 245 289 l 1,6,-1
 245 0 l 1,7,-1
 60 0 l 1,8,-1
 60 497 l 1,9,-1
 7 497 l 1,10,-1
 7 596 l 1,11,-1
 60 596 l 1,12,-1
 60 695 l 1,13,-1
 245 695 l 1,14,-1
 245 596 l 1,15,-1
 429 596 l 1,16,-1
 429 695 l 1,17,-1
 614 695 l 1,18,-1
 614 596 l 1,19,-1
 668 596 l 1,0,-1
429 432 m 1,20,-1
 429 497 l 1,21,-1
 245 497 l 1,22,-1
 245 432 l 1,23,-1
 429 432 l 1,20,-1
EndSplineSet
Substitution2: "'c2sc' Capitals to Small Capitals lookup 26 subtable" hbar.sc
Substitution2: "'aalt' Access All Alternates lookup 0 subtable" hbar.sc
Position2: "'cpsp' Capital Spacing lookup 0 subtable" dx=5 dy=0 dh=10 dv=0
EndChar

StartChar: uniA7AA
Encoding: 42922 42922 118
Width: 821
GlyphClass: 2
Flags: W
AnchorPoint: "Anchor-18" 490 347 basechar 0
AnchorPoint: "Anchor-17" 0 0 basechar 0
AnchorPoint: "Anchor-16" 490 695 basechar 0
AnchorPoint: "Anchor-15" 0 0 basechar 0
AnchorPoint: "Anchor-14" 490 0 basechar 0
LayerCount: 2
Fore
SplineSet
767 695 m 1,0,-1
 767 0 l 1,1,-1
 582 0 l 1,2,-1
 582 289 l 1,3,-1
 398 289 l 1,4,-1
 398 0 l 1,5,-1
 213 0 l 1,6,-1
 213 565 l 1,7,-1
 187 565 l 2,8,9
 143 565 143 565 143 525 c 0,10,11
 143 510 143 510 147 496 c 128,-1,12
 151 482 151 482 159 462 c 1,13,-1
 47 414 l 1,14,15
 26 446 26 446 14 475.5 c 128,-1,16
 2 505 2 505 2 537 c 0,17,18
 2 611 2 611 55 653 c 128,-1,19
 108 695 108 695 197 695 c 2,20,-1
 398 695 l 1,21,-1
 398 432 l 1,22,-1
 582 432 l 1,23,-1
 582 695 l 1,24,-1
 767 695 l 1,0,-1
EndSplineSet
Substitution2: "'c2sc' Capitals to Small Capitals lookup 26 subtable" uniA7AA.sc
Substitution2: "'aalt' Access All Alternates lookup 0 subtable" uniA7AA.sc
Position2: "'cpsp' Capital Spacing lookup 0 subtable" dx=5 dy=0 dh=10 dv=0
EndChar

StartChar: uniA78D.ss02
Encoding: 65539 -1 120
Width: 597
GlyphClass: 2
Flags: W
AnchorPoint: "Anchor-18" 0 0 basechar 0
AnchorPoint: "Anchor-17" 0 0 basechar 0
AnchorPoint: "Anchor-16" 298 695 basechar 0
AnchorPoint: "Anchor-15" 0 0 basechar 0
AnchorPoint: "Anchor-14" 298 0 basechar 0
LayerCount: 2
Fore
SplineSet
358 0 m 1,0,-1
 358 238 l 1,1,-1
 19 237 l 1,2,-1
 19 695 l 1,3,-1
 204 695 l 1,4,-1
 204 381 l 1,5,-1
 358 381 l 1,6,-1
 358 695 l 1,7,-1
 543 695 l 1,8,-1
 543 0 l 1,9,-1
 358 0 l 1,0,-1
EndSplineSet
Position2: "'cpsp' Capital Spacing lookup 0 subtable" dx=5 dy=0 dh=10 dv=0
EndChar

StartChar: uni01F6
Encoding: 502 502 121
Width: 945
GlyphClass: 2
Flags: W
AnchorPoint: "Anchor-18" 0 0 basechar 0
AnchorPoint: "Anchor-17" 0 0 basechar 0
AnchorPoint: "Anchor-16" 473 695 basechar 0
AnchorPoint: "Anchor-15" 0 0 basechar 0
AnchorPoint: "Anchor-14" 473 0 basechar 0
LayerCount: 2
Fore
SplineSet
904 391 m 128,-1,1
 912 323 912 323 912 246 c 0,2,3
 912 156 912 156 874 96.5 c 128,-1,4
 836 37 836 37 775.5 9.5 c 128,-1,5
 715 -18 715 -18 644 -18 c 0,6,7
 546 -18 546 -18 484.5 32.5 c 128,-1,8
 423 83 423 83 423 186 c 2,9,-1
 423 289 l 1,10,-1
 239 289 l 1,11,-1
 239 0 l 1,12,-1
 54 0 l 1,13,-1
 54 695 l 1,14,-1
 239 695 l 1,15,-1
 239 432 l 1,16,-1
 423 432 l 1,17,-1
 423 695 l 1,18,-1
 608 695 l 1,19,-1
 608 186 l 2,20,21
 608 145 608 145 620.5 128 c 128,-1,22
 633 111 633 111 658 111 c 0,23,24
 691 111 691 111 712.5 146.5 c 128,-1,25
 734 182 734 182 734 260 c 0,26,27
 734 378 734 378 707 533 c 1,28,-1
 882 533 l 1,29,0
 896 459 896 459 904 391 c 128,-1,1
EndSplineSet
Substitution2: "'c2sc' Capitals to Small Capitals lookup 26 subtable" uni01F6.sc
Substitution2: "'aalt' Access All Alternates lookup 0 subtable" uni01F6.sc
Position2: "'cpsp' Capital Spacing lookup 0 subtable" dx=5 dy=0 dh=10 dv=0
EndChar

StartChar: I
Encoding: 73 73 122
Width: 293
GlyphClass: 2
Flags: W
AnchorPoint: "Anchor-18" 0 0 basechar 0
AnchorPoint: "Anchor-17" 0 0 basechar 0
AnchorPoint: "Anchor-16" 146 695 basechar 0
AnchorPoint: "Anchor-15" 211 0 basechar 0
AnchorPoint: "Anchor-14" 146 0 basechar 0
LayerCount: 2
Fore
SplineSet
239 695 m 1,0,-1
 239 0 l 1,1,-1
 54 0 l 1,2,-1
 54 695 l 1,3,-1
 239 695 l 1,0,-1
EndSplineSet
Substitution2: "'c2sc' Capitals to Small Capitals lookup 26 subtable" i.sc
Substitution2: "'aalt' Access All Alternates lookup 0 subtable" i.sc
Position2: "'cpsp' Capital Spacing lookup 0 subtable" dx=5 dy=0 dh=10 dv=0
EndChar

StartChar: Iogonek
Encoding: 302 302 137
Width: 293
GlyphClass: 2
Flags: W
AnchorPoint: "Anchor-18" 0 0 basechar 0
AnchorPoint: "Anchor-17" 0 0 basechar 0
AnchorPoint: "Anchor-16" 146 695 basechar 0
AnchorPoint: "Anchor-15" 211 0 basechar 0
AnchorPoint: "Anchor-14" 146 0 basechar 0
LayerCount: 2
Fore
SplineSet
239 695 m 1,0,-1
 239 0 l 1,1,-1
 201 0 l 1,2,3
 85 -41 85 -41 85 -99 c 0,4,5
 85 -143 85 -143 137 -143 c 0,6,7
 166 -143 166 -143 198 -136 c 1,8,-1
 186 -242 l 1,9,10
 152 -250 152 -250 114 -250 c 0,11,12
 47 -250 47 -250 4 -217 c 128,-1,13
 -39 -184 -39 -184 -39 -129 c 0,14,15
 -39 -42 -39 -42 54 10 c 1,16,-1
 54 695 l 1,17,-1
 239 695 l 1,0,-1
EndSplineSet
Substitution2: "'c2sc' Capitals to Small Capitals lookup 26 subtable" iogonek.sc
Substitution2: "'aalt' Access All Alternates lookup 0 subtable" iogonek.sc
Position2: "'cpsp' Capital Spacing lookup 0 subtable" dx=5 dy=0 dh=10 dv=0
EndChar

StartChar: uni0196
Encoding: 406 406 138
Width: 398
GlyphClass: 2
Flags: W
AnchorPoint: "Anchor-18" 0 0 basechar 0
AnchorPoint: "Anchor-17" 0 0 basechar 0
AnchorPoint: "Anchor-16" 136 695 basechar 0
AnchorPoint: "Anchor-15" 0 0 basechar 0
AnchorPoint: "Anchor-14" 211 0 basechar 0
LayerCount: 2
Fore
SplineSet
409 25 m 1,0,1
 348 -18 348 -18 260 -18 c 0,2,3
 160 -18 160 -18 102 33 c 128,-1,4
 44 84 44 84 44 182 c 2,5,-1
 44 695 l 1,6,-1
 229 695 l 1,7,-1
 229 171 l 2,8,9
 229 143 229 143 243 128.5 c 128,-1,10
 257 114 257 114 281 114 c 0,11,12
 301 114 301 114 314.5 118.5 c 128,-1,13
 328 123 328 123 350 134 c 1,14,-1
 409 25 l 1,0,1
EndSplineSet
Substitution2: "'c2sc' Capitals to Small Capitals lookup 26 subtable" uni0196.sc
Substitution2: "'aalt' Access All Alternates lookup 0 subtable" uni0196.sc
Position2: "'cpsp' Capital Spacing lookup 0 subtable" dx=5 dy=0 dh=10 dv=0
EndChar

StartChar: uni0197
Encoding: 407 407 139
Width: 335
GlyphClass: 2
Flags: W
AnchorPoint: "Anchor-18" 0 0 basechar 0
AnchorPoint: "Anchor-17" 0 0 basechar 0
AnchorPoint: "Anchor-16" 167 695 basechar 0
AnchorPoint: "Anchor-15" 232 0 basechar 0
AnchorPoint: "Anchor-14" 167 0 basechar 0
LayerCount: 2
Fore
SplineSet
332 427 m 1,0,-1
 332 293 l 1,1,-1
 260 293 l 1,2,-1
 260 0 l 1,3,-1
 75 0 l 1,4,-1
 75 293 l 1,5,-1
 3 293 l 1,6,-1
 3 427 l 1,7,-1
 75 427 l 1,8,-1
 75 695 l 1,9,-1
 260 695 l 1,10,-1
 260 427 l 1,11,-1
 332 427 l 1,0,-1
EndSplineSet
Substitution2: "'c2sc' Capitals to Small Capitals lookup 26 subtable" uni0268.sc
Substitution2: "'aalt' Access All Alternates lookup 0 subtable" uni0268.sc
Position2: "'cpsp' Capital Spacing lookup 0 subtable" dx=5 dy=0 dh=10 dv=0
EndChar

StartChar: J
Encoding: 74 74 141
Width: 321
GlyphClass: 2
Flags: W
AnchorPoint: "Anchor-18" 0 0 basechar 0
AnchorPoint: "Anchor-17" 0 0 basechar 0
AnchorPoint: "Anchor-16" 178 695 basechar 0
AnchorPoint: "Anchor-15" 0 0 basechar 0
AnchorPoint: "Anchor-14" 161 -213 basechar 0
LayerCount: 2
Fore
SplineSet
270 108 m 2,0,1
 270 21 270 21 237.5 -35.5 c 128,-1,2
 205 -92 205 -92 154.5 -124 c 128,-1,3
 104 -156 104 -156 34 -179 c 1,4,-1
 -15 -49 l 1,5,6
 28 -32 28 -32 49.5 -9.5 c 128,-1,7
 71 13 71 13 78 41.5 c 128,-1,8
 85 70 85 70 85 115 c 2,9,-1
 85 695 l 1,10,-1
 270 695 l 1,11,-1
 270 108 l 2,0,1
EndSplineSet
Substitution2: "'c2sc' Capitals to Small Capitals lookup 26 subtable" j.sc
Substitution2: "'aalt' Access All Alternates lookup 0 subtable" j.sc
Position2: "'cpsp' Capital Spacing lookup 0 subtable" dx=5 dy=0 dh=10 dv=0
EndChar

StartChar: uniA7B2
Encoding: 42930 42930 143
Width: 361
GlyphClass: 2
Flags: W
AnchorPoint: "Anchor-18" 0 0 basechar 0
AnchorPoint: "Anchor-17" 0 0 basechar 0
AnchorPoint: "Anchor-16" 215 695 basechar 0
AnchorPoint: "Anchor-15" 0 0 basechar 0
AnchorPoint: "Anchor-14" 181 -213 basechar 0
LayerCount: 2
Fore
SplineSet
385 -113 m 1,0,1
 327 -88 327 -88 292 -80 c 1,2,3
 247 -224 247 -224 69 -224 c 0,4,5
 -7 -224 -7 -224 -48 -191.5 c 128,-1,6
 -89 -159 -89 -159 -89 -103 c 0,7,8
 -89 -40 -89 -40 -44 -6 c 128,-1,9
 1 28 1 28 85 28 c 0,10,11
 113 28 113 28 123 27 c 1,12,-1
 123 695 l 1,13,-1
 308 695 l 1,14,-1
 308 44 l 2,15,16
 308 29 308 29 306 1 c 1,17,18
 365 -16 365 -16 416 -42 c 1,19,-1
 385 -113 l 1,0,1
106 -117.5 m 128,-1,21
 120 -99 120 -99 122 -54 c 1,22,23
 114 -53 114 -53 84 -53 c 0,24,25
 48 -53 48 -53 31.5 -64 c 128,-1,26
 15 -75 15 -75 15 -98 c 0,27,28
 15 -116 15 -116 26 -126 c 128,-1,29
 37 -136 37 -136 60 -136 c 0,30,20
 92 -136 92 -136 106 -117.5 c 128,-1,21
EndSplineSet
Substitution2: "'c2sc' Capitals to Small Capitals lookup 26 subtable" uniA7B2.sc
Substitution2: "'aalt' Access All Alternates lookup 0 subtable" uniA7B2.sc
Position2: "'cpsp' Capital Spacing lookup 0 subtable" dx=5 dy=0 dh=10 dv=0
EndChar

StartChar: uni0248
Encoding: 584 584 144
Width: 344
GlyphClass: 2
Flags: W
AnchorPoint: "Anchor-18" 0 0 basechar 0
AnchorPoint: "Anchor-17" 0 0 basechar 0
AnchorPoint: "Anchor-16" 178 695 basechar 0
AnchorPoint: "Anchor-15" 0 0 basechar 0
AnchorPoint: "Anchor-14" 161 -213 basechar 0
LayerCount: 2
Fore
SplineSet
342 275 m 1,0,-1
 270 275 l 1,1,-1
 270 108 l 2,2,3
 270 21 270 21 237.5 -35.5 c 128,-1,4
 205 -92 205 -92 154.5 -124 c 128,-1,5
 104 -156 104 -156 34 -179 c 1,6,-1
 -15 -49 l 1,7,8
 28 -32 28 -32 49.5 -9.5 c 128,-1,9
 71 13 71 13 78 41.5 c 128,-1,10
 85 70 85 70 85 115 c 2,11,-1
 85 275 l 1,12,-1
 13 275 l 1,13,-1
 13 411 l 1,14,-1
 85 411 l 1,15,-1
 85 695 l 1,16,-1
 270 695 l 1,17,-1
 270 411 l 1,18,-1
 342 411 l 1,19,-1
 342 275 l 1,0,-1
EndSplineSet
Substitution2: "'c2sc' Capitals to Small Capitals lookup 26 subtable" uni0249.sc
Substitution2: "'aalt' Access All Alternates lookup 0 subtable" uni0249.sc
Position2: "'cpsp' Capital Spacing lookup 0 subtable" dx=5 dy=0 dh=10 dv=0
EndChar

StartChar: K
Encoding: 75 75 145
Width: 646
GlyphClass: 2
Flags: W
AnchorPoint: "Anchor-18" 0 0 basechar 0
AnchorPoint: "Anchor-17" 0 0 basechar 0
AnchorPoint: "Anchor-16" 330 695 basechar 0
AnchorPoint: "Anchor-15" 0 0 basechar 0
AnchorPoint: "Anchor-14" 327 0 basechar 0
LayerCount: 2
Fore
SplineSet
239 695 m 1,0,-1
 239 0 l 1,1,-1
 54 0 l 1,2,-1
 54 695 l 1,3,-1
 239 695 l 1,0,-1
644 695 m 1,4,-1
 435 385 l 1,5,-1
 662 0 l 1,6,-1
 450 0 l 1,7,-1
 245 370 l 1,8,-1
 451 695 l 1,9,-1
 644 695 l 1,4,-1
EndSplineSet
Substitution2: "'c2sc' Capitals to Small Capitals lookup 26 subtable" k.sc
Substitution2: "'aalt' Access All Alternates lookup 0 subtable" k.sc
Position2: "'cpsp' Capital Spacing lookup 0 subtable" dx=5 dy=0 dh=10 dv=0
EndChar

StartChar: uni0198
Encoding: 408 408 148
Width: 664
GlyphClass: 2
Flags: W
AnchorPoint: "Anchor-18" 0 0 basechar 0
AnchorPoint: "Anchor-17" 0 0 basechar 0
AnchorPoint: "Anchor-16" 332 695 basechar 0
AnchorPoint: "Anchor-15" 0 0 basechar 0
AnchorPoint: "Anchor-14" 332 0 basechar 0
LayerCount: 2
Fore
SplineSet
245 370 m 1,0,-1
 374 586 l 2,1,2
 415 656 415 656 456.5 684.5 c 128,-1,3
 498 713 498 713 564 713 c 0,4,5
 633 713 633 713 680 675 c 1,6,-1
 634 572 l 1,7,8
 612 583 612 583 592 583 c 256,9,10
 572 583 572 583 558.5 573.5 c 128,-1,11
 545 564 545 564 526 534 c 2,12,-1
 435 385 l 1,13,-1
 662 0 l 1,14,-1
 450 0 l 1,15,-1
 245 370 l 1,0,-1
239 695 m 1,16,-1
 239 0 l 1,17,-1
 54 0 l 1,18,-1
 54 695 l 1,19,-1
 239 695 l 1,16,-1
EndSplineSet
Substitution2: "'c2sc' Capitals to Small Capitals lookup 26 subtable" uni0199.sc
Substitution2: "'aalt' Access All Alternates lookup 0 subtable" uni0199.sc
Position2: "'cpsp' Capital Spacing lookup 0 subtable" dx=5 dy=0 dh=10 dv=0
EndChar

StartChar: L
Encoding: 76 76 149
Width: 517
GlyphClass: 2
Flags: W
AnchorPoint: "Anchor-18" 401 401 basechar 0
AnchorPoint: "Anchor-17" 251 695 basechar 0
AnchorPoint: "Anchor-16" 146 695 basechar 0
AnchorPoint: "Anchor-15" 0 0 basechar 0
AnchorPoint: "Anchor-14" 270 0 basechar 0
LayerCount: 2
Fore
SplineSet
239 695 m 1,0,-1
 239 144 l 1,1,-1
 506 144 l 1,2,-1
 486 0 l 1,3,-1
 54 0 l 1,4,-1
 54 695 l 1,5,-1
 239 695 l 1,0,-1
EndSplineSet
Substitution2: "'c2sc' Capitals to Small Capitals lookup 26 subtable" l.sc
Substitution2: "'aalt' Access All Alternates lookup 0 subtable" l.sc
Position2: "'cpsp' Capital Spacing lookup 0 subtable" dx=5 dy=0 dh=10 dv=0
EndChar

StartChar: uni023D
Encoding: 573 573 152
Width: 538
GlyphClass: 2
Flags: W
AnchorPoint: "Anchor-18" 422 401 basechar 0
AnchorPoint: "Anchor-17" 272 695 basechar 0
AnchorPoint: "Anchor-16" 167 695 basechar 0
AnchorPoint: "Anchor-15" 0 0 basechar 0
AnchorPoint: "Anchor-14" 291 0 basechar 0
LayerCount: 2
Fore
SplineSet
260 144 m 1,0,-1
 527 144 l 1,1,-1
 507 0 l 1,2,-1
 75 0 l 1,3,-1
 75 295 l 1,4,-1
 3 295 l 1,5,-1
 3 431 l 1,6,-1
 75 431 l 1,7,-1
 75 695 l 1,8,-1
 260 695 l 1,9,-1
 260 431 l 1,10,-1
 332 431 l 1,11,-1
 332 295 l 1,12,-1
 260 295 l 1,13,-1
 260 144 l 1,0,-1
EndSplineSet
Substitution2: "'c2sc' Capitals to Small Capitals lookup 26 subtable" uni019A.sc
Substitution2: "'aalt' Access All Alternates lookup 0 subtable" uni019A.sc
Position2: "'cpsp' Capital Spacing lookup 0 subtable" dx=5 dy=0 dh=10 dv=0
EndChar

StartChar: uniA7AD
Encoding: 42925 42925 153
Width: 631
GlyphClass: 2
Flags: W
AnchorPoint: "Anchor-18" 515 401 basechar 0
AnchorPoint: "Anchor-17" 365 695 basechar 0
AnchorPoint: "Anchor-16" 260 695 basechar 0
AnchorPoint: "Anchor-15" 0 0 basechar 0
AnchorPoint: "Anchor-14" 384 0 basechar 0
LayerCount: 2
Fore
SplineSet
620 144 m 1,0,-1
 600 0 l 1,1,-1
 168 0 l 1,2,-1
 168 250 l 1,3,4
 83 252 83 252 40.5 288.5 c 128,-1,5
 -2 325 -2 325 -2 386 c 0,6,7
 -2 443 -2 443 34 474.5 c 128,-1,8
 70 506 70 506 129 506 c 0,9,10
 151 506 151 506 168 501 c 1,11,-1
 168 695 l 1,12,-1
 353 695 l 1,13,-1
 353 351 l 1,14,15
 411 354 411 354 473 365 c 1,16,-1
 486 271 l 1,17,18
 426 259 426 259 353 254 c 1,19,-1
 353 144 l 1,20,-1
 620 144 l 1,0,-1
168 348 m 1,22,-1
 168 414 l 1,23,24
 154 417 154 417 142 417 c 0,25,26
 128 417 128 417 120 409 c 128,-1,27
 112 401 112 401 112 387 c 0,28,21
 112 348 112 348 168 348 c 1,22,-1
EndSplineSet
Substitution2: "'c2sc' Capitals to Small Capitals lookup 26 subtable" uniA7AD.sc
Substitution2: "'aalt' Access All Alternates lookup 0 subtable" uniA7AD.sc
Position2: "'cpsp' Capital Spacing lookup 0 subtable" dx=5 dy=0 dh=10 dv=0
EndChar

StartChar: Lslash
Encoding: 321 321 160
Width: 564
GlyphClass: 2
Flags: W
AnchorPoint: "Anchor-18" 448 401 basechar 0
AnchorPoint: "Anchor-17" 298 695 basechar 0
AnchorPoint: "Anchor-16" 193 695 basechar 0
AnchorPoint: "Anchor-15" 0 0 basechar 0
AnchorPoint: "Anchor-14" 317 0 basechar 0
LayerCount: 2
Fore
SplineSet
286 144 m 1,0,-1
 553 144 l 1,1,-1
 533 0 l 1,2,-1
 101 0 l 1,3,-1
 101 215 l 1,4,-1
 62 191 l 1,5,-1
 4 286 l 1,6,-1
 101 346 l 1,7,-1
 101 695 l 1,8,-1
 286 695 l 1,9,-1
 286 461 l 1,10,-1
 403 533 l 1,11,-1
 463 439 l 1,12,-1
 286 330 l 1,13,-1
 286 144 l 1,0,-1
EndSplineSet
Substitution2: "'c2sc' Capitals to Small Capitals lookup 26 subtable" lslash.sc
Substitution2: "'aalt' Access All Alternates lookup 0 subtable" lslash.sc
Position2: "'cpsp' Capital Spacing lookup 0 subtable" dx=5 dy=0 dh=10 dv=0
EndChar

StartChar: M
Encoding: 77 77 161
Width: 789
GlyphClass: 2
Flags: W
AnchorPoint: "Anchor-18" 0 0 basechar 0
AnchorPoint: "Anchor-17" 0 0 basechar 0
AnchorPoint: "Anchor-16" 394 695 basechar 0
AnchorPoint: "Anchor-15" 0 0 basechar 0
AnchorPoint: "Anchor-14" 396 0 basechar 0
LayerCount: 2
Fore
SplineSet
765 0 m 1,0,-1
 583 0 l 1,1,-1
 574 259 l 1,2,-1
 573 302 l 2,3,4
 571 362 571 362 571 393 c 0,5,6
 571 468 571 468 577 543 c 1,7,-1
 482 72 l 1,8,-1
 307 72 l 1,9,-1
 206 543 l 1,10,11
 215 426 215 426 215 337 c 0,12,13
 215 286 215 286 214 259 c 2,14,-1
 206 0 l 1,15,-1
 24 0 l 1,16,-1
 75 695 l 1,17,-1
 305 695 l 1,18,-1
 398 234 l 1,19,-1
 482 695 l 1,20,-1
 713 695 l 1,21,-1
 765 0 l 1,0,-1
EndSplineSet
Substitution2: "'c2sc' Capitals to Small Capitals lookup 26 subtable" m.sc
Substitution2: "'aalt' Access All Alternates lookup 0 subtable" m.sc
Position2: "'cpsp' Capital Spacing lookup 0 subtable" dx=5 dy=0 dh=10 dv=0
EndChar

StartChar: uni019C
Encoding: 412 412 164
Width: 909
GlyphClass: 2
Flags: W
AnchorPoint: "Anchor-18" 0 0 basechar 0
AnchorPoint: "Anchor-17" 0 0 basechar 0
AnchorPoint: "Anchor-16" 455 695 basechar 0
AnchorPoint: "Anchor-15" 0 0 basechar 0
AnchorPoint: "Anchor-14" 455 0 basechar 0
LayerCount: 2
Fore
SplineSet
856 695 m 1,0,-1
 856 0 l 1,1,-1
 693 0 l 1,2,-1
 680 60 l 1,3,4
 644 19 644 19 607.5 0.5 c 128,-1,5
 571 -18 571 -18 524 -18 c 0,6,7
 473 -18 473 -18 436 5.5 c 128,-1,8
 399 29 399 29 378 72 c 1,9,10
 338 24 338 24 299.5 3 c 128,-1,11
 261 -18 261 -18 211 -18 c 0,12,13
 133 -18 133 -18 88.5 35 c 128,-1,14
 44 88 44 88 44 174 c 2,15,-1
 44 695 l 1,16,-1
 229 695 l 1,17,-1
 229 183 l 2,18,19
 229 152 229 152 241.5 134.5 c 128,-1,20
 254 117 254 117 277 117 c 0,21,22
 297 117 297 117 314 131 c 128,-1,23
 331 145 331 145 357 177 c 1,24,-1
 357 695 l 1,25,-1
 542 695 l 1,26,-1
 542 183 l 2,27,28
 542 152 542 152 555 134.5 c 128,-1,29
 568 117 568 117 590 117 c 0,30,31
 613 117 613 117 631.5 131.5 c 128,-1,32
 650 146 650 146 671 178 c 1,33,-1
 671 695 l 1,34,-1
 856 695 l 1,0,-1
EndSplineSet
Substitution2: "'c2sc' Capitals to Small Capitals lookup 26 subtable" uni026F.sc
Substitution2: "'aalt' Access All Alternates lookup 0 subtable" uni026F.sc
Position2: "'cpsp' Capital Spacing lookup 0 subtable" dx=5 dy=0 dh=10 dv=0
EndChar

StartChar: N
Encoding: 78 78 165
Width: 657
GlyphClass: 2
Flags: W
AnchorPoint: "Anchor-18" 0 0 basechar 0
AnchorPoint: "Anchor-17" 0 0 basechar 0
AnchorPoint: "Anchor-16" 331 695 basechar 0
AnchorPoint: "Anchor-15" 0 0 basechar 0
AnchorPoint: "Anchor-14" 329 0 basechar 0
LayerCount: 2
Fore
SplineSet
603 0 m 1,0,-1
 370 0 l 1,1,-1
 194 523 l 1,2,-1
 197 502 l 2,3,4
 207 433 207 433 212.5 372.5 c 128,-1,5
 218 312 218 312 218 235 c 2,6,-1
 218 0 l 1,7,-1
 54 0 l 1,8,-1
 54 695 l 1,9,-1
 282 695 l 1,10,-1
 464 170 l 1,11,12
 452 245 452 245 445.5 305 c 128,-1,13
 439 365 439 365 439 443 c 2,14,-1
 439 695 l 1,15,-1
 603 695 l 1,16,-1
 603 0 l 1,0,-1
EndSplineSet
Substitution2: "'c2sc' Capitals to Small Capitals lookup 26 subtable" n.sc
Substitution2: "'aalt' Access All Alternates lookup 0 subtable" n.sc
Position2: "'cpsp' Capital Spacing lookup 0 subtable" dx=5 dy=0 dh=10 dv=0
EndChar

StartChar: Eng
Encoding: 330 330 175
Width: 657
GlyphClass: 2
Flags: W
AnchorPoint: "Anchor-18" 0 0 basechar 0
AnchorPoint: "Anchor-17" 0 0 basechar 0
AnchorPoint: "Anchor-16" 331 695 basechar 0
AnchorPoint: "Anchor-15" 0 0 basechar 0
AnchorPoint: "Anchor-14" 329 0 basechar 0
LayerCount: 2
Fore
SplineSet
603 695 m 1,0,-1
 603 -24 l 2,1,2
 603 -122 603 -122 545 -173 c 128,-1,3
 487 -224 487 -224 387 -224 c 0,4,5
 299 -224 299 -224 238 -181 c 1,6,-1
 297 -72 l 1,7,8
 319 -83 319 -83 332.5 -87.5 c 128,-1,9
 346 -92 346 -92 366 -92 c 0,10,11
 391 -92 391 -92 404.5 -77.5 c 128,-1,12
 418 -63 418 -63 418 -35 c 2,13,-1
 418 0 l 1,14,-1
 370 0 l 1,15,-1
 194 523 l 1,16,-1
 197 502 l 2,17,18
 207 433 207 433 212.5 372.5 c 128,-1,19
 218 312 218 312 218 235 c 2,20,-1
 218 0 l 1,21,-1
 54 0 l 1,22,-1
 54 695 l 1,23,-1
 282 695 l 1,24,-1
 464 170 l 1,25,26
 452 245 452 245 445.5 305 c 128,-1,27
 439 365 439 365 439 443 c 2,28,-1
 439 695 l 1,29,-1
 603 695 l 1,0,-1
EndSplineSet
Substitution2: "'ss01' Style Set 1 lookup 33 subtable" Eng.ss01
Substitution2: "'salt' Stylistic Alternatives lookup 32 subtable" Eng.ss01
Substitution2: "'c2sc' Capitals to Small Capitals lookup 26 subtable" eng.sc
AlternateSubs2: "'aalt' Access All Alternates lookup 1 subtable" eng.sc Eng.ss01
Position2: "'cpsp' Capital Spacing lookup 0 subtable" dx=5 dy=0 dh=10 dv=0
EndChar

StartChar: Eng.ss01
Encoding: 65541 -1 176
Width: 648
GlyphClass: 2
Flags: W
AnchorPoint: "Anchor-18" 0 0 basechar 0
AnchorPoint: "Anchor-17" 0 0 basechar 0
AnchorPoint: "Anchor-16" 324 695 basechar 0
AnchorPoint: "Anchor-15" 0 0 basechar 0
AnchorPoint: "Anchor-14" 324 -213 basechar 0
LayerCount: 2
Fore
SplineSet
554.5 662.5 m 128,-1,1
 600 612 600 612 600 531 c 2,2,-1
 600 -24 l 2,3,4
 600 -122 600 -122 542 -173 c 128,-1,5
 484 -224 484 -224 384 -224 c 0,6,7
 296 -224 296 -224 235 -181 c 1,8,-1
 294 -72 l 1,9,10
 316 -83 316 -83 329.5 -87.5 c 128,-1,11
 343 -92 343 -92 363 -92 c 0,12,13
 388 -92 388 -92 401.5 -77.5 c 128,-1,14
 415 -63 415 -63 415 -35 c 2,15,-1
 415 502 l 2,16,17
 415 541 415 541 400.5 559.5 c 128,-1,18
 386 578 386 578 354 578 c 0,19,20
 320 578 320 578 294 563.5 c 128,-1,21
 268 549 268 549 239 517 c 1,22,-1
 239 0 l 1,23,-1
 54 0 l 1,24,-1
 54 695 l 1,25,-1
 216 695 l 1,26,-1
 230 633 l 1,27,28
 274 675 274 675 318 694 c 128,-1,29
 362 713 362 713 422 713 c 0,30,0
 509 713 509 713 554.5 662.5 c 128,-1,1
EndSplineSet
Position2: "'cpsp' Capital Spacing lookup 0 subtable" dx=5 dy=0 dh=10 dv=0
EndChar

StartChar: uni019D
Encoding: 413 413 177
Width: 657
GlyphClass: 2
Flags: W
AnchorPoint: "Anchor-18" 0 0 basechar 0
AnchorPoint: "Anchor-17" 0 0 basechar 0
AnchorPoint: "Anchor-16" 331 695 basechar 0
AnchorPoint: "Anchor-15" 0 0 basechar 0
AnchorPoint: "Anchor-14" 329 0 basechar 0
LayerCount: 2
Fore
SplineSet
603 695 m 1,0,-1
 603 0 l 1,1,-1
 370 0 l 1,2,-1
 194 523 l 1,3,-1
 197 502 l 2,4,5
 207 433 207 433 212.5 372.5 c 128,-1,6
 218 312 218 312 218 235 c 2,7,-1
 218 -24 l 2,8,9
 218 -122 218 -122 165 -173 c 128,-1,10
 112 -224 112 -224 21 -224 c 0,11,12
 -67 -224 -67 -224 -128 -181 c 1,13,-1
 -70 -76 l 1,14,15
 -49 -87 -49 -87 -34.5 -92 c 128,-1,16
 -20 -97 -20 -97 -1 -97 c 0,17,18
 26 -97 26 -97 40 -82.5 c 128,-1,19
 54 -68 54 -68 54 -40 c 2,20,-1
 54 695 l 1,21,-1
 282 695 l 1,22,-1
 464 170 l 1,23,24
 452 245 452 245 445.5 305 c 128,-1,25
 439 365 439 365 439 443 c 2,26,-1
 439 695 l 1,27,-1
 603 695 l 1,0,-1
EndSplineSet
Substitution2: "'ss01' Style Set 1 lookup 33 subtable" uni019D.ss01
Substitution2: "'salt' Stylistic Alternatives lookup 32 subtable" uni019D.ss01
Substitution2: "'c2sc' Capitals to Small Capitals lookup 26 subtable" uni0272.sc
AlternateSubs2: "'aalt' Access All Alternates lookup 1 subtable" uni0272.sc uni019D.ss01
Position2: "'cpsp' Capital Spacing lookup 0 subtable" dx=5 dy=0 dh=10 dv=0
EndChar

StartChar: uni019D.ss01
Encoding: 65542 -1 178
Width: 648
GlyphClass: 2
Flags: W
AnchorPoint: "Anchor-18" 0 0 basechar 0
AnchorPoint: "Anchor-17" 0 0 basechar 0
AnchorPoint: "Anchor-16" 324 695 basechar 0
AnchorPoint: "Anchor-15" 0 0 basechar 0
AnchorPoint: "Anchor-14" 324 -213 basechar 0
LayerCount: 2
Fore
SplineSet
554.5 662.5 m 128,-1,1
 600 612 600 612 600 531 c 2,2,-1
 600 0 l 1,3,-1
 415 0 l 1,4,-1
 415 502 l 2,5,6
 415 541 415 541 400.5 559.5 c 128,-1,7
 386 578 386 578 354 578 c 0,8,9
 320 578 320 578 294 563.5 c 128,-1,10
 268 549 268 549 239 517 c 1,11,-1
 239 -24 l 2,12,13
 239 -122 239 -122 181 -173 c 128,-1,14
 123 -224 123 -224 23 -224 c 0,15,16
 -65 -224 -65 -224 -126 -181 c 1,17,-1
 -67 -72 l 1,18,19
 -45 -83 -45 -83 -31.5 -87.5 c 128,-1,20
 -18 -92 -18 -92 2 -92 c 0,21,22
 27 -92 27 -92 40.5 -77.5 c 128,-1,23
 54 -63 54 -63 54 -35 c 2,24,-1
 54 695 l 1,25,-1
 216 695 l 1,26,-1
 230 633 l 1,27,28
 274 675 274 675 318 694 c 128,-1,29
 362 713 362 713 422 713 c 0,30,0
 509 713 509 713 554.5 662.5 c 128,-1,1
EndSplineSet
Position2: "'cpsp' Capital Spacing lookup 0 subtable" dx=5 dy=0 dh=10 dv=0
EndChar

StartChar: uni0220
Encoding: 544 544 180
Width: 648
GlyphClass: 2
Flags: W
AnchorPoint: "Anchor-18" 0 0 basechar 0
AnchorPoint: "Anchor-17" 0 0 basechar 0
AnchorPoint: "Anchor-16" 324 695 basechar 0
AnchorPoint: "Anchor-15" 0 0 basechar 0
AnchorPoint: "Anchor-14" 324 -213 basechar 0
LayerCount: 2
Fore
SplineSet
554.5 662.5 m 128,-1,1
 600 612 600 612 600 531 c 2,2,-1
 600 -213 l 1,3,-1
 415 -213 l 1,4,-1
 415 502 l 2,5,6
 415 541 415 541 400.5 559.5 c 128,-1,7
 386 578 386 578 354 578 c 0,8,9
 320 578 320 578 294 563.5 c 128,-1,10
 268 549 268 549 239 517 c 1,11,-1
 239 0 l 1,12,-1
 54 0 l 1,13,-1
 54 695 l 1,14,-1
 216 695 l 1,15,-1
 230 633 l 1,16,17
 274 675 274 675 318 694 c 128,-1,18
 362 713 362 713 422 713 c 0,19,0
 509 713 509 713 554.5 662.5 c 128,-1,1
EndSplineSet
Substitution2: "'c2sc' Capitals to Small Capitals lookup 26 subtable" uni0220.sc
Substitution2: "'aalt' Access All Alternates lookup 0 subtable" uni0220.sc
Position2: "'cpsp' Capital Spacing lookup 0 subtable" dx=5 dy=0 dh=10 dv=0
EndChar

StartChar: O
Encoding: 79 79 182
Width: 690
GlyphClass: 2
Flags: W
AnchorPoint: "Anchor-18" 0 0 basechar 0
AnchorPoint: "Anchor-17" 581 695 basechar 0
AnchorPoint: "Anchor-16" 345 695 basechar 0
AnchorPoint: "Anchor-15" 473 0 basechar 0
AnchorPoint: "Anchor-14" 345 0 basechar 0
LayerCount: 2
Fore
SplineSet
580 617 m 128,-1,1
 664 521 664 521 664 348 c 0,2,3
 664 235 664 235 626.5 152.5 c 128,-1,4
 589 70 589 70 517 26 c 128,-1,5
 445 -18 445 -18 345 -18 c 0,6,7
 194 -18 194 -18 110.5 78 c 128,-1,8
 27 174 27 174 27 348 c 0,9,10
 27 461 27 461 64.5 543 c 128,-1,11
 102 625 102 625 173.5 669 c 128,-1,12
 245 713 245 713 345 713 c 0,13,0
 496 713 496 713 580 617 c 128,-1,1
249.5 526 m 128,-1,15
 219 472 219 472 219 348 c 256,16,17
 219 224 219 224 250 169.5 c 128,-1,18
 281 115 281 115 345 115 c 0,19,20
 411 115 411 115 441 169 c 128,-1,21
 471 223 471 223 471 348 c 0,22,23
 471 472 471 472 441 526 c 128,-1,24
 411 580 411 580 345 580 c 0,25,14
 280 580 280 580 249.5 526 c 128,-1,15
EndSplineSet
Substitution2: "Single Substitution lookup 45 subtable" ordmasculine
Substitution2: "'c2sc' Capitals to Small Capitals lookup 26 subtable" o.sc
AlternateSubs2: "'aalt' Access All Alternates lookup 1 subtable" ordmasculine o.sc
Position2: "'cpsp' Capital Spacing lookup 0 subtable" dx=5 dy=0 dh=10 dv=0
EndChar

StartChar: uni0222
Encoding: 546 546 183
Width: 650
GlyphClass: 2
Flags: W
AnchorPoint: "Anchor-18" 0 0 basechar 0
AnchorPoint: "Anchor-17" 0 0 basechar 0
AnchorPoint: "Anchor-16" 325 695 basechar 0
AnchorPoint: "Anchor-15" 0 0 basechar 0
AnchorPoint: "Anchor-14" 325 0 basechar 0
LayerCount: 2
Fore
SplineSet
590.5 332.5 m 128,-1,1
 624 286 624 286 624 220 c 0,2,3
 624 155 624 155 587.5 101 c 128,-1,4
 551 47 551 47 483 14.5 c 128,-1,5
 415 -18 415 -18 325 -18 c 0,6,7
 234 -18 234 -18 166.5 13.5 c 128,-1,8
 99 45 99 45 63 99 c 128,-1,9
 27 153 27 153 27 220 c 0,10,11
 27 283 27 283 60 329 c 128,-1,12
 93 375 93 375 154 401 c 1,13,14
 66 449 66 449 66 552 c 2,15,-1
 66 695 l 1,16,-1
 251 695 l 1,17,-1
 251 542 l 2,18,19
 251 499 251 499 267 478.5 c 128,-1,20
 283 458 283 458 325 458 c 256,21,22
 367 458 367 458 383.5 479.5 c 128,-1,23
 400 501 400 501 400 542 c 2,24,-1
 400 695 l 1,25,-1
 585 695 l 1,26,-1
 585 552 l 2,27,28
 585 503 585 503 562 465 c 128,-1,29
 539 427 539 427 495 403 c 1,30,0
 557 379 557 379 590.5 332.5 c 128,-1,1
404 143.5 m 128,-1,32
 431 172 431 172 431 223 c 0,33,34
 431 272 431 272 403.5 301.5 c 128,-1,35
 376 331 376 331 325 331 c 256,36,37
 274 331 274 331 246.5 301.5 c 128,-1,38
 219 272 219 272 219 223 c 0,39,40
 219 172 219 172 246.5 143.5 c 128,-1,41
 274 115 274 115 325 115 c 0,42,31
 377 115 377 115 404 143.5 c 128,-1,32
EndSplineSet
Substitution2: "'c2sc' Capitals to Small Capitals lookup 26 subtable" uni0223.sc
Substitution2: "'aalt' Access All Alternates lookup 0 subtable" uni0223.sc
Position2: "'cpsp' Capital Spacing lookup 0 subtable" dx=5 dy=0 dh=10 dv=0
EndChar

StartChar: Ohorn
Encoding: 416 416 203
Width: 719
GlyphClass: 2
Flags: W
AnchorPoint: "Anchor-18" 0 0 basechar 0
AnchorPoint: "Anchor-17" 633 695 basechar 0
AnchorPoint: "Anchor-16" 345 695 basechar 0
AnchorPoint: "Anchor-15" 473 0 basechar 0
AnchorPoint: "Anchor-14" 345 0 basechar 0
LayerCount: 2
Fore
SplineSet
699.5 598 m 128,-1,1
 672 566 672 566 621 556 c 1,2,3
 664 470 664 470 664 348 c 0,4,5
 664 235 664 235 626.5 152.5 c 128,-1,6
 589 70 589 70 517 26 c 128,-1,7
 445 -18 445 -18 345 -18 c 0,8,9
 194 -18 194 -18 110.5 78 c 128,-1,10
 27 174 27 174 27 348 c 0,11,12
 27 461 27 461 64.5 543 c 128,-1,13
 102 625 102 625 173.5 669 c 128,-1,14
 245 713 245 713 345 713 c 0,15,16
 482 713 482 713 565 633 c 1,17,18
 589 637 589 637 599.5 651 c 128,-1,19
 610 665 610 665 610 692 c 0,20,21
 610 724 610 724 598 758 c 1,22,-1
 708 773 l 1,23,24
 727 737 727 737 727 683 c 0,25,0
 727 630 727 630 699.5 598 c 128,-1,1
441 169 m 128,-1,27
 471 223 471 223 471 348 c 0,28,29
 471 472 471 472 441 526 c 128,-1,30
 411 580 411 580 345 580 c 0,31,32
 280 580 280 580 249.5 526 c 128,-1,33
 219 472 219 472 219 348 c 256,34,35
 219 224 219 224 250 169.5 c 128,-1,36
 281 115 281 115 345 115 c 0,37,26
 411 115 411 115 441 169 c 128,-1,27
EndSplineSet
Substitution2: "'c2sc' Capitals to Small Capitals lookup 26 subtable" ohorn.sc
Substitution2: "'aalt' Access All Alternates lookup 0 subtable" ohorn.sc
Position2: "'cpsp' Capital Spacing lookup 0 subtable" dx=5 dy=0 dh=10 dv=0
EndChar

StartChar: uni1EDA
Encoding: 7898 7898 204
Width: 719
GlyphClass: 2
Flags: W
AnchorPoint: "Anchor-18" 0 0 basechar 0
AnchorPoint: "Anchor-17" 633 695 basechar 0
AnchorPoint: "Anchor-16" 347 970 basechar 0
AnchorPoint: "Anchor-15" 473 0 basechar 0
AnchorPoint: "Anchor-14" 345 0 basechar 0
LayerCount: 2
Fore
SplineSet
491 839 m 1,0,-1
 244 750 l 1,1,-1
 199 840 l 1,2,-1
 427 970 l 1,3,-1
 491 839 l 1,0,-1
699.5 598 m 128,-1,5
 672 566 672 566 621 556 c 1,6,7
 664 470 664 470 664 348 c 0,8,9
 664 235 664 235 626.5 152.5 c 128,-1,10
 589 70 589 70 517 26 c 128,-1,11
 445 -18 445 -18 345 -18 c 0,12,13
 194 -18 194 -18 110.5 78 c 128,-1,14
 27 174 27 174 27 348 c 0,15,16
 27 461 27 461 64.5 543 c 128,-1,17
 102 625 102 625 173.5 669 c 128,-1,18
 245 713 245 713 345 713 c 0,19,20
 482 713 482 713 565 633 c 1,21,22
 589 637 589 637 599.5 651 c 128,-1,23
 610 665 610 665 610 692 c 0,24,25
 610 724 610 724 598 758 c 1,26,-1
 708 773 l 1,27,28
 727 737 727 737 727 683 c 0,29,4
 727 630 727 630 699.5 598 c 128,-1,5
441 169 m 128,-1,31
 471 223 471 223 471 348 c 0,32,33
 471 472 471 472 441 526 c 128,-1,34
 411 580 411 580 345 580 c 0,35,36
 280 580 280 580 249.5 526 c 128,-1,37
 219 472 219 472 219 348 c 256,38,39
 219 224 219 224 250 169.5 c 128,-1,40
 281 115 281 115 345 115 c 0,41,30
 411 115 411 115 441 169 c 128,-1,31
EndSplineSet
Substitution2: "'c2sc' Capitals to Small Capitals lookup 26 subtable" uni1EDB.sc
Substitution2: "'aalt' Access All Alternates lookup 0 subtable" uni1EDB.sc
Position2: "'cpsp' Capital Spacing lookup 0 subtable" dx=5 dy=0 dh=10 dv=0
EndChar

StartChar: uni1EE2
Encoding: 7906 7906 205
Width: 719
GlyphClass: 2
Flags: W
AnchorPoint: "Anchor-18" 0 0 basechar 0
AnchorPoint: "Anchor-17" 633 695 basechar 0
AnchorPoint: "Anchor-16" 345 695 basechar 0
AnchorPoint: "Anchor-15" 473 0 basechar 0
AnchorPoint: "Anchor-14" 347 -213 basechar 0
LayerCount: 2
Fore
SplineSet
699.5 598 m 128,-1,1
 672 566 672 566 621 556 c 1,2,3
 664 470 664 470 664 348 c 0,4,5
 664 235 664 235 626.5 152.5 c 128,-1,6
 589 70 589 70 517 26 c 128,-1,7
 445 -18 445 -18 345 -18 c 0,8,9
 194 -18 194 -18 110.5 78 c 128,-1,10
 27 174 27 174 27 348 c 0,11,12
 27 461 27 461 64.5 543 c 128,-1,13
 102 625 102 625 173.5 669 c 128,-1,14
 245 713 245 713 345 713 c 0,15,16
 482 713 482 713 565 633 c 1,17,18
 589 637 589 637 599.5 651 c 128,-1,19
 610 665 610 665 610 692 c 0,20,21
 610 724 610 724 598 758 c 1,22,-1
 708 773 l 1,23,24
 727 737 727 737 727 683 c 0,25,0
 727 630 727 630 699.5 598 c 128,-1,1
441 169 m 128,-1,27
 471 223 471 223 471 348 c 0,28,29
 471 472 471 472 441 526 c 128,-1,30
 411 580 411 580 345 580 c 0,31,32
 280 580 280 580 249.5 526 c 128,-1,33
 219 472 219 472 219 348 c 256,34,35
 219 224 219 224 250 169.5 c 128,-1,36
 281 115 281 115 345 115 c 0,37,26
 411 115 411 115 441 169 c 128,-1,27
418.5 -84 m 128,-1,39
 447 -112 447 -112 447 -154 c 256,40,41
 447 -196 447 -196 418.5 -224 c 128,-1,42
 390 -252 390 -252 345 -252 c 256,43,44
 300 -252 300 -252 271.5 -224 c 128,-1,45
 243 -196 243 -196 243 -154 c 256,46,47
 243 -112 243 -112 271.5 -84 c 128,-1,48
 300 -56 300 -56 345 -56 c 256,49,38
 390 -56 390 -56 418.5 -84 c 128,-1,39
EndSplineSet
Substitution2: "'c2sc' Capitals to Small Capitals lookup 26 subtable" uni1EE3.sc
Substitution2: "'aalt' Access All Alternates lookup 0 subtable" uni1EE3.sc
Position2: "'cpsp' Capital Spacing lookup 0 subtable" dx=5 dy=0 dh=10 dv=0
EndChar

StartChar: uni1EDC
Encoding: 7900 7900 206
Width: 719
GlyphClass: 2
Flags: W
AnchorPoint: "Anchor-18" 0 0 basechar 0
AnchorPoint: "Anchor-17" 633 695 basechar 0
AnchorPoint: "Anchor-16" 346 970 basechar 0
AnchorPoint: "Anchor-15" 473 0 basechar 0
AnchorPoint: "Anchor-14" 345 0 basechar 0
LayerCount: 2
Fore
SplineSet
489 840 m 1,0,-1
 444 750 l 1,1,-1
 197 839 l 1,2,-1
 262 970 l 1,3,-1
 489 840 l 1,0,-1
699.5 598 m 128,-1,5
 672 566 672 566 621 556 c 1,6,7
 664 470 664 470 664 348 c 0,8,9
 664 235 664 235 626.5 152.5 c 128,-1,10
 589 70 589 70 517 26 c 128,-1,11
 445 -18 445 -18 345 -18 c 0,12,13
 194 -18 194 -18 110.5 78 c 128,-1,14
 27 174 27 174 27 348 c 0,15,16
 27 461 27 461 64.5 543 c 128,-1,17
 102 625 102 625 173.5 669 c 128,-1,18
 245 713 245 713 345 713 c 0,19,20
 482 713 482 713 565 633 c 1,21,22
 589 637 589 637 599.5 651 c 128,-1,23
 610 665 610 665 610 692 c 0,24,25
 610 724 610 724 598 758 c 1,26,-1
 708 773 l 1,27,28
 727 737 727 737 727 683 c 0,29,4
 727 630 727 630 699.5 598 c 128,-1,5
441 169 m 128,-1,31
 471 223 471 223 471 348 c 0,32,33
 471 472 471 472 441 526 c 128,-1,34
 411 580 411 580 345 580 c 0,35,36
 280 580 280 580 249.5 526 c 128,-1,37
 219 472 219 472 219 348 c 256,38,39
 219 224 219 224 250 169.5 c 128,-1,40
 281 115 281 115 345 115 c 0,41,30
 411 115 411 115 441 169 c 128,-1,31
EndSplineSet
Substitution2: "'c2sc' Capitals to Small Capitals lookup 26 subtable" uni1EDD.sc
Substitution2: "'aalt' Access All Alternates lookup 0 subtable" uni1EDD.sc
Position2: "'cpsp' Capital Spacing lookup 0 subtable" dx=5 dy=0 dh=10 dv=0
EndChar

StartChar: uni1EDE
Encoding: 7902 7902 207
Width: 719
GlyphClass: 2
Flags: W
AnchorPoint: "Anchor-18" 0 0 basechar 0
AnchorPoint: "Anchor-17" 633 695 basechar 0
AnchorPoint: "Anchor-16" 353 1005 basechar 0
AnchorPoint: "Anchor-15" 473 0 basechar 0
AnchorPoint: "Anchor-14" 345 0 basechar 0
LayerCount: 2
Fore
SplineSet
296.5 918 m 128,-1,1
 283 915 283 915 266 908 c 1,2,-1
 238 978 l 1,3,4
 284 1005 284 1005 351 1005 c 0,5,6
 413 1005 413 1005 447 976 c 128,-1,7
 481 947 481 947 481 900 c 0,8,9
 481 861 481 861 459 837 c 128,-1,10
 437 813 437 813 396 805 c 1,11,-1
 396 764 l 1,12,-1
 294 764 l 1,13,-1
 294 855 l 1,14,15
 332 857 332 857 348.5 865 c 128,-1,16
 365 873 365 873 365 892 c 0,17,18
 365 906 365 906 354.5 913.5 c 128,-1,19
 344 921 344 921 327 921 c 256,20,0
 310 921 310 921 296.5 918 c 128,-1,1
699.5 598 m 128,-1,22
 672 566 672 566 621 556 c 1,23,24
 664 470 664 470 664 348 c 0,25,26
 664 235 664 235 626.5 152.5 c 128,-1,27
 589 70 589 70 517 26 c 128,-1,28
 445 -18 445 -18 345 -18 c 0,29,30
 194 -18 194 -18 110.5 78 c 128,-1,31
 27 174 27 174 27 348 c 0,32,33
 27 461 27 461 64.5 543 c 128,-1,34
 102 625 102 625 173.5 669 c 128,-1,35
 245 713 245 713 345 713 c 0,36,37
 482 713 482 713 565 633 c 1,38,39
 589 637 589 637 599.5 651 c 128,-1,40
 610 665 610 665 610 692 c 0,41,42
 610 724 610 724 598 758 c 1,43,-1
 708 773 l 1,44,45
 727 737 727 737 727 683 c 0,46,21
 727 630 727 630 699.5 598 c 128,-1,22
441 169 m 128,-1,48
 471 223 471 223 471 348 c 0,49,50
 471 472 471 472 441 526 c 128,-1,51
 411 580 411 580 345 580 c 0,52,53
 280 580 280 580 249.5 526 c 128,-1,54
 219 472 219 472 219 348 c 256,55,56
 219 224 219 224 250 169.5 c 128,-1,57
 281 115 281 115 345 115 c 0,58,47
 411 115 411 115 441 169 c 128,-1,48
EndSplineSet
Substitution2: "'c2sc' Capitals to Small Capitals lookup 26 subtable" uni1EDF.sc
Substitution2: "'aalt' Access All Alternates lookup 0 subtable" uni1EDF.sc
Position2: "'cpsp' Capital Spacing lookup 0 subtable" dx=5 dy=0 dh=10 dv=0
EndChar

StartChar: uni1EE0
Encoding: 7904 7904 208
Width: 719
GlyphClass: 2
Flags: W
AnchorPoint: "Anchor-18" 0 0 basechar 0
AnchorPoint: "Anchor-17" 633 695 basechar 0
AnchorPoint: "Anchor-16" 347 924 basechar 0
AnchorPoint: "Anchor-15" 473 0 basechar 0
AnchorPoint: "Anchor-14" 345 0 basechar 0
LayerCount: 2
Fore
SplineSet
260 788 m 128,-1,1
 249 778 249 778 236 755 c 1,2,-1
 150 797 l 1,3,4
 170 852 170 852 205 888 c 128,-1,5
 240 924 240 924 285 924 c 0,6,7
 309 924 309 924 326 917 c 128,-1,8
 343 910 343 910 362 897 c 0,9,10
 372 890 372 890 382 885 c 128,-1,11
 392 880 392 880 401 880 c 0,12,13
 418 880 418 880 429 890 c 128,-1,14
 440 900 440 900 453 923 c 1,15,-1
 539 881 l 1,16,17
 518 825 518 825 483 789.5 c 128,-1,18
 448 754 448 754 403 754 c 0,19,20
 380 754 380 754 363.5 761 c 128,-1,21
 347 768 347 768 328 781 c 0,22,23
 318 788 318 788 308 793 c 128,-1,24
 298 798 298 798 289 798 c 0,25,0
 271 798 271 798 260 788 c 128,-1,1
699.5 598 m 128,-1,27
 672 566 672 566 621 556 c 1,28,29
 664 470 664 470 664 348 c 0,30,31
 664 235 664 235 626.5 152.5 c 128,-1,32
 589 70 589 70 517 26 c 128,-1,33
 445 -18 445 -18 345 -18 c 0,34,35
 194 -18 194 -18 110.5 78 c 128,-1,36
 27 174 27 174 27 348 c 0,37,38
 27 461 27 461 64.5 543 c 128,-1,39
 102 625 102 625 173.5 669 c 128,-1,40
 245 713 245 713 345 713 c 0,41,42
 482 713 482 713 565 633 c 1,43,44
 589 637 589 637 599.5 651 c 128,-1,45
 610 665 610 665 610 692 c 0,46,47
 610 724 610 724 598 758 c 1,48,-1
 708 773 l 1,49,50
 727 737 727 737 727 683 c 0,51,26
 727 630 727 630 699.5 598 c 128,-1,27
441 169 m 128,-1,53
 471 223 471 223 471 348 c 0,54,55
 471 472 471 472 441 526 c 128,-1,56
 411 580 411 580 345 580 c 0,57,58
 280 580 280 580 249.5 526 c 128,-1,59
 219 472 219 472 219 348 c 256,60,61
 219 224 219 224 250 169.5 c 128,-1,62
 281 115 281 115 345 115 c 0,63,52
 411 115 411 115 441 169 c 128,-1,53
EndSplineSet
Substitution2: "'c2sc' Capitals to Small Capitals lookup 26 subtable" uni1EE1.sc
Substitution2: "'aalt' Access All Alternates lookup 0 subtable" uni1EE1.sc
Position2: "'cpsp' Capital Spacing lookup 0 subtable" dx=5 dy=0 dh=10 dv=0
EndChar

StartChar: uni01A2
Encoding: 418 418 210
Width: 971
GlyphClass: 2
Flags: W
AnchorPoint: "Anchor-18" 0 0 basechar 0
AnchorPoint: "Anchor-17" 0 0 basechar 0
AnchorPoint: "Anchor-16" 485 695 basechar 0
AnchorPoint: "Anchor-15" 0 0 basechar 0
AnchorPoint: "Anchor-14" 485 -213 basechar 0
LayerCount: 2
Fore
SplineSet
859 662 m 128,-1,1
 917 610 917 610 917 512 c 2,2,-1
 917 -213 l 1,3,-1
 732 -213 l 1,4,-1
 732 519 l 2,5,6
 732 586 732 586 677 586 c 0,7,8
 643 586 643 586 610 571 c 1,9,10
 664 482 664 482 664 348 c 0,11,12
 664 235 664 235 626.5 152.5 c 128,-1,13
 589 70 589 70 517 26 c 128,-1,14
 445 -18 445 -18 345 -18 c 0,15,16
 194 -18 194 -18 110.5 78 c 128,-1,17
 27 174 27 174 27 348 c 0,18,19
 27 461 27 461 64.5 543 c 128,-1,20
 102 625 102 625 173.5 669 c 128,-1,21
 245 713 245 713 345 713 c 0,22,23
 450 713 450 713 529 659 c 1,24,25
 606 714 606 714 701 714 c 0,26,0
 801 714 801 714 859 662 c 128,-1,1
441 169 m 128,-1,28
 471 223 471 223 471 348 c 0,29,30
 471 472 471 472 441 526 c 128,-1,31
 411 580 411 580 345 580 c 0,32,33
 280 580 280 580 249.5 526 c 128,-1,34
 219 472 219 472 219 348 c 256,35,36
 219 224 219 224 250 169.5 c 128,-1,37
 281 115 281 115 345 115 c 0,38,27
 411 115 411 115 441 169 c 128,-1,28
EndSplineSet
Substitution2: "'c2sc' Capitals to Small Capitals lookup 26 subtable" uni01A3.sc
Substitution2: "'aalt' Access All Alternates lookup 0 subtable" uni01A3.sc
Position2: "'cpsp' Capital Spacing lookup 0 subtable" dx=5 dy=0 dh=10 dv=0
EndChar

StartChar: uni1E50
Encoding: 7760 7760 214
Width: 690
GlyphClass: 2
Flags: W
AnchorPoint: "Anchor-18" 0 0 basechar 0
AnchorPoint: "Anchor-17" 581 695 basechar 0
AnchorPoint: "Anchor-16" 346 1132 basechar 0
AnchorPoint: "Anchor-15" 473 0 basechar 0
AnchorPoint: "Anchor-14" 345 0 basechar 0
LayerCount: 2
Fore
SplineSet
262 1132 m 1,0,-1
 489 1002 l 1,1,-1
 444 912 l 1,2,-1
 197 1001 l 1,3,-1
 262 1132 l 1,0,-1
502 762 m 1,4,-1
 187 762 l 1,5,-1
 187 883 l 1,6,-1
 502 883 l 1,7,-1
 502 762 l 1,4,-1
580 617 m 128,-1,9
 664 521 664 521 664 348 c 0,10,11
 664 235 664 235 626.5 152.5 c 128,-1,12
 589 70 589 70 517 26 c 128,-1,13
 445 -18 445 -18 345 -18 c 0,14,15
 194 -18 194 -18 110.5 78 c 128,-1,16
 27 174 27 174 27 348 c 0,17,18
 27 461 27 461 64.5 543 c 128,-1,19
 102 625 102 625 173.5 669 c 128,-1,20
 245 713 245 713 345 713 c 0,21,8
 496 713 496 713 580 617 c 128,-1,9
249.5 526 m 128,-1,23
 219 472 219 472 219 348 c 256,24,25
 219 224 219 224 250 169.5 c 128,-1,26
 281 115 281 115 345 115 c 0,27,28
 411 115 411 115 441 169 c 128,-1,29
 471 223 471 223 471 348 c 0,30,31
 471 472 471 472 441 526 c 128,-1,32
 411 580 411 580 345 580 c 0,33,22
 280 580 280 580 249.5 526 c 128,-1,23
EndSplineSet
Substitution2: "'c2sc' Capitals to Small Capitals lookup 26 subtable" uni1E51.sc
Substitution2: "'aalt' Access All Alternates lookup 0 subtable" uni1E51.sc
Position2: "'cpsp' Capital Spacing lookup 0 subtable" dx=5 dy=0 dh=10 dv=0
EndChar

StartChar: uniA7B6
Encoding: 42934 42934 215
Width: 901
GlyphClass: 2
Flags: W
AnchorPoint: "Anchor-18" 0 0 basechar 0
AnchorPoint: "Anchor-17" 0 0 basechar 0
AnchorPoint: "Anchor-16" 451 695 basechar 0
AnchorPoint: "Anchor-15" 0 0 basechar 0
AnchorPoint: "Anchor-14" 451 0 basechar 0
LayerCount: 2
Fore
SplineSet
837 519 m 128,-1,1
 858 430 858 430 858 303 c 0,2,3
 858 139 858 139 799.5 60.5 c 128,-1,4
 741 -18 741 -18 627 -18 c 0,5,6
 487 -18 487 -18 451 108 c 1,7,8
 434 44 434 44 389 13 c 128,-1,9
 344 -18 344 -18 282 -18 c 0,10,11
 160 -18 160 -18 102 59.5 c 128,-1,12
 44 137 44 137 44 303 c 0,13,14
 44 430 44 430 64.5 519 c 128,-1,15
 85 608 85 608 122 695 c 1,16,-1
 293 695 l 1,17,18
 261 592 261 592 245 509.5 c 128,-1,19
 229 427 229 427 229 313 c 0,20,21
 229 205 229 205 246 160 c 128,-1,22
 263 115 263 115 303 115 c 0,23,24
 361 115 361 115 361 196 c 2,25,-1
 361 399 l 1,26,-1
 543 399 l 1,27,-1
 543 196 l 2,28,29
 543 151 543 151 556.5 132.5 c 128,-1,30
 570 114 570 114 601 114 c 0,31,32
 639 114 639 114 655.5 158.5 c 128,-1,33
 672 203 672 203 672 313 c 0,34,35
 672 427 672 427 654 511 c 128,-1,36
 636 595 636 595 600 695 c 1,37,-1
 778 695 l 1,38,0
 816 608 816 608 837 519 c 128,-1,1
EndSplineSet
Substitution2: "'c2sc' Capitals to Small Capitals lookup 26 subtable" uniA7B6.sc
Substitution2: "'aalt' Access All Alternates lookup 0 subtable" uniA7B6.sc
Position2: "'cpsp' Capital Spacing lookup 0 subtable" dx=5 dy=0 dh=10 dv=0
EndChar

StartChar: uni01EA
Encoding: 490 490 216
Width: 690
GlyphClass: 2
Flags: W
AnchorPoint: "Anchor-18" 0 0 basechar 0
AnchorPoint: "Anchor-17" 581 695 basechar 0
AnchorPoint: "Anchor-16" 345 695 basechar 0
AnchorPoint: "Anchor-15" 473 0 basechar 0
AnchorPoint: "Anchor-14" 345 0 basechar 0
LayerCount: 2
Fore
SplineSet
612 125 m 128,-1,1
 560 35 560 35 463 1 c 1,2,-1
 463 0 l 1,3,4
 347 -41 347 -41 347 -99 c 0,5,6
 347 -143 347 -143 399 -143 c 0,7,8
 428 -143 428 -143 460 -136 c 1,9,-1
 448 -242 l 1,10,11
 414 -250 414 -250 376 -250 c 0,12,13
 309 -250 309 -250 266 -217 c 128,-1,14
 223 -184 223 -184 223 -129 c 0,15,16
 223 -61 223 -61 282 -13 c 1,17,18
 160 7 160 7 93.5 100.5 c 128,-1,19
 27 194 27 194 27 348 c 0,20,21
 27 461 27 461 64.5 543 c 128,-1,22
 102 625 102 625 173.5 669 c 128,-1,23
 245 713 245 713 345 713 c 0,24,25
 496 713 496 713 580 617 c 128,-1,26
 664 521 664 521 664 348 c 0,27,0
 664 215 664 215 612 125 c 128,-1,1
441 169 m 128,-1,29
 471 223 471 223 471 348 c 0,30,31
 471 472 471 472 441 526 c 128,-1,32
 411 580 411 580 345 580 c 0,33,34
 280 580 280 580 249.5 526 c 128,-1,35
 219 472 219 472 219 348 c 256,36,37
 219 224 219 224 250 169.5 c 128,-1,38
 281 115 281 115 345 115 c 0,39,28
 411 115 411 115 441 169 c 128,-1,29
EndSplineSet
Substitution2: "'c2sc' Capitals to Small Capitals lookup 26 subtable" uni01EB.sc
Substitution2: "'aalt' Access All Alternates lookup 0 subtable" uni01EB.sc
Position2: "'cpsp' Capital Spacing lookup 0 subtable" dx=5 dy=0 dh=10 dv=0
EndChar

StartChar: uni01EC
Encoding: 492 492 217
Width: 690
GlyphClass: 2
Flags: W
AnchorPoint: "Anchor-18" 0 0 basechar 0
AnchorPoint: "Anchor-17" 581 695 basechar 0
AnchorPoint: "Anchor-16" 347 899 basechar 0
AnchorPoint: "Anchor-15" 473 0 basechar 0
AnchorPoint: "Anchor-14" 345 0 basechar 0
LayerCount: 2
Fore
SplineSet
502 899 m 1,0,-1
 502 778 l 1,1,-1
 187 778 l 1,2,-1
 187 899 l 1,3,-1
 502 899 l 1,0,-1
612 125 m 128,-1,5
 560 35 560 35 463 1 c 1,6,-1
 463 0 l 1,7,8
 347 -41 347 -41 347 -99 c 0,9,10
 347 -143 347 -143 399 -143 c 0,11,12
 428 -143 428 -143 460 -136 c 1,13,-1
 448 -242 l 1,14,15
 414 -250 414 -250 376 -250 c 0,16,17
 309 -250 309 -250 266 -217 c 128,-1,18
 223 -184 223 -184 223 -129 c 0,19,20
 223 -61 223 -61 282 -13 c 1,21,22
 160 7 160 7 93.5 100.5 c 128,-1,23
 27 194 27 194 27 348 c 0,24,25
 27 461 27 461 64.5 543 c 128,-1,26
 102 625 102 625 173.5 669 c 128,-1,27
 245 713 245 713 345 713 c 0,28,29
 496 713 496 713 580 617 c 128,-1,30
 664 521 664 521 664 348 c 0,31,4
 664 215 664 215 612 125 c 128,-1,5
441 169 m 128,-1,33
 471 223 471 223 471 348 c 0,34,35
 471 472 471 472 441 526 c 128,-1,36
 411 580 411 580 345 580 c 0,37,38
 280 580 280 580 249.5 526 c 128,-1,39
 219 472 219 472 219 348 c 256,40,41
 219 224 219 224 250 169.5 c 128,-1,42
 281 115 281 115 345 115 c 0,43,32
 411 115 411 115 441 169 c 128,-1,33
EndSplineSet
Substitution2: "'c2sc' Capitals to Small Capitals lookup 26 subtable" uni01ED.sc
Substitution2: "'aalt' Access All Alternates lookup 0 subtable" uni01ED.sc
Position2: "'cpsp' Capital Spacing lookup 0 subtable" dx=5 dy=0 dh=10 dv=0
EndChar

StartChar: uni0186
Encoding: 390 390 218
Width: 579
GlyphClass: 2
Flags: W
AnchorPoint: "Anchor-18" 211 352 basechar 0
AnchorPoint: "Anchor-17" 0 0 basechar 0
AnchorPoint: "Anchor-16" 248 695 basechar 0
AnchorPoint: "Anchor-15" 0 0 basechar 0
AnchorPoint: "Anchor-14" 248 0 basechar 0
LayerCount: 2
Fore
SplineSet
405 670 m 128,-1,1
 475 627 475 627 514 545 c 128,-1,2
 553 463 553 463 553 349 c 0,3,4
 553 232 553 232 513 149.5 c 128,-1,5
 473 67 473 67 400.5 24.5 c 128,-1,6
 328 -18 328 -18 231 -18 c 0,7,8
 161 -18 161 -18 103.5 8 c 128,-1,9
 46 34 46 34 4 75 c 1,10,-1
 85 178 l 1,11,12
 123 150 123 150 153 136 c 128,-1,13
 183 122 183 122 221 122 c 0,14,15
 360 122 360 122 360 349 c 0,16,17
 360 470 360 470 327 524 c 128,-1,18
 294 578 294 578 232 578 c 0,19,20
 195 578 195 578 163.5 565.5 c 128,-1,21
 132 553 132 553 100 529 c 1,22,-1
 12 634 l 1,23,24
 59 673 59 673 115 693 c 128,-1,25
 171 713 171 713 243 713 c 0,26,0
 335 713 335 713 405 670 c 128,-1,1
EndSplineSet
Substitution2: "'c2sc' Capitals to Small Capitals lookup 26 subtable" uni0254.sc
Substitution2: "'aalt' Access All Alternates lookup 0 subtable" uni0254.sc
Position2: "'cpsp' Capital Spacing lookup 0 subtable" dx=5 dy=0 dh=10 dv=0
EndChar

StartChar: Oslash
Encoding: 216 216 219
Width: 690
GlyphClass: 2
Flags: W
AnchorPoint: "Anchor-18" 0 0 basechar 0
AnchorPoint: "Anchor-17" 0 0 basechar 0
AnchorPoint: "Anchor-16" 344 734 basechar 0
AnchorPoint: "Anchor-15" 0 0 basechar 0
AnchorPoint: "Anchor-14" 345 0 basechar 0
LayerCount: 2
Fore
SplineSet
627.5 542 m 128,-1,1
 664 461 664 461 664 348 c 256,2,3
 664 235 664 235 626.5 152.5 c 128,-1,4
 589 70 589 70 517 26 c 128,-1,5
 445 -18 445 -18 345 -18 c 0,6,7
 329 -18 329 -18 301 -16 c 1,8,-1
 264 -137 l 1,9,-1
 128 -100 l 1,10,-1
 168 29 l 1,11,12
 99 73 99 73 63 154 c 128,-1,13
 27 235 27 235 27 348 c 256,14,15
 27 461 27 461 64.5 543 c 128,-1,16
 102 625 102 625 173.5 669 c 128,-1,17
 245 713 245 713 345 713 c 0,18,19
 361 713 361 713 389 711 c 1,20,-1
 426 830 l 1,21,-1
 563 794 l 1,22,-1
 522 667 l 1,23,0
 591 623 591 623 627.5 542 c 128,-1,1
249.5 526 m 128,-1,25
 219 472 219 472 219 348 c 0,26,27
 219 219 219 219 246 167 c 1,28,-1
 369 579 l 1,29,30
 362 580 362 580 345 580 c 0,31,24
 280 580 280 580 249.5 526 c 128,-1,25
441 169 m 128,-1,33
 471 223 471 223 471 348 c 0,34,35
 471 477 471 477 445 528 c 1,36,-1
 322 116 l 1,37,38
 329 115 329 115 345 115 c 0,39,32
 411 115 411 115 441 169 c 128,-1,33
EndSplineSet
Substitution2: "'c2sc' Capitals to Small Capitals lookup 26 subtable" oslash.sc
Substitution2: "'aalt' Access All Alternates lookup 0 subtable" oslash.sc
Position2: "'cpsp' Capital Spacing lookup 0 subtable" dx=5 dy=0 dh=10 dv=0
EndChar

StartChar: OE
Encoding: 338 338 224
Width: 908
GlyphClass: 2
Flags: W
AnchorPoint: "Anchor-18" 0 0 basechar 0
AnchorPoint: "Anchor-17" 0 0 basechar 0
AnchorPoint: "Anchor-16" 455 695 basechar 0
AnchorPoint: "Anchor-15" 0 0 basechar 0
AnchorPoint: "Anchor-14" 455 0 basechar 0
LayerCount: 2
Fore
SplineSet
580 131 m 1,1,-1
 877 131 l 1,2,-1
 877 0 l 1,3,-1
 428 0 l 1,4,5
 385 -18 385 -18 328 -18 c 0,6,7
 236 -18 236 -18 168 25.5 c 128,-1,8
 100 69 100 69 63.5 151.5 c 128,-1,9
 27 234 27 234 27 348 c 0,10,11
 27 460 27 460 63.5 542.5 c 128,-1,12
 100 625 100 625 168 669 c 128,-1,13
 236 713 236 713 328 713 c 0,14,15
 387 713 387 713 432 695 c 1,16,-1
 880 695 l 1,17,-1
 861 564 l 1,18,-1
 582 564 l 1,19,20
 627 500 627 500 639 416 c 1,21,-1
 831 416 l 1,22,-1
 831 289 l 1,23,-1
 640 289 l 1,24,0
 627 194 627 194 580 131 c 1,1,-1
422.5 169.5 m 128,-1,26
 451 224 451 224 451 348 c 0,27,28
 451 471 451 471 422.5 525.5 c 128,-1,29
 394 580 394 580 335 580 c 0,30,31
 277 580 277 580 248 525.5 c 128,-1,32
 219 471 219 471 219 348 c 0,33,34
 219 226 219 226 248.5 170.5 c 128,-1,35
 278 115 278 115 335 115 c 0,36,25
 394 115 394 115 422.5 169.5 c 128,-1,26
EndSplineSet
Substitution2: "'c2sc' Capitals to Small Capitals lookup 26 subtable" oe.sc
Substitution2: "'aalt' Access All Alternates lookup 0 subtable" oe.sc
Position2: "'cpsp' Capital Spacing lookup 0 subtable" dx=5 dy=0 dh=10 dv=0
EndChar

StartChar: P
Encoding: 80 80 225
Width: 605
GlyphClass: 2
Flags: W
AnchorPoint: "Anchor-18" 0 0 basechar 0
AnchorPoint: "Anchor-17" 0 0 basechar 0
AnchorPoint: "Anchor-16" 303 695 basechar 0
AnchorPoint: "Anchor-15" 0 0 basechar 0
AnchorPoint: "Anchor-14" 146 0 basechar 0
LayerCount: 2
Fore
SplineSet
509.5 636.5 m 128,-1,1
 587 578 587 578 587 465 c 0,2,3
 587 347 587 347 512 285.5 c 128,-1,4
 437 224 437 224 310 224 c 2,5,-1
 239 224 l 1,6,-1
 239 0 l 1,7,-1
 54 0 l 1,8,-1
 54 695 l 1,9,-1
 292 695 l 2,10,0
 432 695 432 695 509.5 636.5 c 128,-1,1
371.5 382 m 128,-1,12
 398 408 398 408 398 464 c 0,13,14
 398 565 398 565 289 565 c 2,15,-1
 239 565 l 1,16,-1
 239 356 l 1,17,-1
 293 356 l 2,18,11
 345 356 345 356 371.5 382 c 128,-1,12
EndSplineSet
Substitution2: "'c2sc' Capitals to Small Capitals lookup 26 subtable" p.sc
Substitution2: "'aalt' Access All Alternates lookup 0 subtable" p.sc
Position2: "'cpsp' Capital Spacing lookup 0 subtable" dx=5 dy=0 dh=10 dv=0
EndChar

StartChar: uni01A4
Encoding: 420 420 228
Width: 765
GlyphClass: 2
Flags: W
AnchorPoint: "Anchor-18" 0 0 basechar 0
AnchorPoint: "Anchor-17" 0 0 basechar 0
AnchorPoint: "Anchor-16" 462 695 basechar 0
AnchorPoint: "Anchor-15" 0 0 basechar 0
AnchorPoint: "Anchor-14" 305 0 basechar 0
LayerCount: 2
Fore
SplineSet
668.5 636.5 m 128,-1,1
 746 578 746 578 746 465 c 0,2,3
 746 347 746 347 671 285.5 c 128,-1,4
 596 224 596 224 469 224 c 2,5,-1
 398 224 l 1,6,-1
 398 0 l 1,7,-1
 213 0 l 1,8,-1
 213 565 l 1,9,-1
 187 565 l 2,10,11
 143 565 143 565 143 525 c 0,12,13
 143 510 143 510 147 496 c 128,-1,14
 151 482 151 482 159 462 c 1,15,-1
 47 414 l 1,16,17
 26 446 26 446 14 475.5 c 128,-1,18
 2 505 2 505 2 537 c 0,19,20
 2 611 2 611 55 653 c 128,-1,21
 108 695 108 695 197 695 c 2,22,-1
 451 695 l 2,23,0
 591 695 591 695 668.5 636.5 c 128,-1,1
530.5 382 m 128,-1,25
 557 408 557 408 557 464 c 0,26,27
 557 565 557 565 448 565 c 2,28,-1
 398 565 l 1,29,-1
 398 356 l 1,30,-1
 452 356 l 2,31,24
 504 356 504 356 530.5 382 c 128,-1,25
EndSplineSet
Substitution2: "'c2sc' Capitals to Small Capitals lookup 26 subtable" uni01A5.sc
Substitution2: "'aalt' Access All Alternates lookup 0 subtable" uni01A5.sc
Position2: "'cpsp' Capital Spacing lookup 0 subtable" dx=5 dy=0 dh=10 dv=0
EndChar

StartChar: Thorn
Encoding: 222 222 229
Width: 605
GlyphClass: 2
Flags: W
AnchorPoint: "Anchor-18" 0 0 basechar 0
AnchorPoint: "Anchor-17" 0 0 basechar 0
AnchorPoint: "Anchor-16" 303 695 basechar 0
AnchorPoint: "Anchor-15" 0 0 basechar 0
AnchorPoint: "Anchor-14" 303 0 basechar 0
LayerCount: 2
Fore
SplineSet
509.5 530.5 m 128,-1,1
 587 472 587 472 587 357 c 0,2,3
 587 235 587 235 512 172.5 c 128,-1,4
 437 110 437 110 310 110 c 2,5,-1
 239 110 l 1,6,-1
 239 0 l 1,7,-1
 54 0 l 1,8,-1
 54 695 l 1,9,-1
 239 695 l 1,10,-1
 239 589 l 1,11,-1
 292 589 l 2,12,0
 432 589 432 589 509.5 530.5 c 128,-1,1
371.5 269 m 128,-1,14
 398 296 398 296 398 357 c 0,15,16
 398 459 398 459 289 459 c 2,17,-1
 239 459 l 1,18,-1
 239 242 l 1,19,-1
 293 242 l 2,20,13
 345 242 345 242 371.5 269 c 128,-1,14
EndSplineSet
Substitution2: "'c2sc' Capitals to Small Capitals lookup 26 subtable" thorn.sc
Substitution2: "'aalt' Access All Alternates lookup 0 subtable" thorn.sc
Position2: "'cpsp' Capital Spacing lookup 0 subtable" dx=5 dy=0 dh=10 dv=0
EndChar

StartChar: Q
Encoding: 81 81 230
Width: 690
GlyphClass: 2
Flags: W
AnchorPoint: "Anchor-18" 0 0 basechar 0
AnchorPoint: "Anchor-17" 0 0 basechar 0
AnchorPoint: "Anchor-16" 345 695 basechar 0
AnchorPoint: "Anchor-15" 0 0 basechar 0
AnchorPoint: "Anchor-14" 345 0 basechar 0
LayerCount: 2
Fore
SplineSet
617 31 m 128,-1,1
 666 16 666 16 710 -17 c 1,2,-1
 600 -160 l 1,3,4
 545 -93 545 -93 483 -54 c 128,-1,5
 421 -15 421 -15 333 -15 c 0,6,7
 238 -15 238 -15 169.5 27.5 c 128,-1,8
 101 70 101 70 64 152 c 128,-1,9
 27 234 27 234 27 348 c 0,10,11
 27 461 27 461 64.5 543 c 128,-1,12
 102 625 102 625 173.5 669 c 128,-1,13
 245 713 245 713 345 713 c 0,14,15
 496 713 496 713 580 617 c 128,-1,16
 664 521 664 521 664 348 c 0,17,18
 664 233 664 233 617.5 160 c 128,-1,19
 571 87 571 87 499 46 c 1,20,0
 568 46 568 46 617 31 c 128,-1,1
250 169.5 m 128,-1,22
 281 115 281 115 345 115 c 0,23,24
 411 115 411 115 441 169 c 128,-1,25
 471 223 471 223 471 348 c 0,26,27
 471 472 471 472 441 526 c 128,-1,28
 411 580 411 580 345 580 c 0,29,30
 280 580 280 580 249.5 526 c 128,-1,31
 219 472 219 472 219 348 c 256,32,21
 219 224 219 224 250 169.5 c 128,-1,22
EndSplineSet
Substitution2: "'c2sc' Capitals to Small Capitals lookup 26 subtable" q.sc
Substitution2: "'aalt' Access All Alternates lookup 0 subtable" q.sc
Position2: "'cpsp' Capital Spacing lookup 0 subtable" dx=5 dy=0 dh=10 dv=0
EndChar

StartChar: uni024A
Encoding: 586 586 231
Width: 674
GlyphClass: 2
Flags: W
AnchorPoint: "Anchor-18" 0 0 basechar 0
AnchorPoint: "Anchor-17" 0 0 basechar 0
AnchorPoint: "Anchor-16" 337 695 basechar 0
AnchorPoint: "Anchor-15" 0 0 basechar 0
AnchorPoint: "Anchor-14" 337 -213 basechar 0
LayerCount: 2
Fore
SplineSet
800 -181 m 1,0,1
 739 -224 739 -224 651 -224 c 0,2,3
 551 -224 551 -224 493 -173 c 128,-1,4
 435 -122 435 -122 435 -24 c 2,5,-1
 435 32 l 1,6,7
 382 -18 382 -18 300 -18 c 256,8,9
 218 -18 218 -18 156.5 24.5 c 128,-1,10
 95 67 95 67 61 147 c 128,-1,11
 27 227 27 227 27 337 c 0,12,13
 27 453 27 453 62.5 538 c 128,-1,14
 98 623 98 623 160.5 668 c 128,-1,15
 223 713 223 713 303 713 c 0,16,17
 389 713 389 713 449 656 c 1,18,-1
 455 695 l 1,19,-1
 620 695 l 1,20,-1
 620 -35 l 2,21,22
 620 -63 620 -63 634 -77.5 c 128,-1,23
 648 -92 648 -92 672 -92 c 0,24,25
 692 -92 692 -92 705.5 -87.5 c 128,-1,26
 719 -83 719 -83 741 -72 c 1,27,-1
 800 -181 l 1,0,1
435 146 m 1,29,-1
 435 543 l 1,30,31
 396 580 396 580 342 580 c 0,32,33
 281 580 281 580 250 523 c 128,-1,34
 219 466 219 466 219 337 c 0,35,36
 219 214 219 214 250 162.5 c 128,-1,37
 281 111 281 111 341 111 c 0,38,28
 396 111 396 111 435 146 c 1,29,-1
EndSplineSet
Substitution2: "'c2sc' Capitals to Small Capitals lookup 26 subtable" uni024B.sc
Substitution2: "'aalt' Access All Alternates lookup 0 subtable" uni024B.sc
Position2: "'cpsp' Capital Spacing lookup 0 subtable" dx=5 dy=0 dh=10 dv=0
EndChar

StartChar: R
Encoding: 82 82 232
Width: 620
GlyphClass: 2
Flags: W
AnchorPoint: "Anchor-18" 0 0 basechar 0
AnchorPoint: "Anchor-17" 0 0 basechar 0
AnchorPoint: "Anchor-16" 301 695 basechar 0
AnchorPoint: "Anchor-15" 0 0 basechar 0
AnchorPoint: "Anchor-14" 311 0 basechar 0
LayerCount: 2
Fore
SplineSet
290 256 m 1,0,-1
 239 256 l 1,1,-1
 239 0 l 1,2,-1
 54 0 l 1,3,-1
 54 695 l 1,4,-1
 295 695 l 2,5,6
 442 695 442 695 514.5 642 c 128,-1,7
 587 589 587 589 587 479 c 0,8,9
 587 413 587 413 556.5 369 c 128,-1,10
 526 325 526 325 459 290 c 1,11,-1
 632 0 l 1,12,-1
 426 0 l 1,13,-1
 290 256 l 1,0,-1
239 382 m 1,14,-1
 301 382 l 2,15,16
 397 382 397 382 397 479 c 0,17,18
 397 524 397 524 370.5 545 c 128,-1,19
 344 566 344 566 291 566 c 2,20,-1
 239 566 l 1,21,-1
 239 382 l 1,14,-1
EndSplineSet
Substitution2: "'c2sc' Capitals to Small Capitals lookup 26 subtable" r.sc
Substitution2: "'aalt' Access All Alternates lookup 0 subtable" r.sc
Position2: "'cpsp' Capital Spacing lookup 0 subtable" dx=5 dy=0 dh=10 dv=0
EndChar

StartChar: uni024C
Encoding: 588 588 239
Width: 635
GlyphClass: 2
Flags: W
AnchorPoint: "Anchor-18" 0 0 basechar 0
AnchorPoint: "Anchor-17" 0 0 basechar 0
AnchorPoint: "Anchor-16" 316 695 basechar 0
AnchorPoint: "Anchor-15" 0 0 basechar 0
AnchorPoint: "Anchor-14" 326 0 basechar 0
LayerCount: 2
Fore
SplineSet
441 0 m 1,0,-1
 305 256 l 1,1,-1
 254 256 l 1,2,-1
 254 0 l 1,3,-1
 69 0 l 1,4,-1
 69 256 l 1,5,-1
 12 256 l 1,6,-1
 12 382 l 1,7,-1
 69 382 l 1,8,-1
 69 695 l 1,9,-1
 310 695 l 2,10,11
 457 695 457 695 529.5 642 c 128,-1,12
 602 589 602 589 602 479 c 0,13,14
 602 413 602 413 571.5 369 c 128,-1,15
 541 325 541 325 474 290 c 1,16,-1
 647 0 l 1,17,-1
 441 0 l 1,0,-1
254 566 m 1,18,-1
 254 382 l 1,19,-1
 316 382 l 2,20,21
 412 382 412 382 412 479 c 0,22,23
 412 524 412 524 385.5 545 c 128,-1,24
 359 566 359 566 306 566 c 2,25,-1
 254 566 l 1,18,-1
EndSplineSet
Substitution2: "'c2sc' Capitals to Small Capitals lookup 26 subtable" uni024D.sc
Substitution2: "'aalt' Access All Alternates lookup 0 subtable" uni024D.sc
Position2: "'cpsp' Capital Spacing lookup 0 subtable" dx=5 dy=0 dh=10 dv=0
EndChar

StartChar: uni2C64
Encoding: 11364 11364 240
Width: 620
GlyphClass: 2
Flags: W
AnchorPoint: "Anchor-18" 0 0 basechar 0
AnchorPoint: "Anchor-17" 0 0 basechar 0
AnchorPoint: "Anchor-16" 301 695 basechar 0
AnchorPoint: "Anchor-15" 0 0 basechar 0
AnchorPoint: "Anchor-14" 311 0 basechar 0
LayerCount: 2
Fore
SplineSet
253 -77.5 m 128,-1,1
 267 -92 267 -92 291 -92 c 0,2,3
 311 -92 311 -92 324.5 -87.5 c 128,-1,4
 338 -83 338 -83 360 -72 c 1,5,-1
 419 -181 l 1,6,7
 358 -224 358 -224 270 -224 c 0,8,9
 170 -224 170 -224 112 -173 c 128,-1,10
 54 -122 54 -122 54 -24 c 2,11,-1
 54 695 l 1,12,-1
 295 695 l 2,13,14
 442 695 442 695 514.5 642 c 128,-1,15
 587 589 587 589 587 479 c 0,16,17
 587 413 587 413 556.5 369 c 128,-1,18
 526 325 526 325 459 290 c 1,19,-1
 632 0 l 1,20,-1
 426 0 l 1,21,-1
 290 256 l 1,22,-1
 239 256 l 1,23,-1
 239 -35 l 2,24,0
 239 -63 239 -63 253 -77.5 c 128,-1,1
239 566 m 1,25,-1
 239 382 l 1,26,-1
 301 382 l 2,27,28
 397 382 397 382 397 479 c 0,29,30
 397 524 397 524 370.5 545 c 128,-1,31
 344 566 344 566 291 566 c 2,32,-1
 239 566 l 1,25,-1
EndSplineSet
Substitution2: "'ss01' Style Set 1 lookup 33 subtable" uni2C64.ss01
Substitution2: "'salt' Stylistic Alternatives lookup 32 subtable" uni2C64.ss01
Substitution2: "'c2sc' Capitals to Small Capitals lookup 26 subtable" uni2C64.sc
AlternateSubs2: "'aalt' Access All Alternates lookup 1 subtable" uni2C64.sc uni2C64.ss01
Position2: "'cpsp' Capital Spacing lookup 0 subtable" dx=5 dy=0 dh=10 dv=0
EndChar

StartChar: uni2C64.ss01
Encoding: 65544 -1 241
Width: 446
GlyphClass: 2
Flags: W
AnchorPoint: "Anchor-18" 0 0 basechar 0
AnchorPoint: "Anchor-17" 0 0 basechar 0
AnchorPoint: "Anchor-16" 223 695 basechar 0
AnchorPoint: "Anchor-15" 0 0 basechar 0
AnchorPoint: "Anchor-14" 223 -213 basechar 0
LayerCount: 2
Fore
SplineSet
253 -77.5 m 128,-1,1
 267 -92 267 -92 291 -92 c 0,2,3
 311 -92 311 -92 324.5 -87.5 c 128,-1,4
 338 -83 338 -83 360 -72 c 1,5,-1
 419 -181 l 1,6,7
 358 -224 358 -224 270 -224 c 0,8,9
 170 -224 170 -224 112 -173 c 128,-1,10
 54 -122 54 -122 54 -24 c 2,11,-1
 54 695 l 1,12,-1
 216 695 l 1,13,-1
 231 594 l 1,14,15
 249 649 249 649 289 680 c 128,-1,16
 329 711 329 711 387 711 c 0,17,18
 427 711 427 711 454 702 c 1,19,-1
 425 526 l 1,20,21
 397 533 397 533 364 533 c 0,22,23
 311 533 311 533 282 501 c 128,-1,24
 253 469 253 469 239 409 c 1,25,-1
 239 -35 l 2,26,0
 239 -63 239 -63 253 -77.5 c 128,-1,1
EndSplineSet
Position2: "'cpsp' Capital Spacing lookup 0 subtable" dx=5 dy=0 dh=10 dv=0
EndChar

StartChar: S
Encoding: 83 83 242
Width: 580
GlyphClass: 2
Flags: W
AnchorPoint: "Anchor-18" 0 0 basechar 0
AnchorPoint: "Anchor-17" 0 0 basechar 0
AnchorPoint: "Anchor-16" 301 695 basechar 0
AnchorPoint: "Anchor-15" 0 0 basechar 0
AnchorPoint: "Anchor-14" 288 0 basechar 0
LayerCount: 2
Fore
SplineSet
433.5 690 m 128,-1,1
 494 667 494 667 542 621 c 1,2,-1
 459 523 l 1,3,4
 387 580 387 580 308 580 c 0,5,6
 267 580 267 580 245.5 564.5 c 128,-1,7
 224 549 224 549 224 521 c 0,8,9
 224 501 224 501 235 488 c 128,-1,10
 246 475 246 475 272 463 c 128,-1,11
 298 451 298 451 354 433 c 0,12,13
 461 399 461 399 510.5 347.5 c 128,-1,14
 560 296 560 296 560 205 c 0,15,16
 560 139 560 139 526 88.5 c 128,-1,17
 492 38 492 38 427.5 10 c 128,-1,18
 363 -18 363 -18 276 -18 c 0,19,20
 110 -18 110 -18 5 83 c 1,21,-1
 96 184 l 1,22,23
 179 116 179 116 269 116 c 0,24,25
 316 116 316 116 342 136.5 c 128,-1,26
 368 157 368 157 368 191 c 0,27,28
 368 215 368 215 358 230.5 c 128,-1,29
 348 246 348 246 322.5 258.5 c 128,-1,30
 297 271 297 271 248 286 c 0,31,32
 130 323 130 323 82 375 c 128,-1,33
 34 427 34 427 34 506 c 0,34,35
 34 568 34 568 67.5 615 c 128,-1,36
 101 662 101 662 160.5 687.5 c 128,-1,37
 220 713 220 713 294 713 c 0,38,0
 373 713 373 713 433.5 690 c 128,-1,1
EndSplineSet
Substitution2: "'c2sc' Capitals to Small Capitals lookup 26 subtable" s.sc
Substitution2: "'aalt' Access All Alternates lookup 0 subtable" s.sc
Position2: "'cpsp' Capital Spacing lookup 0 subtable" dx=5 dy=0 dh=10 dv=0
EndChar

StartChar: uniA78B
Encoding: 42891 42891 245
Width: 257
GlyphClass: 2
Flags: W
LayerCount: 2
Fore
SplineSet
64 330 m 1,0,-1
 44 695 l 1,1,-1
 214 695 l 1,2,-1
 193 330 l 1,3,-1
 64 330 l 1,0,-1
EndSplineSet
Position2: "'cpsp' Capital Spacing lookup 0 subtable" dx=5 dy=0 dh=10 dv=0
EndChar

StartChar: Scedilla
Encoding: 350 350 247
Width: 580
GlyphClass: 2
Flags: W
AnchorPoint: "Anchor-18" 0 0 basechar 0
AnchorPoint: "Anchor-17" 0 0 basechar 0
AnchorPoint: "Anchor-16" 301 695 basechar 0
AnchorPoint: "Anchor-15" 0 0 basechar 0
AnchorPoint: "Anchor-14" 305 -269 basechar 0
LayerCount: 2
Fore
SplineSet
499.5 57.5 m 128,-1,1
 439 -2 439 -2 333 -15 c 1,2,-1
 333 -45 l 1,3,4
 386 -52 386 -52 413 -78.5 c 128,-1,5
 440 -105 440 -105 440 -149 c 0,6,7
 440 -202 440 -202 398 -235.5 c 128,-1,8
 356 -269 356 -269 284 -269 c 0,9,10
 248 -269 248 -269 217 -259.5 c 128,-1,11
 186 -250 186 -250 165 -236 c 1,12,-1
 205 -157 l 1,13,14
 236 -175 236 -175 268 -175 c 0,15,16
 314 -175 314 -175 314 -147 c 0,17,18
 314 -131 314 -131 292 -123.5 c 128,-1,19
 270 -116 270 -116 221 -116 c 1,20,-1
 234 -16 l 1,21,22
 94 -4 94 -4 5 83 c 1,23,-1
 96 184 l 1,24,25
 179 116 179 116 269 116 c 0,26,27
 316 116 316 116 342 136.5 c 128,-1,28
 368 157 368 157 368 191 c 0,29,30
 368 215 368 215 358 230.5 c 128,-1,31
 348 246 348 246 322.5 258.5 c 128,-1,32
 297 271 297 271 248 286 c 0,33,34
 130 323 130 323 82 375 c 128,-1,35
 34 427 34 427 34 506 c 0,36,37
 34 568 34 568 67.5 615 c 128,-1,38
 101 662 101 662 160.5 687.5 c 128,-1,39
 220 713 220 713 294 713 c 0,40,41
 373 713 373 713 433.5 690 c 128,-1,42
 494 667 494 667 542 621 c 1,43,-1
 459 523 l 1,44,45
 387 580 387 580 308 580 c 0,46,47
 267 580 267 580 245.5 564.5 c 128,-1,48
 224 549 224 549 224 521 c 0,49,50
 224 501 224 501 235 488 c 128,-1,51
 246 475 246 475 272 463 c 128,-1,52
 298 451 298 451 354 433 c 0,53,54
 461 399 461 399 510.5 347.5 c 128,-1,55
 560 296 560 296 560 205 c 0,56,0
 560 117 560 117 499.5 57.5 c 128,-1,1
EndSplineSet
Substitution2: "'c2sc' Capitals to Small Capitals lookup 26 subtable" scedilla.sc
Substitution2: "'locl' Localized Forms in Latin lookup 5 subtable" Scommaaccent
Substitution2: "'locl' Localized Forms in Latin lookup 4 subtable" Scommaaccent
AlternateSubs2: "'aalt' Access All Alternates lookup 1 subtable" Scommaaccent scedilla.sc
Position2: "'cpsp' Capital Spacing lookup 0 subtable" dx=5 dy=0 dh=10 dv=0
EndChar

StartChar: uni1E9E
Encoding: 7838 7838 252
Width: 673
GlyphClass: 2
Flags: W
LayerCount: 2
Fore
SplineSet
460 695 m 128,-1,1
 527 677 527 677 606 642 c 1,2,-1
 606 563 l 1,3,-1
 466 394 l 1,4,5
 653 362 653 362 653 197 c 0,6,7
 653 127 653 127 619.5 78.5 c 128,-1,8
 586 30 586 30 530 6 c 128,-1,9
 474 -18 474 -18 407 -18 c 0,10,11
 328 -18 328 -18 272 9 c 1,12,-1
 325 129 l 1,13,14
 348 119 348 119 382 119 c 256,15,16
 416 119 416 119 438 139 c 128,-1,17
 460 159 460 159 460 200 c 0,18,19
 460 249 460 249 424.5 276 c 128,-1,20
 389 303 389 303 308 311 c 1,21,-1
 308 401 l 1,22,-1
 435 561 l 1,23,24
 380 580 380 580 319 580 c 0,25,26
 278 580 278 580 258.5 558.5 c 128,-1,27
 239 537 239 537 239 489 c 2,28,-1
 239 0 l 1,29,-1
 54 0 l 1,30,-1
 54 483 l 2,31,32
 54 591 54 591 119 652 c 128,-1,33
 184 713 184 713 307 713 c 0,34,0
 393 713 393 713 460 695 c 128,-1,1
EndSplineSet
Substitution2: "'c2sc' Capitals to Small Capitals lookup 26 subtable" germandbls.sc
Substitution2: "'aalt' Access All Alternates lookup 0 subtable" germandbls.sc
Position2: "'cpsp' Capital Spacing lookup 0 subtable" dx=5 dy=0 dh=10 dv=0
EndChar

StartChar: T
Encoding: 84 84 254
Width: 547
GlyphClass: 2
Flags: W
AnchorPoint: "Anchor-18" 274 347 basechar 0
AnchorPoint: "Anchor-17" 0 0 basechar 0
AnchorPoint: "Anchor-16" 274 695 basechar 0
AnchorPoint: "Anchor-15" 0 0 basechar 0
AnchorPoint: "Anchor-14" 274 0 basechar 0
LayerCount: 2
Fore
SplineSet
549 695 m 1,0,-1
 530 554 l 1,1,-1
 366 554 l 1,2,-1
 366 0 l 1,3,-1
 181 0 l 1,4,-1
 181 554 l 1,5,-1
 7 554 l 1,6,-1
 7 695 l 1,7,-1
 549 695 l 1,0,-1
EndSplineSet
Substitution2: "'c2sc' Capitals to Small Capitals lookup 26 subtable" t.sc
Substitution2: "'aalt' Access All Alternates lookup 0 subtable" t.sc
Position2: "'cpsp' Capital Spacing lookup 0 subtable" dx=5 dy=0 dh=10 dv=0
EndChar

StartChar: Tbar
Encoding: 358 358 255
Width: 547
GlyphClass: 2
Flags: W
AnchorPoint: "Anchor-18" 274 347 basechar 0
AnchorPoint: "Anchor-17" 0 0 basechar 0
AnchorPoint: "Anchor-16" 274 695 basechar 0
AnchorPoint: "Anchor-15" 0 0 basechar 0
AnchorPoint: "Anchor-14" 274 0 basechar 0
LayerCount: 2
Fore
SplineSet
530 554 m 1,0,-1
 366 554 l 1,1,-1
 366 390 l 1,2,-1
 478 390 l 1,3,-1
 478 291 l 1,4,-1
 366 291 l 1,5,-1
 366 0 l 1,6,-1
 181 0 l 1,7,-1
 181 291 l 1,8,-1
 69 291 l 1,9,-1
 69 390 l 1,10,-1
 181 390 l 1,11,-1
 181 554 l 1,12,-1
 7 554 l 1,13,-1
 7 695 l 1,14,-1
 549 695 l 1,15,-1
 530 554 l 1,0,-1
EndSplineSet
Substitution2: "'c2sc' Capitals to Small Capitals lookup 26 subtable" tbar.sc
Substitution2: "'aalt' Access All Alternates lookup 0 subtable" tbar.sc
Position2: "'cpsp' Capital Spacing lookup 0 subtable" dx=5 dy=0 dh=10 dv=0
EndChar

StartChar: uni0162
Encoding: 354 354 257
Width: 547
GlyphClass: 2
Flags: W
AnchorPoint: "Anchor-18" 274 347 basechar 0
AnchorPoint: "Anchor-17" 0 0 basechar 0
AnchorPoint: "Anchor-16" 274 695 basechar 0
AnchorPoint: "Anchor-15" 0 0 basechar 0
AnchorPoint: "Anchor-14" 274 0 basechar 0
LayerCount: 2
Fore
SplineSet
446 -78.5 m 128,-1,1
 473 -105 473 -105 473 -149 c 0,2,3
 473 -202 473 -202 430.5 -235.5 c 128,-1,4
 388 -269 388 -269 316 -269 c 0,5,6
 282 -269 282 -269 251 -259.5 c 128,-1,7
 220 -250 220 -250 198 -236 c 1,8,-1
 238 -157 l 1,9,10
 269 -175 269 -175 299 -175 c 0,11,12
 323 -175 323 -175 335 -168.5 c 128,-1,13
 347 -162 347 -162 347 -147 c 0,14,15
 347 -131 347 -131 325 -123.5 c 128,-1,16
 303 -116 303 -116 254 -116 c 1,17,-1
 269 0 l 1,18,-1
 181 0 l 1,19,-1
 181 554 l 1,20,-1
 7 554 l 1,21,-1
 7 695 l 1,22,-1
 549 695 l 1,23,-1
 530 554 l 1,24,-1
 366 554 l 1,25,-1
 366 -45 l 1,26,0
 419 -52 419 -52 446 -78.5 c 128,-1,1
EndSplineSet
Substitution2: "'c2sc' Capitals to Small Capitals lookup 26 subtable" uni0163.sc
Substitution2: "'locl' Localized Forms in Latin lookup 5 subtable" uni021A
Substitution2: "'locl' Localized Forms in Latin lookup 4 subtable" uni021A
AlternateSubs2: "'aalt' Access All Alternates lookup 1 subtable" uni021A uni0163.sc
Position2: "'cpsp' Capital Spacing lookup 0 subtable" dx=5 dy=0 dh=10 dv=0
EndChar

StartChar: uni023E
Encoding: 574 574 260
Width: 547
GlyphClass: 2
Flags: W
AnchorPoint: "Anchor-18" 0 0 basechar 0
AnchorPoint: "Anchor-17" 0 0 basechar 0
AnchorPoint: "Anchor-16" 274 695 basechar 0
AnchorPoint: "Anchor-15" 0 0 basechar 0
AnchorPoint: "Anchor-14" 274 0 basechar 0
LayerCount: 2
Fore
SplineSet
530 563 m 1,0,-1
 446 563 l 1,1,-1
 354 375 l 1,2,-1
 354 0 l 1,3,-1
 193 0 l 1,4,-1
 193 45 l 1,5,-1
 134 -76 l 1,6,-1
 83 -50 l 1,7,-1
 193 175 l 1,8,-1
 193 563 l 1,9,-1
 7 563 l 1,10,-1
 7 695 l 1,11,-1
 447 695 l 1,12,-1
 478 758 l 1,13,-1
 529 733 l 1,14,-1
 510 695 l 1,15,-1
 549 695 l 1,16,-1
 530 563 l 1,0,-1
354 504 m 1,17,-1
 383 563 l 1,18,-1
 354 563 l 1,19,-1
 354 504 l 1,17,-1
EndSplineSet
Substitution2: "'c2sc' Capitals to Small Capitals lookup 26 subtable" uni2C66.sc
Substitution2: "'aalt' Access All Alternates lookup 0 subtable" uni2C66.sc
Position2: "'cpsp' Capital Spacing lookup 0 subtable" dx=5 dy=0 dh=10 dv=0
EndChar

StartChar: uni01AC
Encoding: 428 428 263
Width: 607
GlyphClass: 2
Flags: W
AnchorPoint: "Anchor-18" 0 0 basechar 0
AnchorPoint: "Anchor-17" 0 0 basechar 0
AnchorPoint: "Anchor-16" 303 695 basechar 0
AnchorPoint: "Anchor-15" 0 0 basechar 0
AnchorPoint: "Anchor-14" 334 0 basechar 0
LayerCount: 2
Fore
SplineSet
590 554 m 1,0,-1
 426 554 l 1,1,-1
 426 0 l 1,2,-1
 241 0 l 1,3,-1
 241 554 l 1,4,-1
 187 554 l 2,5,6
 166 554 166 554 155 544 c 128,-1,7
 144 534 144 534 144 517 c 0,8,9
 144 502 144 502 147.5 490 c 128,-1,10
 151 478 151 478 158 462 c 1,11,-1
 39 413 l 1,12,13
 2 476 2 476 2 537 c 0,14,15
 2 611 2 611 56.5 653 c 128,-1,16
 111 695 111 695 205 695 c 2,17,-1
 609 695 l 1,18,-1
 590 554 l 1,0,-1
EndSplineSet
Substitution2: "'c2sc' Capitals to Small Capitals lookup 26 subtable" uni01AD.sc
Substitution2: "'aalt' Access All Alternates lookup 0 subtable" uni01AD.sc
Position2: "'cpsp' Capital Spacing lookup 0 subtable" dx=5 dy=0 dh=10 dv=0
EndChar

StartChar: uni0184
Encoding: 388 388 266
Width: 628
GlyphClass: 2
Flags: W
AnchorPoint: "Anchor-18" 0 0 basechar 0
AnchorPoint: "Anchor-17" 0 0 basechar 0
AnchorPoint: "Anchor-16" 314 695 basechar 0
AnchorPoint: "Anchor-15" 0 0 basechar 0
AnchorPoint: "Anchor-14" 314 0 basechar 0
LayerCount: 2
Fore
SplineSet
543 406.5 m 128,-1,1
 615 350 615 350 615 238 c 0,2,3
 615 121 615 121 540.5 60.5 c 128,-1,4
 466 0 466 0 342 0 c 2,5,-1
 82 0 l 1,6,-1
 82 482 l 1,7,-1
 6 535 l 1,8,9
 69 601 69 601 113 695 c 1,10,-1
 267 695 l 1,11,-1
 267 463 l 1,12,-1
 336 463 l 2,13,0
 471 463 471 463 543 406.5 c 128,-1,1
423 236 m 0,15,16
 423 286 423 286 397.5 311.5 c 128,-1,17
 372 337 372 337 318 337 c 2,18,-1
 267 337 l 1,19,-1
 267 132 l 1,20,-1
 321 132 l 2,21,14
 423 132 423 132 423 236 c 0,15,16
EndSplineSet
Substitution2: "'c2sc' Capitals to Small Capitals lookup 26 subtable" uni0185.sc
Substitution2: "'aalt' Access All Alternates lookup 0 subtable" uni0185.sc
Position2: "'cpsp' Capital Spacing lookup 0 subtable" dx=5 dy=0 dh=10 dv=0
EndChar

StartChar: uni01A7
Encoding: 423 423 267
Width: 570
GlyphClass: 2
Flags: W
AnchorPoint: "Anchor-18" 0 0 basechar 0
AnchorPoint: "Anchor-17" 0 0 basechar 0
AnchorPoint: "Anchor-16" 285 695 basechar 0
AnchorPoint: "Anchor-15" 0 0 basechar 0
AnchorPoint: "Anchor-14" 285 0 basechar 0
LayerCount: 2
Fore
SplineSet
428.5 688 m 128,-1,1
 486 663 486 663 518 616.5 c 128,-1,2
 550 570 550 570 550 509 c 0,3,4
 550 431 550 431 499.5 381 c 128,-1,5
 449 331 449 331 332 295 c 0,6,7
 263 273 263 273 237.5 249.5 c 128,-1,8
 212 226 212 226 212 191 c 256,9,10
 212 156 212 156 236 137.5 c 128,-1,11
 260 119 260 119 304 119 c 0,12,13
 393 119 393 119 474 184 c 1,14,-1
 566 83 l 1,15,16
 516 38 516 38 447 10 c 128,-1,17
 378 -18 378 -18 290 -18 c 0,18,19
 208 -18 208 -18 147 10 c 128,-1,20
 86 38 86 38 53 88.5 c 128,-1,21
 20 139 20 139 20 204 c 0,22,23
 20 291 20 291 69.5 341 c 128,-1,24
 119 391 119 391 226 425 c 0,25,26
 303 450 303 450 331.5 470.5 c 128,-1,27
 360 491 360 491 360 522 c 0,28,29
 360 550 360 550 339 565 c 128,-1,30
 318 580 318 580 281 580 c 0,31,32
 236 580 236 580 198.5 566 c 128,-1,33
 161 552 161 552 125 523 c 1,34,-1
 42 621 l 1,35,36
 146 713 146 713 295 713 c 0,37,0
 371 713 371 713 428.5 688 c 128,-1,1
EndSplineSet
Substitution2: "'c2sc' Capitals to Small Capitals lookup 26 subtable" uni01A8.sc
Substitution2: "'aalt' Access All Alternates lookup 0 subtable" uni01A8.sc
Position2: "'cpsp' Capital Spacing lookup 0 subtable" dx=5 dy=0 dh=10 dv=0
EndChar

StartChar: uni01AE
Encoding: 430 430 268
Width: 549
GlyphClass: 2
Flags: W
AnchorPoint: "Anchor-18" 274 347 basechar 0
AnchorPoint: "Anchor-17" 0 0 basechar 0
AnchorPoint: "Anchor-16" 274 695 basechar 0
AnchorPoint: "Anchor-15" 0 0 basechar 0
AnchorPoint: "Anchor-14" 274 0 basechar 0
LayerCount: 2
Fore
SplineSet
451.5 -87.5 m 128,-1,1
 465 -83 465 -83 487 -72 c 1,2,-1
 546 -181 l 1,3,4
 485 -224 485 -224 397 -224 c 0,5,6
 297 -224 297 -224 239 -173 c 128,-1,7
 181 -122 181 -122 181 -24 c 2,8,-1
 181 554 l 1,9,-1
 7 554 l 1,10,-1
 7 695 l 1,11,-1
 549 695 l 1,12,-1
 530 554 l 1,13,-1
 366 554 l 1,14,-1
 366 -35 l 2,15,16
 366 -63 366 -63 380 -77.5 c 128,-1,17
 394 -92 394 -92 418 -92 c 0,18,0
 438 -92 438 -92 451.5 -87.5 c 128,-1,1
EndSplineSet
Substitution2: "'c2sc' Capitals to Small Capitals lookup 26 subtable" uni0288.sc
Substitution2: "'aalt' Access All Alternates lookup 0 subtable" uni0288.sc
Position2: "'cpsp' Capital Spacing lookup 0 subtable" dx=5 dy=0 dh=10 dv=0
EndChar

StartChar: U
Encoding: 85 85 269
Width: 647
GlyphClass: 2
Flags: W
AnchorPoint: "Anchor-18" 0 0 basechar 0
AnchorPoint: "Anchor-17" 614 695 basechar 0
AnchorPoint: "Anchor-16" 324 695 basechar 0
AnchorPoint: "Anchor-15" 454 0 basechar 0
AnchorPoint: "Anchor-14" 324 0 basechar 0
LayerCount: 2
Fore
SplineSet
604 233 m 2,0,1
 604 161 604 161 572.5 104 c 128,-1,2
 541 47 541 47 478 14.5 c 128,-1,3
 415 -18 415 -18 324 -18 c 0,4,5
 186 -18 186 -18 115 49.5 c 128,-1,6
 44 117 44 117 44 233 c 2,7,-1
 44 695 l 1,8,-1
 229 695 l 1,9,-1
 229 239 l 2,10,11
 229 176 229 176 251.5 146.5 c 128,-1,12
 274 117 274 117 324 117 c 256,13,14
 374 117 374 117 396 147 c 128,-1,15
 418 177 418 177 418 239 c 2,16,-1
 418 695 l 1,17,-1
 604 695 l 1,18,-1
 604 233 l 2,0,1
EndSplineSet
Substitution2: "'c2sc' Capitals to Small Capitals lookup 26 subtable" u.sc
Substitution2: "'aalt' Access All Alternates lookup 0 subtable" u.sc
Position2: "'cpsp' Capital Spacing lookup 0 subtable" dx=5 dy=0 dh=10 dv=0
EndChar

StartChar: uni0244
Encoding: 580 580 271
Width: 679
GlyphClass: 2
Flags: W
AnchorPoint: "Anchor-18" 0 0 basechar 0
AnchorPoint: "Anchor-17" 630 695 basechar 0
AnchorPoint: "Anchor-16" 340 695 basechar 0
AnchorPoint: "Anchor-15" 470 0 basechar 0
AnchorPoint: "Anchor-14" 340 0 basechar 0
LayerCount: 2
Fore
SplineSet
672 497 m 1,0,-1
 620 497 l 1,1,-1
 620 233 l 2,2,3
 620 161 620 161 588.5 104 c 128,-1,4
 557 47 557 47 494 14.5 c 128,-1,5
 431 -18 431 -18 340 -18 c 0,6,7
 202 -18 202 -18 131 49.5 c 128,-1,8
 60 117 60 117 60 233 c 2,9,-1
 60 497 l 1,10,-1
 7 497 l 1,11,-1
 7 596 l 1,12,-1
 60 596 l 1,13,-1
 60 695 l 1,14,-1
 245 695 l 1,15,-1
 245 596 l 1,16,-1
 434 596 l 1,17,-1
 434 695 l 1,18,-1
 620 695 l 1,19,-1
 620 596 l 1,20,-1
 672 596 l 1,21,-1
 672 497 l 1,0,-1
434 497 m 1,22,-1
 245 497 l 1,23,-1
 245 239 l 2,24,25
 245 176 245 176 267.5 146.5 c 128,-1,26
 290 117 290 117 340 117 c 256,27,28
 390 117 390 117 412 147 c 128,-1,29
 434 177 434 177 434 239 c 2,30,-1
 434 497 l 1,22,-1
EndSplineSet
Substitution2: "'c2sc' Capitals to Small Capitals lookup 26 subtable" uni0289.sc
Substitution2: "'aalt' Access All Alternates lookup 0 subtable" uni0289.sc
Position2: "'cpsp' Capital Spacing lookup 0 subtable" dx=5 dy=0 dh=10 dv=0
EndChar

StartChar: Uhorn
Encoding: 431 431 284
Width: 740
GlyphClass: 2
Flags: W
AnchorPoint: "Anchor-18" 0 0 basechar 0
AnchorPoint: "Anchor-17" 666 695 basechar 0
AnchorPoint: "Anchor-16" 324 695 basechar 0
AnchorPoint: "Anchor-15" 454 0 basechar 0
AnchorPoint: "Anchor-14" 324 0 basechar 0
LayerCount: 2
Fore
SplineSet
760 683 m 0,1,2
 760 618 760 618 719 584.5 c 128,-1,3
 678 551 678 551 604 551 c 1,4,-1
 604 233 l 2,5,6
 604 161 604 161 572.5 104 c 128,-1,7
 541 47 541 47 478 14.5 c 128,-1,8
 415 -18 415 -18 324 -18 c 0,9,10
 186 -18 186 -18 115 49.5 c 128,-1,11
 44 117 44 117 44 233 c 2,12,-1
 44 695 l 1,13,-1
 229 695 l 1,14,-1
 229 239 l 2,15,16
 229 176 229 176 251.5 146.5 c 128,-1,17
 274 117 274 117 324 117 c 256,18,19
 374 117 374 117 396 147 c 128,-1,20
 418 177 418 177 418 239 c 2,21,-1
 418 695 l 1,22,-1
 604 695 l 1,23,-1
 604 635 l 1,24,25
 625 639 625 639 634 653 c 128,-1,26
 643 667 643 667 643 692 c 0,27,28
 643 724 643 724 631 758 c 1,29,-1
 741 773 l 1,30,0
 760 737 760 737 760 683 c 0,1,2
EndSplineSet
Substitution2: "'c2sc' Capitals to Small Capitals lookup 26 subtable" uhorn.sc
Substitution2: "'aalt' Access All Alternates lookup 0 subtable" uhorn.sc
Position2: "'cpsp' Capital Spacing lookup 0 subtable" dx=5 dy=0 dh=10 dv=0
EndChar

StartChar: uni1EE8
Encoding: 7912 7912 285
Width: 740
GlyphClass: 2
Flags: W
AnchorPoint: "Anchor-18" 0 0 basechar 0
AnchorPoint: "Anchor-17" 666 695 basechar 0
AnchorPoint: "Anchor-16" 326 970 basechar 0
AnchorPoint: "Anchor-15" 454 0 basechar 0
AnchorPoint: "Anchor-14" 324 0 basechar 0
LayerCount: 2
Fore
SplineSet
470 839 m 1,0,-1
 223 750 l 1,1,-1
 178 840 l 1,2,-1
 406 970 l 1,3,-1
 470 839 l 1,0,-1
760 683 m 0,5,6
 760 618 760 618 719 584.5 c 128,-1,7
 678 551 678 551 604 551 c 1,8,-1
 604 233 l 2,9,10
 604 161 604 161 572.5 104 c 128,-1,11
 541 47 541 47 478 14.5 c 128,-1,12
 415 -18 415 -18 324 -18 c 0,13,14
 186 -18 186 -18 115 49.5 c 128,-1,15
 44 117 44 117 44 233 c 2,16,-1
 44 695 l 1,17,-1
 229 695 l 1,18,-1
 229 239 l 2,19,20
 229 176 229 176 251.5 146.5 c 128,-1,21
 274 117 274 117 324 117 c 256,22,23
 374 117 374 117 396 147 c 128,-1,24
 418 177 418 177 418 239 c 2,25,-1
 418 695 l 1,26,-1
 604 695 l 1,27,-1
 604 635 l 1,28,29
 625 639 625 639 634 653 c 128,-1,30
 643 667 643 667 643 692 c 0,31,32
 643 724 643 724 631 758 c 1,33,-1
 741 773 l 1,34,4
 760 737 760 737 760 683 c 0,5,6
EndSplineSet
Substitution2: "'c2sc' Capitals to Small Capitals lookup 26 subtable" uni1EE9.sc
Substitution2: "'aalt' Access All Alternates lookup 0 subtable" uni1EE9.sc
Position2: "'cpsp' Capital Spacing lookup 0 subtable" dx=5 dy=0 dh=10 dv=0
EndChar

StartChar: uni1EF0
Encoding: 7920 7920 286
Width: 740
GlyphClass: 2
Flags: W
AnchorPoint: "Anchor-18" 0 0 basechar 0
AnchorPoint: "Anchor-17" 666 695 basechar 0
AnchorPoint: "Anchor-16" 324 695 basechar 0
AnchorPoint: "Anchor-15" 454 0 basechar 0
AnchorPoint: "Anchor-14" 326 -213 basechar 0
LayerCount: 2
Fore
SplineSet
760 683 m 0,1,2
 760 618 760 618 719 584.5 c 128,-1,3
 678 551 678 551 604 551 c 1,4,-1
 604 233 l 2,5,6
 604 161 604 161 572.5 104 c 128,-1,7
 541 47 541 47 478 14.5 c 128,-1,8
 415 -18 415 -18 324 -18 c 0,9,10
 186 -18 186 -18 115 49.5 c 128,-1,11
 44 117 44 117 44 233 c 2,12,-1
 44 695 l 1,13,-1
 229 695 l 1,14,-1
 229 239 l 2,15,16
 229 176 229 176 251.5 146.5 c 128,-1,17
 274 117 274 117 324 117 c 256,18,19
 374 117 374 117 396 147 c 128,-1,20
 418 177 418 177 418 239 c 2,21,-1
 418 695 l 1,22,-1
 604 695 l 1,23,-1
 604 635 l 1,24,25
 625 639 625 639 634 653 c 128,-1,26
 643 667 643 667 643 692 c 0,27,28
 643 724 643 724 631 758 c 1,29,-1
 741 773 l 1,30,0
 760 737 760 737 760 683 c 0,1,2
397.5 -84 m 128,-1,32
 426 -112 426 -112 426 -154 c 256,33,34
 426 -196 426 -196 397.5 -224 c 128,-1,35
 369 -252 369 -252 324 -252 c 256,36,37
 279 -252 279 -252 250.5 -224 c 128,-1,38
 222 -196 222 -196 222 -154 c 256,39,40
 222 -112 222 -112 250.5 -84 c 128,-1,41
 279 -56 279 -56 324 -56 c 256,42,31
 369 -56 369 -56 397.5 -84 c 128,-1,32
EndSplineSet
Substitution2: "'c2sc' Capitals to Small Capitals lookup 26 subtable" uni1EF1.sc
Substitution2: "'aalt' Access All Alternates lookup 0 subtable" uni1EF1.sc
Position2: "'cpsp' Capital Spacing lookup 0 subtable" dx=5 dy=0 dh=10 dv=0
EndChar

StartChar: uni1EEA
Encoding: 7914 7914 287
Width: 740
GlyphClass: 2
Flags: W
AnchorPoint: "Anchor-18" 0 0 basechar 0
AnchorPoint: "Anchor-17" 666 695 basechar 0
AnchorPoint: "Anchor-16" 325 970 basechar 0
AnchorPoint: "Anchor-15" 454 0 basechar 0
AnchorPoint: "Anchor-14" 324 0 basechar 0
LayerCount: 2
Fore
SplineSet
468 840 m 1,0,-1
 423 750 l 1,1,-1
 176 839 l 1,2,-1
 241 970 l 1,3,-1
 468 840 l 1,0,-1
760 683 m 0,5,6
 760 618 760 618 719 584.5 c 128,-1,7
 678 551 678 551 604 551 c 1,8,-1
 604 233 l 2,9,10
 604 161 604 161 572.5 104 c 128,-1,11
 541 47 541 47 478 14.5 c 128,-1,12
 415 -18 415 -18 324 -18 c 0,13,14
 186 -18 186 -18 115 49.5 c 128,-1,15
 44 117 44 117 44 233 c 2,16,-1
 44 695 l 1,17,-1
 229 695 l 1,18,-1
 229 239 l 2,19,20
 229 176 229 176 251.5 146.5 c 128,-1,21
 274 117 274 117 324 117 c 256,22,23
 374 117 374 117 396 147 c 128,-1,24
 418 177 418 177 418 239 c 2,25,-1
 418 695 l 1,26,-1
 604 695 l 1,27,-1
 604 635 l 1,28,29
 625 639 625 639 634 653 c 128,-1,30
 643 667 643 667 643 692 c 0,31,32
 643 724 643 724 631 758 c 1,33,-1
 741 773 l 1,34,4
 760 737 760 737 760 683 c 0,5,6
EndSplineSet
Substitution2: "'c2sc' Capitals to Small Capitals lookup 26 subtable" uni1EEB.sc
Substitution2: "'aalt' Access All Alternates lookup 0 subtable" uni1EEB.sc
Position2: "'cpsp' Capital Spacing lookup 0 subtable" dx=5 dy=0 dh=10 dv=0
EndChar

StartChar: uni1EEC
Encoding: 7916 7916 288
Width: 740
GlyphClass: 2
Flags: W
AnchorPoint: "Anchor-18" 0 0 basechar 0
AnchorPoint: "Anchor-17" 666 695 basechar 0
AnchorPoint: "Anchor-16" 332 1005 basechar 0
AnchorPoint: "Anchor-15" 454 0 basechar 0
AnchorPoint: "Anchor-14" 324 0 basechar 0
LayerCount: 2
Fore
SplineSet
275.5 918 m 128,-1,1
 262 915 262 915 245 908 c 1,2,-1
 217 978 l 1,3,4
 263 1005 263 1005 330 1005 c 0,5,6
 392 1005 392 1005 426 976 c 128,-1,7
 460 947 460 947 460 900 c 0,8,9
 460 861 460 861 438 837 c 128,-1,10
 416 813 416 813 375 805 c 1,11,-1
 375 764 l 1,12,-1
 273 764 l 1,13,-1
 273 855 l 1,14,15
 311 857 311 857 327.5 865 c 128,-1,16
 344 873 344 873 344 892 c 0,17,18
 344 906 344 906 333.5 913.5 c 128,-1,19
 323 921 323 921 306 921 c 256,20,0
 289 921 289 921 275.5 918 c 128,-1,1
760 683 m 0,22,23
 760 618 760 618 719 584.5 c 128,-1,24
 678 551 678 551 604 551 c 1,25,-1
 604 233 l 2,26,27
 604 161 604 161 572.5 104 c 128,-1,28
 541 47 541 47 478 14.5 c 128,-1,29
 415 -18 415 -18 324 -18 c 0,30,31
 186 -18 186 -18 115 49.5 c 128,-1,32
 44 117 44 117 44 233 c 2,33,-1
 44 695 l 1,34,-1
 229 695 l 1,35,-1
 229 239 l 2,36,37
 229 176 229 176 251.5 146.5 c 128,-1,38
 274 117 274 117 324 117 c 256,39,40
 374 117 374 117 396 147 c 128,-1,41
 418 177 418 177 418 239 c 2,42,-1
 418 695 l 1,43,-1
 604 695 l 1,44,-1
 604 635 l 1,45,46
 625 639 625 639 634 653 c 128,-1,47
 643 667 643 667 643 692 c 0,48,49
 643 724 643 724 631 758 c 1,50,-1
 741 773 l 1,51,21
 760 737 760 737 760 683 c 0,22,23
EndSplineSet
Substitution2: "'c2sc' Capitals to Small Capitals lookup 26 subtable" uni1EED.sc
Substitution2: "'aalt' Access All Alternates lookup 0 subtable" uni1EED.sc
Position2: "'cpsp' Capital Spacing lookup 0 subtable" dx=5 dy=0 dh=10 dv=0
EndChar

StartChar: uni1EEE
Encoding: 7918 7918 289
Width: 740
GlyphClass: 2
Flags: W
AnchorPoint: "Anchor-18" 0 0 basechar 0
AnchorPoint: "Anchor-17" 666 695 basechar 0
AnchorPoint: "Anchor-16" 326 924 basechar 0
AnchorPoint: "Anchor-15" 454 0 basechar 0
AnchorPoint: "Anchor-14" 324 0 basechar 0
LayerCount: 2
Fore
SplineSet
239 788 m 128,-1,1
 228 778 228 778 215 755 c 1,2,-1
 129 797 l 1,3,4
 149 852 149 852 184 888 c 128,-1,5
 219 924 219 924 264 924 c 0,6,7
 288 924 288 924 305 917 c 128,-1,8
 322 910 322 910 341 897 c 0,9,10
 351 890 351 890 361 885 c 128,-1,11
 371 880 371 880 380 880 c 0,12,13
 397 880 397 880 408 890 c 128,-1,14
 419 900 419 900 432 923 c 1,15,-1
 518 881 l 1,16,17
 497 825 497 825 462 789.5 c 128,-1,18
 427 754 427 754 382 754 c 0,19,20
 359 754 359 754 342.5 761 c 128,-1,21
 326 768 326 768 307 781 c 0,22,23
 297 788 297 788 287 793 c 128,-1,24
 277 798 277 798 268 798 c 0,25,0
 250 798 250 798 239 788 c 128,-1,1
760 683 m 0,27,28
 760 618 760 618 719 584.5 c 128,-1,29
 678 551 678 551 604 551 c 1,30,-1
 604 233 l 2,31,32
 604 161 604 161 572.5 104 c 128,-1,33
 541 47 541 47 478 14.5 c 128,-1,34
 415 -18 415 -18 324 -18 c 0,35,36
 186 -18 186 -18 115 49.5 c 128,-1,37
 44 117 44 117 44 233 c 2,38,-1
 44 695 l 1,39,-1
 229 695 l 1,40,-1
 229 239 l 2,41,42
 229 176 229 176 251.5 146.5 c 128,-1,43
 274 117 274 117 324 117 c 256,44,45
 374 117 374 117 396 147 c 128,-1,46
 418 177 418 177 418 239 c 2,47,-1
 418 695 l 1,48,-1
 604 695 l 1,49,-1
 604 635 l 1,50,51
 625 639 625 639 634 653 c 128,-1,52
 643 667 643 667 643 692 c 0,53,54
 643 724 643 724 631 758 c 1,55,-1
 741 773 l 1,56,26
 760 737 760 737 760 683 c 0,27,28
EndSplineSet
Substitution2: "'c2sc' Capitals to Small Capitals lookup 26 subtable" uni1EEF.sc
Substitution2: "'aalt' Access All Alternates lookup 0 subtable" uni1EEF.sc
Position2: "'cpsp' Capital Spacing lookup 0 subtable" dx=5 dy=0 dh=10 dv=0
EndChar

StartChar: Uogonek
Encoding: 370 370 293
Width: 647
GlyphClass: 2
Flags: W
AnchorPoint: "Anchor-18" 0 0 basechar 0
AnchorPoint: "Anchor-17" 614 695 basechar 0
AnchorPoint: "Anchor-16" 324 695 basechar 0
AnchorPoint: "Anchor-15" 454 0 basechar 0
AnchorPoint: "Anchor-14" 324 0 basechar 0
LayerCount: 2
Fore
SplineSet
604 695 m 1,0,-1
 604 233 l 2,1,2
 604 151 604 151 563 89 c 128,-1,3
 522 27 522 27 444 0 c 0,4,5
 327 -41 327 -41 327 -99 c 0,6,7
 327 -143 327 -143 379 -143 c 0,8,9
 409 -143 409 -143 440 -136 c 1,10,-1
 429 -242 l 1,11,12
 394 -250 394 -250 357 -250 c 0,13,14
 290 -250 290 -250 247 -217 c 128,-1,15
 204 -184 204 -184 204 -129 c 0,16,17
 204 -56 204 -56 284 -16 c 1,18,19
 166 -7 166 -7 105 59.5 c 128,-1,20
 44 126 44 126 44 233 c 2,21,-1
 44 695 l 1,22,-1
 229 695 l 1,23,-1
 229 239 l 2,24,25
 229 176 229 176 251.5 146.5 c 128,-1,26
 274 117 274 117 324 117 c 256,27,28
 374 117 374 117 396 147 c 128,-1,29
 418 177 418 177 418 239 c 2,30,-1
 418 695 l 1,31,-1
 604 695 l 1,0,-1
EndSplineSet
Substitution2: "'c2sc' Capitals to Small Capitals lookup 26 subtable" uogonek.sc
Substitution2: "'aalt' Access All Alternates lookup 0 subtable" uogonek.sc
Position2: "'cpsp' Capital Spacing lookup 0 subtable" dx=5 dy=0 dh=10 dv=0
EndChar

StartChar: uni01B1
Encoding: 433 433 294
Width: 690
GlyphClass: 2
Flags: W
AnchorPoint: "Anchor-18" 0 0 basechar 0
AnchorPoint: "Anchor-17" 0 0 basechar 0
AnchorPoint: "Anchor-16" 345 695 basechar 0
AnchorPoint: "Anchor-15" 0 0 basechar 0
AnchorPoint: "Anchor-14" 345 0 basechar 0
LayerCount: 2
Fore
SplineSet
174 23.5 m 128,-1,1
 102 65 102 65 64.5 137 c 128,-1,2
 27 209 27 209 27 298 c 0,3,4
 27 393 27 393 61 457.5 c 128,-1,5
 95 522 95 522 159 565 c 1,6,-1
 48 565 l 1,7,-1
 48 695 l 1,8,-1
 294 695 l 1,9,-1
 294 573 l 1,10,11
 255 522 255 522 237 462.5 c 128,-1,12
 219 403 219 403 219 298 c 0,13,14
 219 115 219 115 345 115 c 256,15,16
 471 115 471 115 471 298 c 0,17,18
 471 402 471 402 453 461.5 c 128,-1,19
 435 521 435 521 397 573 c 1,20,-1
 397 695 l 1,21,-1
 643 695 l 1,22,-1
 643 565 l 1,23,-1
 532 565 l 1,24,25
 664 479 664 479 664 298 c 0,26,27
 664 210 664 210 626 138 c 128,-1,28
 588 66 588 66 515.5 24 c 128,-1,29
 443 -18 443 -18 345 -18 c 0,30,0
 246 -18 246 -18 174 23.5 c 128,-1,1
EndSplineSet
Substitution2: "'c2sc' Capitals to Small Capitals lookup 26 subtable" uni01B1.sc
Substitution2: "'aalt' Access All Alternates lookup 0 subtable" uni01B1.sc
Position2: "'cpsp' Capital Spacing lookup 0 subtable" dx=5 dy=0 dh=10 dv=0
EndChar

StartChar: V
Encoding: 86 86 298
Width: 575
GlyphClass: 2
Flags: W
AnchorPoint: "Anchor-18" 0 0 basechar 0
AnchorPoint: "Anchor-17" 0 0 basechar 0
AnchorPoint: "Anchor-16" 287 695 basechar 0
AnchorPoint: "Anchor-15" 0 0 basechar 0
AnchorPoint: "Anchor-14" 287 0 basechar 0
LayerCount: 2
Fore
SplineSet
594 695 m 1,0,-1
 410 0 l 1,1,-1
 174 0 l 1,2,-1
 -19 695 l 1,3,-1
 176 695 l 1,4,-1
 295 135 l 1,5,-1
 405 695 l 1,6,-1
 594 695 l 1,0,-1
EndSplineSet
Substitution2: "'c2sc' Capitals to Small Capitals lookup 26 subtable" v.sc
Substitution2: "'aalt' Access All Alternates lookup 0 subtable" v.sc
Position2: "'cpsp' Capital Spacing lookup 0 subtable" dx=5 dy=0 dh=10 dv=0
EndChar

StartChar: uni01B2
Encoding: 434 434 299
Width: 647
GlyphClass: 2
Flags: W
AnchorPoint: "Anchor-18" 0 0 basechar 0
AnchorPoint: "Anchor-17" 0 0 basechar 0
AnchorPoint: "Anchor-16" 311 695 basechar 0
AnchorPoint: "Anchor-15" 0 0 basechar 0
AnchorPoint: "Anchor-14" 311 0 basechar 0
LayerCount: 2
Fore
SplineSet
562 669 m 128,-1,1
 604 625 604 625 604 535 c 2,2,-1
 604 289 l 2,3,4
 604 193 604 193 566.5 124 c 128,-1,5
 529 55 529 55 461 18.5 c 128,-1,6
 393 -18 393 -18 302 -18 c 0,7,8
 223 -18 223 -18 164.5 12 c 128,-1,9
 106 42 106 42 75 94.5 c 128,-1,10
 44 147 44 147 44 215 c 2,11,-1
 44 695 l 1,12,-1
 229 695 l 1,13,-1
 229 214 l 2,14,15
 229 168 229 168 249 142.5 c 128,-1,16
 269 117 269 117 308 117 c 0,17,18
 359 117 359 117 388.5 157 c 128,-1,19
 418 197 418 197 418 284 c 2,20,-1
 418 545 l 2,21,22
 418 564 418 564 411 572.5 c 128,-1,23
 404 581 404 581 390 581 c 0,24,25
 377 581 377 581 366 577 c 1,26,-1
 340 696 l 1,27,28
 383 713 383 713 441 713 c 0,29,0
 520 713 520 713 562 669 c 128,-1,1
EndSplineSet
Substitution2: "'c2sc' Capitals to Small Capitals lookup 26 subtable" uni028B.sc
Substitution2: "'aalt' Access All Alternates lookup 0 subtable" uni028B.sc
Position2: "'cpsp' Capital Spacing lookup 0 subtable" dx=5 dy=0 dh=10 dv=0
EndChar

StartChar: W
Encoding: 87 87 301
Width: 853
GlyphClass: 2
Flags: W
AnchorPoint: "Anchor-18" 0 0 basechar 0
AnchorPoint: "Anchor-17" 0 0 basechar 0
AnchorPoint: "Anchor-16" 428 695 basechar 0
AnchorPoint: "Anchor-15" 0 0 basechar 0
AnchorPoint: "Anchor-14" 426 0 basechar 0
LayerCount: 2
Fore
SplineSet
848 695 m 1,0,-1
 740 0 l 1,1,-1
 499 0 l 1,2,-1
 425 515 l 1,3,-1
 345 0 l 1,4,-1
 110 0 l 1,5,-1
 5 695 l 1,6,-1
 189 695 l 1,7,-1
 246 137 l 1,8,-1
 331 695 l 1,9,-1
 525 695 l 1,10,-1
 601 137 l 1,11,-1
 671 695 l 1,12,-1
 848 695 l 1,0,-1
EndSplineSet
Substitution2: "'c2sc' Capitals to Small Capitals lookup 26 subtable" w.sc
Substitution2: "'aalt' Access All Alternates lookup 0 subtable" w.sc
Position2: "'cpsp' Capital Spacing lookup 0 subtable" dx=5 dy=0 dh=10 dv=0
EndChar

StartChar: uni2C72
Encoding: 11378 11378 306
Width: 922
GlyphClass: 2
Flags: W
AnchorPoint: "Anchor-18" 0 0 basechar 0
AnchorPoint: "Anchor-17" 0 0 basechar 0
AnchorPoint: "Anchor-16" 428 695 basechar 0
AnchorPoint: "Anchor-15" 0 0 basechar 0
AnchorPoint: "Anchor-14" 423 0 basechar 0
LayerCount: 2
Fore
SplineSet
110 0 m 1,0,-1
 345 0 l 1,1,-1
 425 515 l 1,2,-1
 499 0 l 1,3,-1
 734 0 l 1,4,-1
 806 530 l 2,5,6
 810 559 810 559 822 571.5 c 128,-1,7
 834 584 834 584 857 584 c 0,8,9
 873 584 873 584 883.5 580.5 c 128,-1,10
 894 577 894 577 908 570 c 1,11,-1
 957 676 l 1,12,13
 929 694 929 694 899 703.5 c 128,-1,14
 869 713 869 713 828 713 c 0,15,16
 748 713 748 713 702 670 c 128,-1,17
 656 627 656 627 645 528 c 2,18,-1
 601 137 l 1,19,-1
 525 695 l 1,20,-1
 331 695 l 1,21,-1
 246 137 l 1,22,-1
 189 695 l 1,23,-1
 5 695 l 1,24,-1
 110 0 l 1,0,-1
EndSplineSet
Substitution2: "'c2sc' Capitals to Small Capitals lookup 26 subtable" uni2C73.sc
Substitution2: "'aalt' Access All Alternates lookup 0 subtable" uni2C73.sc
Position2: "'cpsp' Capital Spacing lookup 0 subtable" dx=5 dy=0 dh=10 dv=0
EndChar

StartChar: uni01F7
Encoding: 503 503 307
Width: 605
GlyphClass: 2
Flags: W
AnchorPoint: "Anchor-18" 0 0 basechar 0
AnchorPoint: "Anchor-17" 0 0 basechar 0
AnchorPoint: "Anchor-16" 303 695 basechar 0
AnchorPoint: "Anchor-15" 0 0 basechar 0
AnchorPoint: "Anchor-14" 303 0 basechar 0
LayerCount: 2
Fore
SplineSet
492.5 689 m 128,-1,1
 536 665 536 665 561.5 620.5 c 128,-1,2
 587 576 587 576 587 519 c 0,3,4
 587 439 587 439 551.5 384.5 c 128,-1,5
 516 330 516 330 457 295.5 c 128,-1,6
 398 261 398 261 310 229 c 2,7,-1
 239 203 l 1,8,-1
 239 0 l 1,9,-1
 54 0 l 1,10,-1
 54 695 l 1,11,-1
 239 695 l 1,12,-1
 239 654 l 1,13,14
 300 713 300 713 396 713 c 0,15,0
 449 713 449 713 492.5 689 c 128,-1,1
367 412.5 m 128,-1,17
 398 453 398 453 398 507 c 0,18,19
 398 544 398 544 378.5 563 c 128,-1,20
 359 582 359 582 326 582 c 0,21,22
 277 582 277 582 239 549 c 1,23,-1
 239 328 l 1,24,-1
 267 341 l 2,25,16
 336 372 336 372 367 412.5 c 128,-1,17
EndSplineSet
Substitution2: "'c2sc' Capitals to Small Capitals lookup 26 subtable" uni01BF.sc
Substitution2: "'aalt' Access All Alternates lookup 0 subtable" uni01BF.sc
Position2: "'cpsp' Capital Spacing lookup 0 subtable" dx=5 dy=0 dh=10 dv=0
EndChar

StartChar: X
Encoding: 88 88 308
Width: 594
GlyphClass: 2
Flags: W
AnchorPoint: "Anchor-18" 0 0 basechar 0
AnchorPoint: "Anchor-17" 0 0 basechar 0
AnchorPoint: "Anchor-16" 297 695 basechar 0
AnchorPoint: "Anchor-15" 0 0 basechar 0
AnchorPoint: "Anchor-14" 297 0 basechar 0
LayerCount: 2
Fore
SplineSet
404 374 m 1,0,-1
 601 0 l 1,1,-1
 400 0 l 1,2,-1
 292 251 l 1,3,-1
 189 0 l 1,4,-1
 -7 0 l 1,5,-1
 183 369 l 1,6,-1
 7 695 l 1,7,-1
 206 695 l 1,8,-1
 294 484 l 1,9,-1
 390 695 l 1,10,-1
 585 695 l 1,11,-1
 404 374 l 1,0,-1
EndSplineSet
Substitution2: "'c2sc' Capitals to Small Capitals lookup 26 subtable" x.sc
Substitution2: "'aalt' Access All Alternates lookup 0 subtable" x.sc
Position2: "'cpsp' Capital Spacing lookup 0 subtable" dx=5 dy=0 dh=10 dv=0
EndChar

StartChar: Y
Encoding: 89 89 309
Width: 607
GlyphClass: 2
Flags: W
AnchorPoint: "Anchor-18" 0 0 basechar 0
AnchorPoint: "Anchor-17" 0 0 basechar 0
AnchorPoint: "Anchor-16" 303 695 basechar 0
AnchorPoint: "Anchor-15" 0 0 basechar 0
AnchorPoint: "Anchor-14" 303 0 basechar 0
LayerCount: 2
Fore
SplineSet
618 695 m 1,0,-1
 396 259 l 1,1,-1
 396 0 l 1,2,-1
 211 0 l 1,3,-1
 211 258 l 1,4,-1
 -11 695 l 1,5,-1
 191 695 l 1,6,-1
 306 400 l 1,7,-1
 422 695 l 1,8,-1
 618 695 l 1,0,-1
EndSplineSet
Substitution2: "'c2sc' Capitals to Small Capitals lookup 26 subtable" y.sc
Substitution2: "'aalt' Access All Alternates lookup 0 subtable" y.sc
Position2: "'cpsp' Capital Spacing lookup 0 subtable" dx=5 dy=0 dh=10 dv=0
EndChar

StartChar: uni01B3
Encoding: 435 435 315
Width: 647
GlyphClass: 2
Flags: W
AnchorPoint: "Anchor-18" 0 0 basechar 0
AnchorPoint: "Anchor-17" 0 0 basechar 0
AnchorPoint: "Anchor-16" 313 695 basechar 0
AnchorPoint: "Anchor-15" 0 0 basechar 0
AnchorPoint: "Anchor-14" 303 0 basechar 0
LayerCount: 2
Fore
SplineSet
211 258 m 1,0,-1
 -11 695 l 1,1,-1
 191 695 l 1,2,-1
 306 400 l 1,3,-1
 364 559 l 2,4,5
 393 642 393 642 436.5 677.5 c 128,-1,6
 480 713 480 713 556 713 c 0,7,8
 625 713 625 713 682 677 c 1,9,-1
 633 570 l 1,10,11
 610 584 610 584 582 584 c 0,12,13
 559 584 559 584 545.5 573 c 128,-1,14
 532 562 532 562 519 533 c 2,15,-1
 396 259 l 1,16,-1
 396 0 l 1,17,-1
 211 0 l 1,18,-1
 211 258 l 1,0,-1
EndSplineSet
Substitution2: "'c2sc' Capitals to Small Capitals lookup 26 subtable" uni01B4.sc
Substitution2: "'aalt' Access All Alternates lookup 0 subtable" uni01B4.sc
Position2: "'cpsp' Capital Spacing lookup 0 subtable" dx=5 dy=0 dh=10 dv=0
EndChar

StartChar: uni01A6
Encoding: 422 422 318
Width: 620
GlyphClass: 2
Flags: W
AnchorPoint: "Anchor-18" 0 0 basechar 0
AnchorPoint: "Anchor-17" 0 0 basechar 0
AnchorPoint: "Anchor-16" 310 695 basechar 0
AnchorPoint: "Anchor-15" 0 0 basechar 0
AnchorPoint: "Anchor-14" 310 -213 basechar 0
LayerCount: 2
Fore
SplineSet
290 144 m 1,0,-1
 239 144 l 1,1,-1
 239 0 l 1,2,-1
 54 0 l 1,3,-1
 54 695 l 1,4,-1
 239 695 l 1,5,-1
 239 582 l 1,6,-1
 295 582 l 2,7,8
 442 582 442 582 514.5 529.5 c 128,-1,9
 587 477 587 477 587 366 c 0,10,11
 587 300 587 300 556.5 256 c 128,-1,12
 526 212 526 212 459 178 c 1,13,-1
 632 -112 l 1,14,-1
 426 -112 l 1,15,-1
 290 144 l 1,0,-1
239 270 m 1,16,-1
 301 270 l 2,17,18
 349 270 349 270 373 293 c 128,-1,19
 397 316 397 316 397 366 c 0,20,21
 397 411 397 411 370.5 432.5 c 128,-1,22
 344 454 344 454 291 454 c 2,23,-1
 239 454 l 1,24,-1
 239 270 l 1,16,-1
EndSplineSet
Substitution2: "'c2sc' Capitals to Small Capitals lookup 26 subtable" uni0280.sc
Substitution2: "'aalt' Access All Alternates lookup 0 subtable" uni0280.sc
Position2: "'cpsp' Capital Spacing lookup 0 subtable" dx=5 dy=0 dh=10 dv=0
EndChar

StartChar: uni024E
Encoding: 590 590 319
Width: 608
GlyphClass: 2
Flags: W
AnchorPoint: "Anchor-18" 0 0 basechar 0
AnchorPoint: "Anchor-17" 0 0 basechar 0
AnchorPoint: "Anchor-16" 304 695 basechar 0
AnchorPoint: "Anchor-15" 0 0 basechar 0
AnchorPoint: "Anchor-14" 304 0 basechar 0
LayerCount: 2
Fore
SplineSet
580 618 m 1,0,-1
 619 618 l 1,1,-1
 619 519 l 1,2,-1
 529 519 l 1,3,-1
 397 259 l 1,4,-1
 397 0 l 1,5,-1
 212 0 l 1,6,-1
 212 258 l 1,7,-1
 79 519 l 1,8,-1
 -10 519 l 1,9,-1
 -10 618 l 1,10,-1
 29 618 l 1,11,-1
 -10 695 l 1,12,-1
 184 695 l 1,13,-1
 214 618 l 1,14,-1
 400 618 l 1,15,-1
 431 695 l 1,16,-1
 619 695 l 1,17,-1
 580 618 l 1,0,-1
307 384 m 1,18,-1
 361 519 l 1,19,-1
 254 519 l 1,20,-1
 307 384 l 1,18,-1
EndSplineSet
Substitution2: "'c2sc' Capitals to Small Capitals lookup 26 subtable" uni024F.sc
Substitution2: "'aalt' Access All Alternates lookup 0 subtable" uni024F.sc
Position2: "'cpsp' Capital Spacing lookup 0 subtable" dx=5 dy=0 dh=10 dv=0
EndChar

StartChar: Z
Encoding: 90 90 321
Width: 550
GlyphClass: 2
Flags: W
AnchorPoint: "Anchor-18" 0 0 basechar 0
AnchorPoint: "Anchor-17" 0 0 basechar 0
AnchorPoint: "Anchor-16" 278 695 basechar 0
AnchorPoint: "Anchor-15" 0 0 basechar 0
AnchorPoint: "Anchor-14" 266 0 basechar 0
LayerCount: 2
Fore
SplineSet
522 695 m 1,0,-1
 522 556 l 1,1,-1
 233 146 l 1,2,-1
 530 146 l 1,3,-1
 511 0 l 1,4,-1
 14 0 l 1,5,-1
 14 137 l 1,6,-1
 311 553 l 1,7,-1
 43 553 l 1,8,-1
 43 695 l 1,9,-1
 522 695 l 1,0,-1
EndSplineSet
Substitution2: "'c2sc' Capitals to Small Capitals lookup 26 subtable" z.sc
Substitution2: "'aalt' Access All Alternates lookup 0 subtable" z.sc
Position2: "'cpsp' Capital Spacing lookup 0 subtable" dx=5 dy=0 dh=10 dv=0
EndChar

StartChar: uni0224
Encoding: 548 548 327
Width: 543
GlyphClass: 2
Flags: W
AnchorPoint: "Anchor-18" 0 0 basechar 0
AnchorPoint: "Anchor-17" 0 0 basechar 0
AnchorPoint: "Anchor-16" 272 695 basechar 0
AnchorPoint: "Anchor-15" 0 0 basechar 0
AnchorPoint: "Anchor-14" 272 -213 basechar 0
LayerCount: 2
Fore
SplineSet
522 556 m 1,0,-1
 233 146 l 1,1,-1
 521 146 l 1,2,-1
 521 -24 l 2,3,4
 521 -122 521 -122 463 -173 c 128,-1,5
 405 -224 405 -224 305 -224 c 0,6,7
 217 -224 217 -224 156 -181 c 1,8,-1
 215 -72 l 1,9,10
 237 -83 237 -83 251.5 -87.5 c 128,-1,11
 266 -92 266 -92 289 -92 c 0,12,13
 345 -92 345 -92 345 -35 c 2,14,-1
 345 0 l 1,15,-1
 14 0 l 1,16,-1
 14 137 l 1,17,-1
 311 553 l 1,18,-1
 43 553 l 1,19,-1
 43 695 l 1,20,-1
 522 695 l 1,21,-1
 522 556 l 1,0,-1
EndSplineSet
Substitution2: "'c2sc' Capitals to Small Capitals lookup 26 subtable" uni0225.sc
Substitution2: "'aalt' Access All Alternates lookup 0 subtable" uni0225.sc
Position2: "'cpsp' Capital Spacing lookup 0 subtable" dx=5 dy=0 dh=10 dv=0
EndChar

StartChar: uni01B5
Encoding: 437 437 328
Width: 550
GlyphClass: 2
Flags: W
AnchorPoint: "Anchor-18" 0 0 basechar 0
AnchorPoint: "Anchor-17" 0 0 basechar 0
AnchorPoint: "Anchor-16" 275 695 basechar 0
AnchorPoint: "Anchor-15" 0 0 basechar 0
AnchorPoint: "Anchor-14" 275 0 basechar 0
LayerCount: 2
Fore
SplineSet
216 146 m 1,0,-1
 530 146 l 1,1,-1
 511 0 l 1,2,-1
 14 0 l 1,3,-1
 14 129 l 1,4,-1
 134 291 l 1,5,-1
 56 291 l 1,6,-1
 56 404 l 1,7,-1
 218 404 l 1,8,-1
 328 553 l 1,9,-1
 43 553 l 1,10,-1
 43 695 l 1,11,-1
 522 695 l 1,12,-1
 522 564 l 1,13,-1
 405 404 l 1,14,-1
 478 404 l 1,15,-1
 478 291 l 1,16,-1
 322 291 l 1,17,-1
 216 146 l 1,0,-1
EndSplineSet
Substitution2: "'c2sc' Capitals to Small Capitals lookup 26 subtable" uni01B6.sc
Substitution2: "'aalt' Access All Alternates lookup 0 subtable" uni01B6.sc
Position2: "'cpsp' Capital Spacing lookup 0 subtable" dx=5 dy=0 dh=10 dv=0
EndChar

StartChar: uni0262
Encoding: 610 610 330
Width: 560
GlyphClass: 2
Flags: W
AnchorPoint: "Anchor-18" 0 0 basechar 0
AnchorPoint: "Anchor-17" 0 0 basechar 0
AnchorPoint: "Anchor-16" 307 533 basechar 0
AnchorPoint: "Anchor-15" 0 0 basechar 0
AnchorPoint: "Anchor-14" 288 0 basechar 0
LayerCount: 2
Fore
SplineSet
427.5 531.5 m 128,-1,1
 479 512 479 512 522 476 c 1,2,-1
 438 385 l 1,3,4
 407 406 407 406 379 416.5 c 128,-1,5
 351 427 351 427 319 427 c 0,6,7
 265 427 265 427 236.5 386 c 128,-1,8
 208 345 208 345 208 268 c 0,9,10
 208 178 208 178 230.5 142.5 c 128,-1,11
 253 107 253 107 298 107 c 0,12,13
 333 107 333 107 363 119 c 1,14,-1
 363 202 l 1,15,-1
 302 202 l 1,16,-1
 286 316 l 1,17,-1
 528 316 l 1,18,-1
 528 50 l 1,19,20
 480 20 480 20 420.5 1.5 c 128,-1,21
 361 -17 361 -17 296 -17 c 0,22,23
 159 -17 159 -17 92 54 c 128,-1,24
 25 125 25 125 25 269 c 0,25,26
 25 354 25 354 61.5 418 c 128,-1,27
 98 482 98 482 162 516.5 c 128,-1,28
 226 551 226 551 307 551 c 0,29,0
 376 551 376 551 427.5 531.5 c 128,-1,1
EndSplineSet
EndChar

StartChar: uni029B
Encoding: 667 667 331
Width: 560
GlyphClass: 2
Flags: W
AnchorPoint: "Anchor-18" 0 0 basechar 0
AnchorPoint: "Anchor-17" 0 0 basechar 0
AnchorPoint: "Anchor-16" 280 743 basechar 0
AnchorPoint: "Anchor-15" 0 0 basechar 0
AnchorPoint: "Anchor-14" 297 0 basechar 0
LayerCount: 2
Fore
SplineSet
683 724 m 1,1,-1
 635 614 l 1,2,3
 601 632 601 632 569 632 c 0,4,5
 545 632 545 632 533.5 618 c 128,-1,6
 522 604 522 604 522 574 c 2,7,-1
 522 476 l 1,8,-1
 447 395 l 1,9,10
 412 412 412 412 385 419.5 c 128,-1,11
 358 427 358 427 321 427 c 0,12,13
 265 427 265 427 236.5 386 c 128,-1,14
 208 345 208 345 208 268 c 0,15,16
 208 178 208 178 230.5 142.5 c 128,-1,17
 253 107 253 107 298 107 c 0,18,19
 333 107 333 107 363 119 c 1,20,-1
 363 202 l 1,21,-1
 302 202 l 1,22,-1
 286 316 l 1,23,-1
 528 316 l 1,24,-1
 528 50 l 1,25,26
 484 19 484 19 425 1 c 128,-1,27
 366 -17 366 -17 298 -17 c 0,28,29
 25 -17 25 -17 25 269 c 0,30,31
 25 354 25 354 60.5 418 c 128,-1,32
 96 482 96 482 156.5 516.5 c 128,-1,33
 217 551 217 551 289 551 c 0,34,35
 334 551 334 551 368 539 c 1,36,-1
 368 587 l 2,37,38
 368 671 368 671 411.5 716 c 128,-1,39
 455 761 455 761 543 761 c 0,40,0
 624 761 624 761 683 724 c 1,1,-1
EndSplineSet
EndChar

StartChar: uni026A
Encoding: 618 618 333
Width: 339
GlyphClass: 2
Flags: W
AnchorPoint: "Anchor-18" 0 0 basechar 0
AnchorPoint: "Anchor-17" 0 0 basechar 0
AnchorPoint: "Anchor-16" 169 533 basechar 0
AnchorPoint: "Anchor-15" 0 0 basechar 0
AnchorPoint: "Anchor-14" 169 0 basechar 0
LayerCount: 2
Fore
SplineSet
326 407 m 1,0,-1
 258 407 l 1,1,-1
 258 127 l 1,2,-1
 326 127 l 1,3,-1
 326 0 l 1,4,-1
 13 0 l 1,5,-1
 13 127 l 1,6,-1
 80 127 l 1,7,-1
 80 407 l 1,8,-1
 13 407 l 1,9,-1
 13 533 l 1,10,-1
 326 533 l 1,11,-1
 326 407 l 1,0,-1
EndSplineSet
EndChar

StartChar: uni029F
Encoding: 671 671 334
Width: 455
GlyphClass: 2
Flags: W
AnchorPoint: "Anchor-18" 0 0 basechar 0
AnchorPoint: "Anchor-17" 0 0 basechar 0
AnchorPoint: "Anchor-16" 141 533 basechar 0
AnchorPoint: "Anchor-15" 0 0 basechar 0
AnchorPoint: "Anchor-14" 234 0 basechar 0
LayerCount: 2
Fore
SplineSet
230 533 m 1,0,-1
 230 135 l 1,1,-1
 448 135 l 1,2,-1
 429 0 l 1,3,-1
 52 0 l 1,4,-1
 52 533 l 1,5,-1
 230 533 l 1,0,-1
EndSplineSet
EndChar

StartChar: uni0274
Encoding: 628 628 335
Width: 585
GlyphClass: 2
Flags: W
AnchorPoint: "Anchor-18" 0 0 basechar 0
AnchorPoint: "Anchor-17" 0 0 basechar 0
AnchorPoint: "Anchor-16" 293 533 basechar 0
AnchorPoint: "Anchor-15" 0 0 basechar 0
AnchorPoint: "Anchor-14" 293 0 basechar 0
LayerCount: 2
Fore
SplineSet
533 0 m 1,0,-1
 322 0 l 1,1,-1
 181 381 l 1,2,3
 194 318 194 318 201 261 c 128,-1,4
 208 204 208 204 208 133 c 2,5,-1
 208 0 l 1,6,-1
 52 0 l 1,7,-1
 52 533 l 1,8,-1
 261 533 l 1,9,-1
 404 152 l 1,10,11
 389 232 389 232 383 276.5 c 128,-1,12
 377 321 377 321 377 392 c 2,13,-1
 377 533 l 1,14,-1
 533 533 l 1,15,-1
 533 0 l 1,0,-1
EndSplineSet
EndChar

StartChar: uni0276
Encoding: 630 630 336
Width: 772
GlyphClass: 2
Flags: W
AnchorPoint: "Anchor-18" 0 0 basechar 0
AnchorPoint: "Anchor-17" 0 0 basechar 0
AnchorPoint: "Anchor-16" 417 533 basechar 0
AnchorPoint: "Anchor-15" 0 0 basechar 0
AnchorPoint: "Anchor-14" 417 0 basechar 0
LayerCount: 2
Fore
SplineSet
506 121 m 1,1,-1
 749 121 l 1,2,-1
 749 0 l 1,3,-1
 394 0 l 1,4,5
 346 -18 346 -18 292 -18 c 0,6,7
 167 -18 167 -18 96 57 c 128,-1,8
 25 132 25 132 25 267 c 0,9,10
 25 353 25 353 57 417 c 128,-1,11
 89 481 89 481 149.5 516 c 128,-1,12
 210 551 210 551 292 551 c 0,13,14
 340 551 340 551 396 533 c 1,15,-1
 754 533 l 1,16,-1
 736 412 l 1,17,-1
 508 412 l 1,18,19
 534 373 534 373 546 328 c 1,20,-1
 711 328 l 1,21,-1
 711 211 l 1,22,-1
 547 211 l 1,23,0
 535 159 535 159 506 121 c 1,1,-1
354.5 148 m 128,-1,25
 375 185 375 185 375 267 c 256,26,27
 375 349 375 349 354.5 385.5 c 128,-1,28
 334 422 334 422 292 422 c 0,29,30
 249 422 249 422 228.5 384.5 c 128,-1,31
 208 347 208 347 208 267 c 0,32,33
 208 184 208 184 228.5 147.5 c 128,-1,34
 249 111 249 111 292 111 c 0,35,24
 334 111 334 111 354.5 148 c 128,-1,25
EndSplineSet
EndChar

StartChar: uni0280
Encoding: 640 640 337
Width: 531
GlyphClass: 2
Flags: W
AnchorPoint: "Anchor-18" 0 0 basechar 0
AnchorPoint: "Anchor-17" 0 0 basechar 0
AnchorPoint: "Anchor-16" 272 533 basechar 0
AnchorPoint: "Anchor-15" 0 0 basechar 0
AnchorPoint: "Anchor-14" 272 0 basechar 0
LayerCount: 2
Fore
SplineSet
256 178 m 1,0,-1
 222 178 l 1,1,-1
 222 0 l 1,2,-1
 52 0 l 1,3,-1
 52 533 l 1,4,-1
 257 533 l 2,5,6
 495 533 495 533 495 353 c 0,7,8
 495 303 495 303 474 264.5 c 128,-1,9
 453 226 453 226 410 203 c 1,10,-1
 537 0 l 1,11,-1
 351 0 l 1,12,-1
 256 178 l 1,0,-1
222 281 m 1,13,-1
 255 281 l 2,14,15
 291 281 291 281 307.5 297 c 128,-1,16
 324 313 324 313 324 354 c 0,17,18
 324 393 324 393 307 407.5 c 128,-1,19
 290 422 290 422 253 422 c 2,20,-1
 222 422 l 1,21,-1
 222 281 l 1,13,-1
EndSplineSet
Substitution2: "'smcp' Lowercase to Small Capitals lookup 27 subtable" uni0280.sc
Substitution2: "'aalt' Access All Alternates lookup 0 subtable" uni0280.sc
EndChar

StartChar: uni0281
Encoding: 641 641 338
Width: 531
GlyphClass: 2
Flags: W
AnchorPoint: "Anchor-18" 0 0 basechar 0
AnchorPoint: "Anchor-17" 0 0 basechar 0
AnchorPoint: "Anchor-16" 272 533 basechar 0
AnchorPoint: "Anchor-15" 0 0 basechar 0
AnchorPoint: "Anchor-14" 272 0 basechar 0
LayerCount: 2
Fore
SplineSet
474 270 m 128,-1,1
 495 232 495 232 495 183 c 0,2,3
 495 0 495 0 257 0 c 2,4,-1
 52 0 l 1,5,-1
 52 533 l 1,6,-1
 222 533 l 1,7,-1
 222 355 l 1,8,-1
 256 355 l 1,9,-1
 351 533 l 1,10,-1
 537 533 l 1,11,-1
 411 330 l 1,12,0
 453 308 453 308 474 270 c 128,-1,1
307 126 m 128,-1,14
 324 141 324 141 324 182 c 0,15,16
 324 221 324 221 307.5 236.5 c 128,-1,17
 291 252 291 252 255 252 c 2,18,-1
 222 252 l 1,19,-1
 222 111 l 1,20,-1
 253 111 l 2,21,13
 290 111 290 111 307 126 c 128,-1,14
EndSplineSet
EndChar

StartChar: uni028F
Encoding: 655 655 339
Width: 510
GlyphClass: 2
Flags: W
AnchorPoint: "Anchor-18" 0 0 basechar 0
AnchorPoint: "Anchor-17" 0 0 basechar 0
AnchorPoint: "Anchor-16" 255 533 basechar 0
AnchorPoint: "Anchor-15" 0 0 basechar 0
AnchorPoint: "Anchor-14" 255 0 basechar 0
LayerCount: 2
Fore
SplineSet
526 533 m 1,0,-1
 344 191 l 1,1,-1
 344 0 l 1,2,-1
 166 0 l 1,3,-1
 166 190 l 1,4,-1
 -16 533 l 1,5,-1
 173 533 l 1,6,-1
 258 302 l 1,7,-1
 342 533 l 1,8,-1
 526 533 l 1,0,-1
EndSplineSet
EndChar

StartChar: a
Encoding: 97 97 340
Width: 550
GlyphClass: 2
Flags: W
AnchorPoint: "Anchor-18" 0 0 basechar 0
AnchorPoint: "Anchor-17" 0 0 basechar 0
AnchorPoint: "Anchor-16" 274 533 basechar 0
AnchorPoint: "Anchor-15" 502 -15 basechar 0
AnchorPoint: "Anchor-14" 274 0 basechar 0
LayerCount: 2
Fore
SplineSet
501.5 121 m 128,-1,1
 509 107 509 107 528 100 c 1,2,-1
 492 -15 l 1,3,4
 441 -11 441 -11 408.5 6 c 128,-1,5
 376 23 376 23 356 60 c 1,6,7
 305 -18 305 -18 195 -18 c 0,8,9
 116 -18 116 -18 68.5 28.5 c 128,-1,10
 21 75 21 75 21 149 c 0,11,12
 21 237 21 237 86 284 c 128,-1,13
 151 331 151 331 274 331 c 2,14,-1
 320 331 l 1,15,-1
 320 349 l 2,16,17
 320 392 320 392 302 407.5 c 128,-1,18
 284 423 284 423 237 423 c 0,19,20
 212 423 212 423 174.5 415.5 c 128,-1,21
 137 408 137 408 98 395 c 1,22,-1
 59 510 l 1,23,24
 107 530 107 530 162 540.5 c 128,-1,25
 217 551 217 551 264 551 c 0,26,27
 384 551 384 551 439 503.5 c 128,-1,28
 494 456 494 456 494 358 c 2,29,-1
 494 164 l 2,30,0
 494 135 494 135 501.5 121 c 128,-1,1
289.5 118.5 m 128,-1,32
 308 130 308 130 320 150 c 1,33,-1
 320 236 l 1,34,-1
 290 236 l 2,35,36
 242 236 242 236 219 218.5 c 128,-1,37
 196 201 196 201 196 166 c 0,38,39
 196 139 196 139 210 123 c 128,-1,40
 224 107 224 107 249 107 c 0,41,31
 271 107 271 107 289.5 118.5 c 128,-1,32
EndSplineSet
Substitution2: "Single Substitution lookup 45 subtable" ordfeminine
Substitution2: "'ss04' Style Set 4 lookup 36 subtable" a.ss04
Substitution2: "'salt' Stylistic Alternatives lookup 32 subtable" a.ss04
Substitution2: "'smcp' Lowercase to Small Capitals lookup 27 subtable" a.sc
AlternateSubs2: "'aalt' Access All Alternates lookup 1 subtable" ordfeminine a.sc a.ss04
EndChar

StartChar: a.ss04
Encoding: 65547 -1 341
Width: 597
GlyphClass: 2
Flags: W
AnchorPoint: "Anchor-18" 0 0 basechar 0
AnchorPoint: "Anchor-17" 0 0 basechar 0
AnchorPoint: "Anchor-16" 298 533 basechar 0
AnchorPoint: "Anchor-15" 0 0 basechar 0
AnchorPoint: "Anchor-14" 298 0 basechar 0
LayerCount: 2
Fore
SplineSet
549 138.5 m 128,-1,1
 558 121 558 121 582 109 c 1,2,-1
 531 -18 l 1,3,4
 475 -10 475 -10 440.5 9.5 c 128,-1,5
 406 29 406 29 386 62 c 1,6,7
 358 25 358 25 318 3.5 c 128,-1,8
 278 -18 278 -18 230 -18 c 0,9,10
 130 -18 130 -18 77.5 58.5 c 128,-1,11
 25 135 25 135 25 268 c 0,12,13
 25 351 25 351 52 415 c 128,-1,14
 79 479 79 479 129.5 515 c 128,-1,15
 180 551 180 551 248 551 c 0,16,17
 327 551 327 551 376 491 c 1,18,-1
 385 533 l 1,19,-1
 540 533 l 1,20,-1
 540 190 l 2,21,0
 540 156 540 156 549 138.5 c 128,-1,1
362 163 m 1,23,-1
 362 385 l 1,24,25
 345 404 345 404 328 413.5 c 128,-1,26
 311 423 311 423 290 423 c 0,27,28
 208 423 208 423 208 267 c 0,29,30
 208 177 208 177 227.5 143.5 c 128,-1,31
 247 110 247 110 282 110 c 0,32,22
 330 110 330 110 362 163 c 1,23,-1
EndSplineSet
EndChar

StartChar: uni0251
Encoding: 593 593 365
Width: 597
GlyphClass: 2
Flags: W
AnchorPoint: "Anchor-18" 0 0 basechar 0
AnchorPoint: "Anchor-17" 0 0 basechar 0
AnchorPoint: "Anchor-16" 298 533 basechar 0
AnchorPoint: "Anchor-15" 0 0 basechar 0
AnchorPoint: "Anchor-14" 298 0 basechar 0
LayerCount: 2
Fore
SplineSet
549 138.5 m 128,-1,1
 558 121 558 121 582 109 c 1,2,-1
 531 -18 l 1,3,4
 475 -10 475 -10 440.5 9.5 c 128,-1,5
 406 29 406 29 386 62 c 1,6,7
 358 25 358 25 318 3.5 c 128,-1,8
 278 -18 278 -18 230 -18 c 0,9,10
 130 -18 130 -18 77.5 58.5 c 128,-1,11
 25 135 25 135 25 268 c 0,12,13
 25 351 25 351 52 415 c 128,-1,14
 79 479 79 479 129.5 515 c 128,-1,15
 180 551 180 551 248 551 c 0,16,17
 327 551 327 551 376 491 c 1,18,-1
 385 533 l 1,19,-1
 540 533 l 1,20,-1
 540 190 l 2,21,0
 540 156 540 156 549 138.5 c 128,-1,1
362 163 m 1,23,-1
 362 385 l 1,24,25
 345 404 345 404 328 413.5 c 128,-1,26
 311 423 311 423 290 423 c 0,27,28
 208 423 208 423 208 267 c 0,29,30
 208 177 208 177 227.5 143.5 c 128,-1,31
 247 110 247 110 282 110 c 0,32,22
 330 110 330 110 362 163 c 1,23,-1
EndSplineSet
Substitution2: "'smcp' Lowercase to Small Capitals lookup 27 subtable" uni0251.sc
Substitution2: "'aalt' Access All Alternates lookup 0 subtable" uni0251.sc
EndChar

StartChar: uni0252
Encoding: 594 594 366
Width: 597
GlyphClass: 2
Flags: W
AnchorPoint: "Anchor-18" 0 0 basechar 0
AnchorPoint: "Anchor-17" 0 0 basechar 0
AnchorPoint: "Anchor-16" 298 533 basechar 0
AnchorPoint: "Anchor-15" 0 0 basechar 0
AnchorPoint: "Anchor-14" 298 0 basechar 0
LayerCount: 2
Fore
SplineSet
519.5 474.5 m 128,-1,1
 572 398 572 398 572 265 c 0,2,3
 572 182 572 182 545 118 c 128,-1,4
 518 54 518 54 467.5 18 c 128,-1,5
 417 -18 417 -18 349 -18 c 0,6,7
 271 -18 271 -18 221 42 c 1,8,-1
 212 0 l 1,9,-1
 57 0 l 1,10,-1
 57 343 l 2,11,12
 57 377 57 377 48 394.5 c 128,-1,13
 39 412 39 412 15 424 c 1,14,-1
 66 551 l 1,15,16
 122 543 122 543 156.5 523.5 c 128,-1,17
 191 504 191 504 211 471 c 1,18,19
 239 508 239 508 279 529.5 c 128,-1,20
 319 551 319 551 367 551 c 0,21,0
 467 551 467 551 519.5 474.5 c 128,-1,1
389 266 m 0,23,24
 389 356 389 356 369.5 389.5 c 128,-1,25
 350 423 350 423 315 423 c 0,26,27
 267 423 267 423 235 370 c 1,28,-1
 235 148 l 1,29,30
 252 129 252 129 269 119.5 c 128,-1,31
 286 110 286 110 307 110 c 0,32,22
 389 110 389 110 389 266 c 0,23,24
EndSplineSet
EndChar

StartChar: aogonek
Encoding: 261 261 368
Width: 550
GlyphClass: 2
Flags: W
AnchorPoint: "Anchor-18" 0 0 basechar 0
AnchorPoint: "Anchor-17" 0 0 basechar 0
AnchorPoint: "Anchor-16" 274 533 basechar 0
AnchorPoint: "Anchor-15" 502 -15 basechar 0
AnchorPoint: "Anchor-14" 274 0 basechar 0
LayerCount: 2
Fore
SplineSet
376 -114 m 0,1,2
 376 -158 376 -158 428 -158 c 0,3,4
 457 -158 457 -158 489 -151 c 1,5,-1
 477 -257 l 1,6,7
 443 -265 443 -265 405 -265 c 0,8,9
 338 -265 338 -265 295 -232 c 128,-1,10
 252 -199 252 -199 252 -144 c 0,11,12
 252 -88 252 -88 288.5 -49 c 128,-1,13
 325 -10 325 -10 391 17 c 1,14,15
 369 34 369 34 356 60 c 1,16,17
 305 -18 305 -18 195 -18 c 0,18,19
 116 -18 116 -18 68.5 28.5 c 128,-1,20
 21 75 21 75 21 149 c 0,21,22
 21 237 21 237 86 284 c 128,-1,23
 151 331 151 331 274 331 c 2,24,-1
 320 331 l 1,25,-1
 320 349 l 2,26,27
 320 392 320 392 302 407.5 c 128,-1,28
 284 423 284 423 237 423 c 0,29,30
 212 423 212 423 174.5 415.5 c 128,-1,31
 137 408 137 408 98 395 c 1,32,-1
 59 510 l 1,33,34
 107 530 107 530 162 540.5 c 128,-1,35
 217 551 217 551 264 551 c 0,36,37
 384 551 384 551 439 503.5 c 128,-1,38
 494 456 494 456 494 358 c 2,39,-1
 494 164 l 2,40,41
 494 135 494 135 501.5 121 c 128,-1,42
 509 107 509 107 528 100 c 1,43,-1
 492 -15 l 1,44,0
 376 -56 376 -56 376 -114 c 0,1,2
289.5 118.5 m 128,-1,46
 308 130 308 130 320 150 c 1,47,-1
 320 236 l 1,48,-1
 290 236 l 2,49,50
 242 236 242 236 219 218.5 c 128,-1,51
 196 201 196 201 196 166 c 0,52,53
 196 139 196 139 210 123 c 128,-1,54
 224 107 224 107 249 107 c 0,55,45
 271 107 271 107 289.5 118.5 c 128,-1,46
EndSplineSet
Substitution2: "'smcp' Lowercase to Small Capitals lookup 27 subtable" aogonek.sc
Substitution2: "'aalt' Access All Alternates lookup 0 subtable" aogonek.sc
EndChar

StartChar: aringacute
Encoding: 507 507 370
Width: 550
GlyphClass: 2
Flags: W
AnchorPoint: "Anchor-18" 0 0 basechar 0
AnchorPoint: "Anchor-17" 0 0 basechar 0
AnchorPoint: "Anchor-16" 276 1076 basechar 0
AnchorPoint: "Anchor-15" 502 -15 basechar 0
AnchorPoint: "Anchor-14" 274 0 basechar 0
LayerCount: 2
Fore
SplineSet
420 945 m 1,0,-1
 173 856 l 1,1,-1
 128 946 l 1,2,-1
 356 1076 l 1,3,-1
 420 945 l 1,0,-1
195 594 m 128,-1,5
 162 613 162 613 144 645 c 128,-1,6
 126 677 126 677 126 714 c 0,7,8
 126 772 126 772 166 812.5 c 128,-1,9
 206 853 206 853 272 853 c 0,10,11
 339 853 339 853 379 812.5 c 128,-1,12
 419 772 419 772 419 714 c 0,13,14
 419 677 419 677 401 645 c 128,-1,15
 383 613 383 613 350 594 c 128,-1,16
 317 575 317 575 272 575 c 0,17,4
 228 575 228 575 195 594 c 128,-1,5
241.5 750 m 128,-1,19
 230 738 230 738 230 714 c 0,20,21
 230 691 230 691 241.5 678.5 c 128,-1,22
 253 666 253 666 272 666 c 256,23,24
 291 666 291 666 303 678.5 c 128,-1,25
 315 691 315 691 315 714 c 0,26,27
 315 738 315 738 303.5 750 c 128,-1,28
 292 762 292 762 272 762 c 0,29,18
 253 762 253 762 241.5 750 c 128,-1,19
501.5 121 m 128,-1,31
 509 107 509 107 528 100 c 1,32,-1
 492 -15 l 1,33,34
 441 -11 441 -11 408.5 6 c 128,-1,35
 376 23 376 23 356 60 c 1,36,37
 305 -18 305 -18 195 -18 c 0,38,39
 116 -18 116 -18 68.5 28.5 c 128,-1,40
 21 75 21 75 21 149 c 0,41,42
 21 237 21 237 86 284 c 128,-1,43
 151 331 151 331 274 331 c 2,44,-1
 320 331 l 1,45,-1
 320 349 l 2,46,47
 320 392 320 392 302 407.5 c 128,-1,48
 284 423 284 423 237 423 c 0,49,50
 212 423 212 423 174.5 415.5 c 128,-1,51
 137 408 137 408 98 395 c 1,52,-1
 59 510 l 1,53,54
 107 530 107 530 162 540.5 c 128,-1,55
 217 551 217 551 264 551 c 0,56,57
 384 551 384 551 439 503.5 c 128,-1,58
 494 456 494 456 494 358 c 2,59,-1
 494 164 l 2,60,30
 494 135 494 135 501.5 121 c 128,-1,31
289.5 118.5 m 128,-1,62
 308 130 308 130 320 150 c 1,63,-1
 320 236 l 1,64,-1
 290 236 l 2,65,66
 242 236 242 236 219 218.5 c 128,-1,67
 196 201 196 201 196 166 c 0,68,69
 196 139 196 139 210 123 c 128,-1,70
 224 107 224 107 249 107 c 0,71,61
 271 107 271 107 289.5 118.5 c 128,-1,62
EndSplineSet
Substitution2: "'smcp' Lowercase to Small Capitals lookup 27 subtable" aringacute.sc
Substitution2: "'aalt' Access All Alternates lookup 0 subtable" aringacute.sc
EndChar

StartChar: uni2C65
Encoding: 11365 11365 371
Width: 550
GlyphClass: 2
Flags: W
AnchorPoint: "Anchor-18" 0 0 basechar 0
AnchorPoint: "Anchor-17" 0 0 basechar 0
AnchorPoint: "Anchor-16" 275 533 basechar 0
AnchorPoint: "Anchor-15" 0 0 basechar 0
AnchorPoint: "Anchor-14" 275 0 basechar 0
LayerCount: 2
Fore
SplineSet
501.5 121 m 128,-1,1
 509 107 509 107 528 100 c 1,2,-1
 492 -15 l 1,3,4
 441 -11 441 -11 408.5 6 c 128,-1,5
 376 23 376 23 356 60 c 1,6,7
 313 -5 313 -5 233 -15 c 1,8,-1
 218 -76 l 1,9,-1
 162 -63 l 1,10,-1
 173 -17 l 1,11,12
 104 -10 104 -10 62.5 35 c 128,-1,13
 21 80 21 80 21 149 c 0,14,15
 21 228 21 228 81.5 273.5 c 128,-1,16
 142 319 142 319 255 323 c 1,17,-1
 282 435 l 1,18,19
 275 436 275 436 261 436 c 0,20,21
 228 436 228 436 182 428.5 c 128,-1,22
 136 421 136 421 98 408 c 1,23,-1
 59 510 l 1,24,25
 107 530 107 530 162 540.5 c 128,-1,26
 217 551 217 551 264 551 c 0,27,28
 281 551 281 551 309 549 c 1,29,-1
 322 602 l 1,30,-1
 378 590 l 1,31,-1
 366 540 l 1,32,33
 432 522 432 522 463 477 c 128,-1,34
 494 432 494 432 494 358 c 2,35,-1
 494 164 l 2,36,0
 494 135 494 135 501.5 121 c 128,-1,1
335 409 m 1,38,-1
 314 323 l 1,39,-1
 344 323 l 1,40,-1
 344 361 l 2,41,37
 344 393 344 393 335 409 c 1,38,-1
344 147 m 1,43,-1
 344 236 l 1,44,-1
 293 236 l 1,45,-1
 260 101 l 1,46,42
 305 108 305 108 344 147 c 1,43,-1
203 108 m 1,48,-1
 233 231 l 1,49,50
 180 218 180 218 180 162 c 0,51,47
 180 122 180 122 203 108 c 1,48,-1
EndSplineSet
Substitution2: "'smcp' Lowercase to Small Capitals lookup 27 subtable" uni2C65.sc
Substitution2: "'aalt' Access All Alternates lookup 0 subtable" uni2C65.sc
EndChar

StartChar: uni0250
Encoding: 592 592 373
Width: 550
GlyphClass: 2
Flags: W
AnchorPoint: "Anchor-18" 0 0 basechar 0
AnchorPoint: "Anchor-17" 0 0 basechar 0
AnchorPoint: "Anchor-16" 275 533 basechar 0
AnchorPoint: "Anchor-15" 48 548 basechar 0
AnchorPoint: "Anchor-14" 275 0 basechar 0
LayerCount: 2
Fore
SplineSet
375.5 117.5 m 128,-1,1
 413 125 413 125 452 138 c 1,2,-1
 491 23 l 1,3,4
 443 3 443 3 388 -7.5 c 128,-1,5
 333 -18 333 -18 286 -18 c 0,6,7
 166 -18 166 -18 111 29.5 c 128,-1,8
 56 77 56 77 56 175 c 2,9,-1
 56 369 l 2,10,11
 56 398 56 398 48.5 412 c 128,-1,12
 41 426 41 426 22 433 c 1,13,-1
 58 548 l 1,14,15
 109 544 109 544 141.5 527 c 128,-1,16
 174 510 174 510 194 473 c 1,17,18
 245 551 245 551 355 551 c 0,19,20
 434 551 434 551 481.5 504.5 c 128,-1,21
 529 458 529 458 529 384 c 0,22,23
 529 296 529 296 464 249 c 128,-1,24
 399 202 399 202 276 202 c 2,25,-1
 230 202 l 1,26,-1
 230 184 l 2,27,28
 230 141 230 141 248 125.5 c 128,-1,29
 266 110 266 110 313 110 c 0,30,0
 338 110 338 110 375.5 117.5 c 128,-1,1
260.5 414.5 m 128,-1,32
 242 403 242 403 230 383 c 1,33,-1
 230 297 l 1,34,-1
 260 297 l 2,35,36
 308 297 308 297 331 314.5 c 128,-1,37
 354 332 354 332 354 367 c 0,38,39
 354 394 354 394 340 410 c 128,-1,40
 326 426 326 426 301 426 c 0,41,31
 279 426 279 426 260.5 414.5 c 128,-1,32
EndSplineSet
EndChar

StartChar: ae
Encoding: 230 230 374
Width: 857
GlyphClass: 2
Flags: W
AnchorPoint: "Anchor-18" 0 0 basechar 0
AnchorPoint: "Anchor-17" 0 0 basechar 0
AnchorPoint: "Anchor-16" 429 533 basechar 0
AnchorPoint: "Anchor-15" 0 0 basechar 0
AnchorPoint: "Anchor-14" 417 0 basechar 0
LayerCount: 2
Fore
SplineSet
834 215 m 1,1,-1
 508 215 l 1,2,3
 515 154 515 154 543 131.5 c 128,-1,4
 571 109 571 109 621 109 c 0,5,6
 651 109 651 109 680.5 120.5 c 128,-1,7
 710 132 710 132 745 156 c 1,8,-1
 818 58 l 1,9,10
 724 -18 724 -18 605 -18 c 0,11,12
 533 -18 533 -18 478 5.5 c 128,-1,13
 423 29 423 29 387 71 c 1,14,15
 325 -18 325 -18 199 -18 c 0,16,17
 117 -18 117 -18 69 28 c 128,-1,18
 21 74 21 74 21 149 c 0,19,20
 21 237 21 237 87 284 c 128,-1,21
 153 331 153 331 281 331 c 2,22,-1
 327 331 l 1,23,-1
 327 347 l 2,24,25
 327 390 327 390 308.5 406 c 128,-1,26
 290 422 290 422 244 422 c 0,27,28
 219 422 219 422 181.5 414.5 c 128,-1,29
 144 407 144 407 105 394 c 1,30,-1
 66 510 l 1,31,32
 114 530 114 530 169 540.5 c 128,-1,33
 224 551 224 551 271 551 c 0,34,35
 382 551 382 551 435 487 c 1,36,37
 499 551 499 551 598 551 c 0,38,39
 668 551 668 551 722.5 518.5 c 128,-1,40
 777 486 777 486 807.5 423.5 c 128,-1,41
 838 361 838 361 838 275 c 0,42,0
 838 251 838 251 834 215 c 1,1,-1
662 325 m 2,43,44
 661 378 661 378 644.5 407 c 128,-1,45
 628 436 628 436 588 436 c 0,46,47
 551 436 551 436 531.5 409.5 c 128,-1,48
 512 383 512 383 507 319 c 1,49,-1
 662 319 l 1,50,-1
 662 325 l 2,43,44
301 121 m 128,-1,52
 320 135 320 135 340 163 c 1,53,54
 332 191 332 191 330 227 c 2,55,-1
 330 232 l 1,56,-1
 298 232 l 2,57,58
 252 232 252 232 229.5 215.5 c 128,-1,59
 207 199 207 199 207 163 c 0,60,61
 207 137 207 137 220.5 122 c 128,-1,62
 234 107 234 107 258 107 c 256,63,51
 282 107 282 107 301 121 c 128,-1,52
EndSplineSet
Substitution2: "'smcp' Lowercase to Small Capitals lookup 27 subtable" ae.sc
Substitution2: "'aalt' Access All Alternates lookup 0 subtable" ae.sc
EndChar

StartChar: b
Encoding: 98 98 377
Width: 598
GlyphClass: 2
Flags: W
AnchorPoint: "Anchor-18" 0 0 basechar 0
AnchorPoint: "Anchor-17" 0 0 basechar 0
AnchorPoint: "Anchor-16" 320 743 basechar 0
AnchorPoint: "Anchor-15" 0 0 basechar 0
AnchorPoint: "Anchor-14" 308 0 basechar 0
LayerCount: 2
Fore
SplineSet
518 476 m 128,-1,1
 569 401 569 401 569 266 c 0,2,3
 569 184 569 184 543.5 119.5 c 128,-1,4
 518 55 518 55 470 18.5 c 128,-1,5
 422 -18 422 -18 356 -18 c 0,6,7
 312 -18 312 -18 276.5 -0.5 c 128,-1,8
 241 17 241 17 217 49 c 1,9,-1
 210 0 l 1,10,-1
 52 0 l 1,11,-1
 52 743 l 1,12,-1
 230 761 l 1,13,-1
 230 481 l 1,14,15
 253 513 253 513 291 532 c 128,-1,16
 329 551 329 551 372 551 c 0,17,0
 467 551 467 551 518 476 c 128,-1,1
363.5 146 m 128,-1,19
 385 182 385 182 385 266 c 0,20,21
 385 356 385 356 365.5 389 c 128,-1,22
 346 422 346 422 310 422 c 0,23,24
 263 422 263 422 230 366 c 1,25,-1
 230 155 l 1,26,27
 257 110 257 110 303 110 c 0,28,18
 342 110 342 110 363.5 146 c 128,-1,19
EndSplineSet
Substitution2: "'smcp' Lowercase to Small Capitals lookup 27 subtable" b.sc
Substitution2: "'aalt' Access All Alternates lookup 0 subtable" b.sc
EndChar

StartChar: uni0253
Encoding: 595 595 381
Width: 598
GlyphClass: 2
Flags: W
AnchorPoint: "Anchor-18" 0 0 basechar 0
AnchorPoint: "Anchor-17" 0 0 basechar 0
AnchorPoint: "Anchor-16" 299 743 basechar 0
AnchorPoint: "Anchor-15" 0 0 basechar 0
AnchorPoint: "Anchor-14" 299 0 basechar 0
LayerCount: 2
Fore
SplineSet
518 476.5 m 128,-1,1
 569 402 569 402 569 266 c 0,2,3
 569 184 569 184 543.5 119.5 c 128,-1,4
 518 55 518 55 470 18.5 c 128,-1,5
 422 -18 422 -18 356 -18 c 0,6,7
 312 -18 312 -18 276.5 -0.5 c 128,-1,8
 241 17 241 17 217 49 c 1,9,-1
 210 0 l 1,10,-1
 52 0 l 1,11,-1
 52 571 l 2,12,13
 52 655 52 655 107 708 c 128,-1,14
 162 761 162 761 266 761 c 0,15,16
 307 761 307 761 347.5 751.5 c 128,-1,17
 388 742 388 742 418 726 c 1,18,-1
 370 614 l 1,19,20
 330 632 330 632 289 632 c 0,21,22
 258 632 258 632 244 616.5 c 128,-1,23
 230 601 230 601 230 563 c 2,24,-1
 230 482 l 1,25,26
 252 513 252 513 290 532 c 128,-1,27
 328 551 328 551 368 551 c 0,28,0
 467 551 467 551 518 476.5 c 128,-1,1
364 146 m 128,-1,30
 385 182 385 182 385 266 c 0,31,32
 385 356 385 356 366 389 c 128,-1,33
 347 422 347 422 311 422 c 0,34,35
 263 422 263 422 230 366 c 1,36,-1
 230 155 l 1,37,38
 257 110 257 110 305 110 c 0,39,29
 343 110 343 110 364 146 c 128,-1,30
EndSplineSet
Substitution2: "'smcp' Lowercase to Small Capitals lookup 27 subtable" uni0253.sc
Substitution2: "'aalt' Access All Alternates lookup 0 subtable" uni0253.sc
EndChar

StartChar: uni02AD
Encoding: 685 685 382
Width: 372
GlyphClass: 2
Flags: W
AnchorPoint: "Anchor-18" 0 0 basechar 0
AnchorPoint: "Anchor-17" 0 0 basechar 0
AnchorPoint: "Anchor-16" 0 0 basechar 0
AnchorPoint: "Anchor-15" 0 0 basechar 0
AnchorPoint: "Anchor-14" 190 145 basechar 0
LayerCount: 2
Fore
SplineSet
30 401 m 1,0,-1
 30 570 l 1,1,-1
 342 570 l 1,2,-1
 342 401 l 1,3,-1
 239 401 l 1,4,-1
 239 482 l 1,5,-1
 134 482 l 1,6,-1
 134 401 l 1,7,-1
 30 401 l 1,0,-1
30 1 m 1,8,-1
 30 170 l 1,9,-1
 342 170 l 1,10,-1
 342 1 l 1,11,-1
 239 1 l 1,12,-1
 239 82 l 1,13,-1
 134 82 l 1,14,-1
 134 1 l 1,15,-1
 30 1 l 1,8,-1
EndSplineSet
EndChar

StartChar: uni0298
Encoding: 664 664 383
Width: 799
GlyphClass: 2
Flags: W
AnchorPoint: "Anchor-18" 0 0 basechar 0
AnchorPoint: "Anchor-17" 0 0 basechar 0
AnchorPoint: "Anchor-16" 400 695 basechar 0
AnchorPoint: "Anchor-15" 0 0 basechar 0
AnchorPoint: "Anchor-14" 400 0 basechar 0
LayerCount: 2
Fore
SplineSet
595.5 668 m 128,-1,1
 680 623 680 623 726.5 540.5 c 128,-1,2
 773 458 773 458 773 348 c 0,3,4
 773 242 773 242 726 159 c 128,-1,5
 679 76 679 76 594.5 29 c 128,-1,6
 510 -18 510 -18 400 -18 c 0,7,8
 289 -18 289 -18 204.5 27 c 128,-1,9
 120 72 120 72 73.5 155 c 128,-1,10
 27 238 27 238 27 348 c 0,11,12
 27 454 27 454 74 537 c 128,-1,13
 121 620 121 620 205.5 666.5 c 128,-1,14
 290 713 290 713 400 713 c 0,15,0
 511 713 511 713 595.5 668 c 128,-1,1
253 532.5 m 128,-1,17
 201 473 201 473 201 348 c 256,18,19
 201 223 201 223 253 163 c 128,-1,20
 305 103 305 103 400 103 c 0,21,22
 599 103 599 103 599 348 c 0,23,24
 599 471 599 471 545.5 531.5 c 128,-1,25
 492 592 492 592 400 592 c 0,26,16
 305 592 305 592 253 532.5 c 128,-1,17
463 405.5 m 128,-1,28
 487 382 487 382 487 347 c 256,29,30
 487 312 487 312 463 288.5 c 128,-1,31
 439 265 439 265 402 265 c 0,32,33
 364 265 364 265 340 288.5 c 128,-1,34
 316 312 316 312 316 347 c 256,35,36
 316 382 316 382 340 405.5 c 128,-1,37
 364 429 364 429 402 429 c 0,38,27
 439 429 439 429 463 405.5 c 128,-1,28
EndSplineSet
EndChar

StartChar: uni0180
Encoding: 384 384 385
Width: 607
GlyphClass: 2
Flags: W
AnchorPoint: "Anchor-18" 0 0 basechar 0
AnchorPoint: "Anchor-17" 0 0 basechar 0
AnchorPoint: "Anchor-16" 329 743 basechar 0
AnchorPoint: "Anchor-15" 0 0 basechar 0
AnchorPoint: "Anchor-14" 317 0 basechar 0
LayerCount: 2
Fore
SplineSet
527 476 m 128,-1,1
 578 401 578 401 578 266 c 0,2,3
 578 184 578 184 552.5 119.5 c 128,-1,4
 527 55 527 55 479 18.5 c 128,-1,5
 431 -18 431 -18 365 -18 c 0,6,7
 321 -18 321 -18 285.5 -0.5 c 128,-1,8
 250 17 250 17 226 49 c 1,9,-1
 219 0 l 1,10,-1
 61 0 l 1,11,-1
 61 593 l 1,12,-1
 4 593 l 1,13,-1
 4 692 l 1,14,-1
 61 692 l 1,15,-1
 61 743 l 1,16,-1
 239 761 l 1,17,-1
 239 692 l 1,18,-1
 366 692 l 1,19,-1
 366 593 l 1,20,-1
 239 593 l 1,21,-1
 239 481 l 1,22,23
 262 513 262 513 300 532 c 128,-1,24
 338 551 338 551 381 551 c 0,25,0
 476 551 476 551 527 476 c 128,-1,1
372.5 146 m 128,-1,27
 394 182 394 182 394 266 c 0,28,29
 394 356 394 356 374.5 389 c 128,-1,30
 355 422 355 422 319 422 c 0,31,32
 272 422 272 422 239 366 c 1,33,-1
 239 155 l 1,34,35
 266 110 266 110 312 110 c 0,36,26
 351 110 351 110 372.5 146 c 128,-1,27
EndSplineSet
Substitution2: "'smcp' Lowercase to Small Capitals lookup 27 subtable" uni0180.sc
Substitution2: "'aalt' Access All Alternates lookup 0 subtable" uni0180.sc
EndChar

StartChar: uni0183
Encoding: 387 387 386
Width: 598
GlyphClass: 2
Flags: W
AnchorPoint: "Anchor-18" 0 0 basechar 0
AnchorPoint: "Anchor-17" 0 0 basechar 0
AnchorPoint: "Anchor-16" 299 743 basechar 0
AnchorPoint: "Anchor-15" 0 0 basechar 0
AnchorPoint: "Anchor-14" 299 0 basechar 0
LayerCount: 2
Fore
SplineSet
518 461.5 m 128,-1,1
 569 388 569 388 569 258 c 0,2,3
 569 180 569 180 543.5 117 c 128,-1,4
 518 54 518 54 469.5 18 c 128,-1,5
 421 -18 421 -18 356 -18 c 0,6,7
 312 -18 312 -18 276.5 -0.5 c 128,-1,8
 241 17 241 17 217 49 c 1,9,-1
 210 0 l 1,10,-1
 52 0 l 1,11,-1
 52 743 l 1,12,-1
 446 743 l 1,13,-1
 427 617 l 1,14,-1
 230 617 l 1,15,-1
 230 465 l 1,16,17
 252 497 252 497 290 516 c 128,-1,18
 328 535 328 535 368 535 c 0,19,0
 467 535 467 535 518 461.5 c 128,-1,1
385 258 m 0,21,22
 385 342 385 342 365.5 374 c 128,-1,23
 346 406 346 406 311 406 c 0,24,25
 263 406 263 406 230 349 c 1,26,-1
 230 155 l 1,27,28
 257 110 257 110 305 110 c 0,29,20
 385 110 385 110 385 258 c 0,21,22
EndSplineSet
Substitution2: "'smcp' Lowercase to Small Capitals lookup 27 subtable" uni0183.sc
Substitution2: "'aalt' Access All Alternates lookup 0 subtable" uni0183.sc
EndChar

StartChar: c
Encoding: 99 99 387
Width: 479
GlyphClass: 2
Flags: W
AnchorPoint: "Anchor-18" 0 0 basechar 0
AnchorPoint: "Anchor-17" 0 0 basechar 0
AnchorPoint: "Anchor-16" 291 533 basechar 0
AnchorPoint: "Anchor-15" 0 0 basechar 0
AnchorPoint: "Anchor-14" 278 0 basechar 0
LayerCount: 2
Fore
SplineSet
397 534 m 128,-1,1
 443 517 443 517 481 483 c 1,2,-1
 406 379 l 1,3,4
 360 416 360 416 309 416 c 0,5,6
 260 416 260 416 235 380.5 c 128,-1,7
 210 345 210 345 210 263 c 0,8,9
 210 183 210 183 235 151.5 c 128,-1,10
 260 120 260 120 307 120 c 0,11,12
 332 120 332 120 353 128 c 128,-1,13
 374 136 374 136 404 155 c 1,14,-1
 481 46 l 1,15,16
 404 -18 404 -18 298 -18 c 0,17,18
 214 -18 214 -18 152.5 17 c 128,-1,19
 91 52 91 52 58 115.5 c 128,-1,20
 25 179 25 179 25 262 c 0,21,22
 25 346 25 346 58 411.5 c 128,-1,23
 91 477 91 477 151.5 514 c 128,-1,24
 212 551 212 551 293 551 c 0,25,0
 351 551 351 551 397 534 c 128,-1,1
EndSplineSet
Substitution2: "'smcp' Lowercase to Small Capitals lookup 27 subtable" c.sc
Substitution2: "'aalt' Access All Alternates lookup 0 subtable" c.sc
EndChar

StartChar: ccedilla
Encoding: 231 231 391
Width: 479
GlyphClass: 2
Flags: W
AnchorPoint: "Anchor-18" 0 0 basechar 0
AnchorPoint: "Anchor-17" 0 0 basechar 0
AnchorPoint: "Anchor-16" 291 533 basechar 0
AnchorPoint: "Anchor-15" 0 0 basechar 0
AnchorPoint: "Anchor-14" 300 -269 basechar 0
LayerCount: 2
Fore
SplineSet
328 -17 m 1,1,-1
 328 -45 l 1,2,3
 381 -52 381 -52 408 -78.5 c 128,-1,4
 435 -105 435 -105 435 -149 c 0,5,6
 435 -202 435 -202 393 -235.5 c 128,-1,7
 351 -269 351 -269 279 -269 c 0,8,9
 243 -269 243 -269 212 -259.5 c 128,-1,10
 181 -250 181 -250 160 -236 c 1,11,-1
 200 -157 l 1,12,13
 231 -175 231 -175 263 -175 c 0,14,15
 309 -175 309 -175 309 -147 c 0,16,17
 309 -131 309 -131 287 -123.5 c 128,-1,18
 265 -116 265 -116 216 -116 c 1,19,-1
 229 -11 l 1,20,21
 133 8 133 8 79 81 c 128,-1,22
 25 154 25 154 25 262 c 0,23,24
 25 346 25 346 58 411.5 c 128,-1,25
 91 477 91 477 151.5 514 c 128,-1,26
 212 551 212 551 293 551 c 0,27,28
 351 551 351 551 397 534 c 128,-1,29
 443 517 443 517 481 483 c 1,30,-1
 406 379 l 1,31,32
 360 416 360 416 309 416 c 0,33,34
 260 416 260 416 235 380.5 c 128,-1,35
 210 345 210 345 210 263 c 0,36,37
 210 183 210 183 235 151.5 c 128,-1,38
 260 120 260 120 307 120 c 0,39,40
 332 120 332 120 353 128 c 128,-1,41
 374 136 374 136 404 155 c 1,42,-1
 481 46 l 1,43,0
 417 -8 417 -8 328 -17 c 1,1,-1
EndSplineSet
Substitution2: "'smcp' Lowercase to Small Capitals lookup 27 subtable" ccedilla.sc
Substitution2: "'aalt' Access All Alternates lookup 0 subtable" ccedilla.sc
EndChar

StartChar: uni0255
Encoding: 597 597 393
Width: 505
GlyphClass: 2
Flags: W
AnchorPoint: "Anchor-18" 0 0 basechar 0
AnchorPoint: "Anchor-17" 0 0 basechar 0
AnchorPoint: "Anchor-16" 293 533 basechar 0
AnchorPoint: "Anchor-15" 0 0 basechar 0
AnchorPoint: "Anchor-14" 293 -44 basechar 0
LayerCount: 2
Fore
SplineSet
467 228 m 128,-1,1
 504 195 504 195 504 137 c 0,2,3
 504 61 504 61 449.5 21.5 c 128,-1,4
 395 -18 395 -18 310 -18 c 0,5,6
 278 -18 278 -18 240 -12 c 1,7,-1
 206 -87 l 1,8,-1
 122 -55 l 1,9,-1
 156 18 l 1,10,11
 93 50 93 50 59 113.5 c 128,-1,12
 25 177 25 177 25 262 c 0,13,14
 25 346 25 346 58 411.5 c 128,-1,15
 91 477 91 477 151.5 514 c 128,-1,16
 212 551 212 551 293 551 c 0,17,18
 351 551 351 551 397 534 c 128,-1,19
 443 517 443 517 481 483 c 1,20,-1
 406 378 l 1,21,22
 361 416 361 416 309 416 c 0,23,24
 260 416 260 416 235 380.5 c 128,-1,25
 210 345 210 345 210 263 c 0,26,27
 210 201 210 201 226 162 c 1,28,29
 250 215 250 215 286 238 c 128,-1,30
 322 261 322 261 374 261 c 0,31,0
 430 261 430 261 467 228 c 128,-1,1
385 143 m 0,33,34
 385 170 385 170 357 170 c 0,35,36
 338 170 338 170 322.5 156 c 128,-1,37
 307 142 307 142 292 111 c 1,38,39
 314 106 314 106 332 106 c 0,40,32
 385 106 385 106 385 143 c 0,33,34
EndSplineSet
EndChar

StartChar: uni0188
Encoding: 392 392 395
Width: 479
GlyphClass: 2
Flags: W
AnchorPoint: "Anchor-18" 0 0 basechar 0
AnchorPoint: "Anchor-17" 0 0 basechar 0
AnchorPoint: "Anchor-16" 239 743 basechar 0
AnchorPoint: "Anchor-15" 0 0 basechar 0
AnchorPoint: "Anchor-14" 239 0 basechar 0
LayerCount: 2
Fore
SplineSet
644 724 m 1,1,-1
 595 614 l 1,2,3
 561 632 561 632 529 632 c 0,4,5
 481 632 481 632 481 574 c 2,6,-1
 481 483 l 1,7,-1
 416 392 l 1,8,9
 368 416 368 416 312 416 c 0,10,11
 261 416 261 416 235.5 380.5 c 128,-1,12
 210 345 210 345 210 263 c 0,13,14
 210 183 210 183 235 151.5 c 128,-1,15
 260 120 260 120 307 120 c 0,16,17
 332 120 332 120 353 128 c 128,-1,18
 374 136 374 136 404 155 c 1,19,-1
 481 46 l 1,20,21
 404 -18 404 -18 298 -18 c 0,22,23
 214 -18 214 -18 152.5 17 c 128,-1,24
 91 52 91 52 58 115.5 c 128,-1,25
 25 179 25 179 25 262 c 256,26,27
 25 345 25 345 57 411 c 128,-1,28
 89 477 89 477 145 514 c 128,-1,29
 201 551 201 551 269 551 c 0,30,31
 301 551 301 551 328 543 c 1,32,-1
 328 587 l 2,33,34
 328 671 328 671 371.5 716 c 128,-1,35
 415 761 415 761 503 761 c 0,36,0
 583 761 583 761 644 724 c 1,1,-1
EndSplineSet
Substitution2: "'smcp' Lowercase to Small Capitals lookup 27 subtable" uni0188.sc
Substitution2: "'aalt' Access All Alternates lookup 0 subtable" uni0188.sc
EndChar

StartChar: uni0297
Encoding: 663 663 396
Width: 486
GlyphClass: 2
Flags: W
AnchorPoint: "Anchor-18" 0 0 basechar 0
AnchorPoint: "Anchor-17" 0 0 basechar 0
AnchorPoint: "Anchor-16" 314 533 basechar 0
AnchorPoint: "Anchor-15" 0 0 basechar 0
AnchorPoint: "Anchor-14" 313 -213 basechar 0
LayerCount: 2
Fore
SplineSet
489 483 m 1,1,-1
 417 383 l 1,2,3
 369 416 369 416 325 416 c 0,4,5
 271 416 271 416 244.5 356.5 c 128,-1,6
 218 297 218 297 218 160 c 0,7,8
 218 26 218 26 243.5 -29.5 c 128,-1,9
 269 -85 269 -85 318 -85 c 0,10,11
 343 -85 343 -85 363.5 -77 c 128,-1,12
 384 -69 384 -69 411 -51 c 1,13,-1
 489 -159 l 1,14,15
 409 -224 409 -224 313 -224 c 0,16,17
 177 -224 177 -224 104.5 -123.5 c 128,-1,18
 32 -23 32 -23 32 160 c 0,19,20
 32 281 32 281 65.5 369 c 128,-1,21
 99 457 99 457 163 504 c 128,-1,22
 227 551 227 551 315 551 c 0,23,0
 416 551 416 551 489 483 c 1,1,-1
EndSplineSet
EndChar

StartChar: uni023C
Encoding: 572 572 397
Width: 479
GlyphClass: 2
Flags: W
AnchorPoint: "Anchor-18" 0 0 basechar 0
AnchorPoint: "Anchor-17" 0 0 basechar 0
AnchorPoint: "Anchor-16" 291 533 basechar 0
AnchorPoint: "Anchor-15" 0 0 basechar 0
AnchorPoint: "Anchor-14" 278 0 basechar 0
LayerCount: 2
Fore
SplineSet
353 128 m 128,-1,1
 374 136 374 136 404 155 c 1,2,-1
 481 46 l 1,3,4
 404 -18 404 -18 298 -18 c 0,5,6
 275 -18 275 -18 254 -15 c 1,7,-1
 238 -76 l 1,8,-1
 179 -61 l 1,9,-1
 195 -2 l 1,10,11
 114 26 114 26 69.5 95 c 128,-1,12
 25 164 25 164 25 262 c 0,13,14
 25 346 25 346 58 411.5 c 128,-1,15
 91 477 91 477 151.5 514 c 128,-1,16
 212 551 212 551 293 551 c 0,17,18
 319 551 319 551 341 548 c 1,19,-1
 355 602 l 1,20,-1
 414 588 l 1,21,-1
 399 533 l 1,22,23
 444 516 444 516 481 483 c 1,24,-1
 406 379 l 1,25,26
 385 395 385 395 365 404 c 1,27,-1
 290 121 l 1,28,29
 296 120 296 120 307 120 c 0,30,0
 332 120 332 120 353 128 c 128,-1,1
235 151 m 1,32,-1
 306 416 l 1,33,34
 258 415 258 415 234 379.5 c 128,-1,35
 210 344 210 344 210 263 c 0,36,31
 210 185 210 185 235 151 c 1,32,-1
EndSplineSet
Substitution2: "'smcp' Lowercase to Small Capitals lookup 27 subtable" uni023C.sc
Substitution2: "'aalt' Access All Alternates lookup 0 subtable" uni023C.sc
EndChar

StartChar: d
Encoding: 100 100 398
Width: 600
GlyphClass: 2
Flags: W
AnchorPoint: "Anchor-18" 301 266 basechar 0
AnchorPoint: "Anchor-17" 558 743 basechar 0
AnchorPoint: "Anchor-16" 297 743 basechar 0
AnchorPoint: "Anchor-15" 0 0 basechar 0
AnchorPoint: "Anchor-14" 308 0 basechar 0
LayerCount: 2
Fore
SplineSet
548 743 m 1,0,-1
 548 0 l 1,1,-1
 390 0 l 1,2,-1
 383 59 l 1,3,4
 359 25 359 25 321.5 3.5 c 128,-1,5
 284 -18 284 -18 232 -18 c 0,6,7
 132 -18 132 -18 81 58 c 128,-1,8
 30 134 30 134 30 268 c 0,9,10
 30 350 30 350 57.5 414.5 c 128,-1,11
 85 479 85 479 135 515 c 128,-1,12
 185 551 185 551 250 551 c 0,13,14
 322 551 322 551 370 505 c 1,15,-1
 370 761 l 1,16,-1
 548 743 l 1,0,-1
370 163 m 1,18,-1
 370 386 l 1,19,20
 353 405 353 405 337 414 c 128,-1,21
 321 423 321 423 300 423 c 0,22,23
 260 423 260 423 236.5 385.5 c 128,-1,24
 213 348 213 348 213 267 c 0,25,26
 213 177 213 177 233 143.5 c 128,-1,27
 253 110 253 110 290 110 c 0,28,17
 338 110 338 110 370 163 c 1,18,-1
EndSplineSet
Substitution2: "'smcp' Lowercase to Small Capitals lookup 27 subtable" d.sc
Substitution2: "'aalt' Access All Alternates lookup 0 subtable" d.sc
EndChar

StartChar: eth
Encoding: 240 240 399
Width: 581
GlyphClass: 2
Flags: W
AnchorPoint: "Anchor-18" 0 0 basechar 0
AnchorPoint: "Anchor-17" 0 0 basechar 0
AnchorPoint: "Anchor-16" 311 743 basechar 0
AnchorPoint: "Anchor-15" 0 0 basechar 0
AnchorPoint: "Anchor-14" 285 0 basechar 0
LayerCount: 2
Fore
SplineSet
508 505 m 128,-1,1
 552 409 552 409 552 280 c 0,2,3
 552 197 552 197 521 129 c 128,-1,4
 490 61 490 61 429.5 21.5 c 128,-1,5
 369 -18 369 -18 284 -18 c 0,6,7
 210 -18 210 -18 151 12 c 128,-1,8
 92 42 92 42 58.5 99 c 128,-1,9
 25 156 25 156 25 233 c 0,10,11
 25 303 25 303 53 359.5 c 128,-1,12
 81 416 81 416 129 448.5 c 128,-1,13
 177 481 177 481 234 481 c 0,14,15
 273 481 273 481 304 470.5 c 128,-1,16
 335 460 335 460 362 440 c 1,17,18
 348 481 348 481 326 512.5 c 128,-1,19
 304 544 304 544 266 574 c 1,20,-1
 216 524 l 1,21,-1
 105 575 l 1,22,-1
 156 628 l 1,23,24
 115 640 115 640 72 647 c 1,25,-1
 107 761 l 1,26,27
 176 750 176 750 251 726 c 1,28,-1
 326 804 l 1,29,-1
 415 727 l 1,30,-1
 361 673 l 1,31,0
 464 601 464 601 508 505 c 128,-1,1
351 144.5 m 128,-1,33
 370 179 370 179 370 253 c 2,34,-1
 370 326 l 1,35,36
 336 358 336 358 286 358 c 0,37,38
 205 358 205 358 205 236 c 0,39,40
 205 110 205 110 288 110 c 0,41,32
 332 110 332 110 351 144.5 c 128,-1,33
EndSplineSet
Substitution2: "'smcp' Lowercase to Small Capitals lookup 27 subtable" eth.sc
Substitution2: "'aalt' Access All Alternates lookup 0 subtable" eth.sc
EndChar

StartChar: uni0238
Encoding: 568 568 400
Width: 876
GlyphClass: 2
Flags: W
AnchorPoint: "Anchor-18" 0 0 basechar 0
AnchorPoint: "Anchor-17" 0 0 basechar 0
AnchorPoint: "Anchor-16" 438 743 basechar 0
AnchorPoint: "Anchor-15" 0 0 basechar 0
AnchorPoint: "Anchor-14" 438 0 basechar 0
LayerCount: 2
Fore
SplineSet
799.5 475.5 m 128,-1,1
 847 400 847 400 847 266 c 0,2,3
 847 184 847 184 822 119.5 c 128,-1,4
 797 55 797 55 750.5 18.5 c 128,-1,5
 704 -18 704 -18 644 -18 c 0,6,7
 606 -18 606 -18 572.5 1 c 128,-1,8
 539 20 539 20 517 55 c 1,9,-1
 509 0 l 1,10,-1
 370 0 l 1,11,-1
 362 58 l 1,12,13
 338 24 338 24 302.5 3 c 128,-1,14
 267 -18 267 -18 222 -18 c 0,15,16
 129 -18 129 -18 79.5 59 c 128,-1,17
 30 136 30 136 30 268 c 0,18,19
 30 350 30 350 56 414.5 c 128,-1,20
 82 479 82 479 128.5 515 c 128,-1,21
 175 551 175 551 235 551 c 0,22,23
 268 551 268 551 297.5 536 c 128,-1,24
 327 521 327 521 350 491 c 1,25,-1
 350 743 l 1,26,-1
 528 761 l 1,27,-1
 528 481 l 1,28,29
 552 514 552 514 587.5 532.5 c 128,-1,30
 623 551 623 551 665 551 c 0,31,0
 752 551 752 551 799.5 475.5 c 128,-1,1
350 163 m 1,33,-1
 350 381 l 1,34,35
 320 423 320 423 286 423 c 0,36,37
 253 423 253 423 233 385.5 c 128,-1,38
 213 348 213 348 213 267 c 0,39,40
 213 178 213 178 231.5 144 c 128,-1,41
 250 110 250 110 282 110 c 0,42,32
 318 110 318 110 350 163 c 1,33,-1
644 147 m 128,-1,44
 664 184 664 184 664 266 c 0,45,46
 664 354 664 354 646 388 c 128,-1,47
 628 422 628 422 599 422 c 0,48,49
 560 422 560 422 528 372 c 1,50,-1
 528 163 l 1,51,52
 556 110 556 110 594 110 c 0,53,43
 624 110 624 110 644 147 c 128,-1,44
EndSplineSet
EndChar

StartChar: dcroat
Encoding: 273 273 403
Width: 610
GlyphClass: 2
Flags: W
AnchorPoint: "Anchor-18" 301 266 basechar 0
AnchorPoint: "Anchor-17" 558 743 basechar 0
AnchorPoint: "Anchor-16" 297 743 basechar 0
AnchorPoint: "Anchor-15" 0 0 basechar 0
AnchorPoint: "Anchor-14" 308 0 basechar 0
LayerCount: 2
Fore
SplineSet
606 692 m 1,0,-1
 606 593 l 1,1,-1
 548 593 l 1,2,-1
 548 0 l 1,3,-1
 390 0 l 1,4,-1
 383 59 l 1,5,6
 359 25 359 25 321.5 3.5 c 128,-1,7
 284 -18 284 -18 232 -18 c 0,8,9
 132 -18 132 -18 81 58 c 128,-1,10
 30 134 30 134 30 268 c 0,11,12
 30 350 30 350 57.5 414.5 c 128,-1,13
 85 479 85 479 135 515 c 128,-1,14
 185 551 185 551 250 551 c 0,15,16
 322 551 322 551 370 505 c 1,17,-1
 370 593 l 1,18,-1
 240 593 l 1,19,-1
 240 692 l 1,20,-1
 370 692 l 1,21,-1
 370 761 l 1,22,-1
 548 743 l 1,23,-1
 548 692 l 1,24,-1
 606 692 l 1,0,-1
370 163 m 1,26,-1
 370 386 l 1,27,28
 353 405 353 405 337 414 c 128,-1,29
 321 423 321 423 300 423 c 0,30,31
 260 423 260 423 236.5 385.5 c 128,-1,32
 213 348 213 348 213 267 c 0,33,34
 213 177 213 177 233 143.5 c 128,-1,35
 253 110 253 110 290 110 c 0,36,25
 338 110 338 110 370 163 c 1,26,-1
EndSplineSet
Substitution2: "'smcp' Lowercase to Small Capitals lookup 27 subtable" dcroat.sc
Substitution2: "'aalt' Access All Alternates lookup 0 subtable" dcroat.sc
EndChar

StartChar: uni0221
Encoding: 545 545 404
Width: 804
GlyphClass: 2
Flags: W
AnchorPoint: "Anchor-18" 0 0 basechar 0
AnchorPoint: "Anchor-17" 0 0 basechar 0
AnchorPoint: "Anchor-16" 402 743 basechar 0
AnchorPoint: "Anchor-15" 0 0 basechar 0
AnchorPoint: "Anchor-14" 402 -213 basechar 0
LayerCount: 2
Fore
SplineSet
771.5 220 m 128,-1,1
 807 188 807 188 807 134 c 0,2,3
 807 58 807 58 752.5 20 c 128,-1,4
 698 -18 698 -18 610 -18 c 0,5,6
 587 -18 587 -18 564 -15 c 1,7,-1
 532 -87 l 1,8,-1
 449 -55 l 1,9,-1
 479 9 l 1,10,11
 428 34 428 34 400 81 c 1,12,13
 368 33 368 33 327.5 7.5 c 128,-1,14
 287 -18 287 -18 232 -18 c 0,15,16
 132 -18 132 -18 81 58 c 128,-1,17
 30 134 30 134 30 268 c 0,18,19
 30 351 30 351 57 415 c 128,-1,20
 84 479 84 479 134.5 515 c 128,-1,21
 185 551 185 551 254 551 c 0,22,23
 287 551 287 551 316.5 539 c 128,-1,24
 346 527 346 527 370 505 c 1,25,-1
 370 761 l 1,26,-1
 548 743 l 1,27,-1
 548 205 l 2,28,29
 548 174 548 174 552 158 c 1,30,31
 575 208 575 208 605.5 230 c 128,-1,32
 636 252 636 252 683 252 c 0,33,0
 736 252 736 252 771.5 220 c 128,-1,1
372 167 m 1,35,36
 370 191 370 191 370 207 c 2,37,-1
 370 386 l 1,38,39
 353 405 353 405 337 414 c 128,-1,40
 321 423 321 423 300 423 c 0,41,42
 260 423 260 423 236.5 385.5 c 128,-1,43
 213 348 213 348 213 267 c 0,44,45
 213 176 213 176 233 143 c 128,-1,46
 253 110 253 110 292 110 c 0,47,34
 340 110 340 110 372 167 c 1,35,36
675 114 m 128,-1,49
 688 122 688 122 688 137 c 0,50,51
 688 161 688 161 665 161 c 0,52,53
 650 161 650 161 640 149.5 c 128,-1,54
 630 138 630 138 617 107 c 1,55,56
 624 106 624 106 640 106 c 0,57,48
 662 106 662 106 675 114 c 128,-1,49
EndSplineSet
EndChar

StartChar: uni018D
Encoding: 397 397 407
Width: 577
GlyphClass: 2
Flags: W
AnchorPoint: "Anchor-18" 0 0 basechar 0
AnchorPoint: "Anchor-17" 0 0 basechar 0
AnchorPoint: "Anchor-16" 288 533 basechar 0
AnchorPoint: "Anchor-15" 0 0 basechar 0
AnchorPoint: "Anchor-14" 288 -213 basechar 0
LayerCount: 2
Fore
SplineSet
478.5 10.5 m 128,-1,1
 499 -22 499 -22 499 -67 c 0,2,3
 499 -136 499 -136 442.5 -180.5 c 128,-1,4
 386 -225 386 -225 272 -225 c 0,5,6
 212 -225 212 -225 162 -207.5 c 128,-1,7
 112 -190 112 -190 77 -162 c 1,8,-1
 157 -70 l 1,9,10
 207 -103 207 -103 261 -103 c 0,11,12
 296 -103 296 -103 313 -92 c 128,-1,13
 330 -81 330 -81 330 -62 c 0,14,15
 330 -47 330 -47 323.5 -37 c 128,-1,16
 317 -27 317 -27 297.5 -15.5 c 128,-1,17
 278 -4 278 -4 236 13 c 0,18,19
 124 58 124 58 74.5 119 c 128,-1,20
 25 180 25 180 25 283 c 0,21,22
 25 365 25 365 57.5 425.5 c 128,-1,23
 90 486 90 486 149 518.5 c 128,-1,24
 208 551 208 551 288 551 c 0,25,26
 412 551 412 551 482 482 c 128,-1,27
 552 413 552 413 552 291 c 0,28,29
 552 221 552 221 513.5 166.5 c 128,-1,30
 475 112 475 112 399 76 c 1,31,0
 458 43 458 43 478.5 10.5 c 128,-1,1
215.5 208.5 m 128,-1,33
 223 182 223 182 244.5 162.5 c 128,-1,34
 266 143 266 143 310 121 c 1,35,36
 345 152 345 152 357.5 190 c 128,-1,37
 370 228 370 228 370 283 c 0,38,39
 370 356 370 356 350.5 389 c 128,-1,40
 331 422 331 422 289 422 c 0,41,42
 248 422 248 422 228 388.5 c 128,-1,43
 208 355 208 355 208 282 c 0,44,32
 208 235 208 235 215.5 208.5 c 128,-1,33
EndSplineSet
EndChar

StartChar: uni02A4
Encoding: 676 676 408
Width: 1040
GlyphClass: 2
Flags: W
AnchorPoint: "Anchor-18" 301 266 basechar 0
AnchorPoint: "Anchor-17" 558 743 basechar 0
AnchorPoint: "Anchor-16" 575 743 basechar 0
AnchorPoint: "Anchor-15" 0 0 basechar 0
AnchorPoint: "Anchor-14" 748 -213 basechar 0
LayerCount: 2
Fore
SplineSet
971.5 155 m 128,-1,1
 1026 104 1026 104 1026 10 c 0,2,3
 1026 -57 1026 -57 993 -110 c 128,-1,4
 960 -163 960 -163 897 -193.5 c 128,-1,5
 834 -224 834 -224 748 -224 c 0,6,7
 591 -224 591 -224 505 -118 c 1,8,-1
 598 -28 l 1,9,10
 634 -61 634 -61 665.5 -75.5 c 128,-1,11
 697 -90 697 -90 736 -90 c 0,12,13
 785 -90 785 -90 814 -62 c 128,-1,14
 843 -34 843 -34 843 22 c 0,15,16
 843 72 843 72 814 93 c 128,-1,17
 785 114 785 114 727 114 c 2,18,-1
 630 114 l 1,19,-1
 630 214 l 1,20,-1
 790 402 l 1,21,-1
 548 402 l 1,22,-1
 548 0 l 1,23,-1
 390 0 l 1,24,-1
 383 59 l 1,25,26
 359 25 359 25 321.5 3.5 c 128,-1,27
 284 -18 284 -18 232 -18 c 0,28,29
 132 -18 132 -18 81 58 c 128,-1,30
 30 134 30 134 30 268 c 0,31,32
 30 350 30 350 57.5 414.5 c 128,-1,33
 85 479 85 479 135 515 c 128,-1,34
 185 551 185 551 250 551 c 0,35,36
 322 551 322 551 370 505 c 1,37,-1
 370 761 l 1,38,-1
 548 743 l 1,39,-1
 548 533 l 1,40,-1
 991 533 l 1,41,-1
 991 412 l 1,42,-1
 816 214 l 1,43,0
 917 206 917 206 971.5 155 c 128,-1,1
370 163 m 1,45,-1
 370 386 l 1,46,47
 353 405 353 405 337 414 c 128,-1,48
 321 423 321 423 300 423 c 0,49,50
 260 423 260 423 236.5 385.5 c 128,-1,51
 213 348 213 348 213 267 c 0,52,53
 213 177 213 177 233 143.5 c 128,-1,54
 253 110 253 110 290 110 c 0,55,44
 338 110 338 110 370 163 c 1,45,-1
EndSplineSet
EndChar

StartChar: uni0257
Encoding: 599 599 409
Width: 600
GlyphClass: 2
Flags: W
AnchorPoint: "Anchor-18" 0 0 basechar 0
AnchorPoint: "Anchor-17" 0 0 basechar 0
AnchorPoint: "Anchor-16" 313 743 basechar 0
AnchorPoint: "Anchor-15" 0 0 basechar 0
AnchorPoint: "Anchor-14" 301 0 basechar 0
LayerCount: 2
Fore
SplineSet
711 724 m 1,1,-1
 662 614 l 1,2,3
 627 632 627 632 596 632 c 0,4,5
 571 632 571 632 559.5 618 c 128,-1,6
 548 604 548 604 548 574 c 2,7,-1
 548 0 l 1,8,-1
 390 0 l 1,9,-1
 383 59 l 1,10,11
 359 25 359 25 321.5 3.5 c 128,-1,12
 284 -18 284 -18 232 -18 c 0,13,14
 132 -18 132 -18 81 58 c 128,-1,15
 30 134 30 134 30 268 c 0,16,17
 30 351 30 351 57 415 c 128,-1,18
 84 479 84 479 134.5 515 c 128,-1,19
 185 551 185 551 254 551 c 0,20,21
 287 551 287 551 316.5 539 c 128,-1,22
 346 527 346 527 370 505 c 1,23,-1
 370 570 l 2,24,25
 370 655 370 655 421.5 708 c 128,-1,26
 473 761 473 761 570 761 c 0,27,0
 650 761 650 761 711 724 c 1,1,-1
370 163 m 1,29,-1
 370 386 l 1,30,31
 353 405 353 405 337 414 c 128,-1,32
 321 423 321 423 300 423 c 0,33,34
 260 423 260 423 236.5 385.5 c 128,-1,35
 213 348 213 348 213 267 c 0,36,37
 213 176 213 176 233 143 c 128,-1,38
 253 110 253 110 292 110 c 0,39,28
 338 110 338 110 370 163 c 1,29,-1
EndSplineSet
Substitution2: "'smcp' Lowercase to Small Capitals lookup 27 subtable" uni0257.sc
Substitution2: "'aalt' Access All Alternates lookup 0 subtable" uni0257.sc
EndChar

StartChar: uni0256
Encoding: 598 598 411
Width: 600
GlyphClass: 2
Flags: W
AnchorPoint: "Anchor-18" 0 0 basechar 0
AnchorPoint: "Anchor-17" 0 0 basechar 0
AnchorPoint: "Anchor-16" 466 743 basechar 0
AnchorPoint: "Anchor-15" 0 0 basechar 0
AnchorPoint: "Anchor-14" 301 -213 basechar 0
LayerCount: 2
Fore
SplineSet
730 -181 m 1,0,1
 669 -224 669 -224 580 -224 c 0,2,3
 483 -224 483 -224 426.5 -173 c 128,-1,4
 370 -122 370 -122 370 -24 c 2,5,-1
 370 43 l 1,6,7
 318 -18 318 -18 232 -18 c 0,8,9
 132 -18 132 -18 81 58 c 128,-1,10
 30 134 30 134 30 268 c 0,11,12
 30 351 30 351 57 415 c 128,-1,13
 84 479 84 479 134.5 515 c 128,-1,14
 185 551 185 551 254 551 c 0,15,16
 287 551 287 551 316.5 539 c 128,-1,17
 346 527 346 527 370 505 c 1,18,-1
 370 761 l 1,19,-1
 548 743 l 1,20,-1
 548 -40 l 2,21,22
 548 -68 548 -68 562 -82.5 c 128,-1,23
 576 -97 576 -97 602 -97 c 0,24,25
 622 -97 622 -97 636 -92.5 c 128,-1,26
 650 -88 650 -88 671 -78 c 1,27,-1
 730 -181 l 1,0,1
370 163 m 1,29,-1
 370 386 l 1,30,31
 353 405 353 405 337 414 c 128,-1,32
 321 423 321 423 300 423 c 0,33,34
 260 423 260 423 236.5 385.5 c 128,-1,35
 213 348 213 348 213 267 c 0,36,37
 213 176 213 176 233 143 c 128,-1,38
 253 110 253 110 292 110 c 0,39,28
 338 110 338 110 370 163 c 1,29,-1
EndSplineSet
Substitution2: "'smcp' Lowercase to Small Capitals lookup 27 subtable" uni0256.sc
Substitution2: "'aalt' Access All Alternates lookup 0 subtable" uni0256.sc
EndChar

StartChar: uni018C
Encoding: 396 396 412
Width: 600
GlyphClass: 2
Flags: W
AnchorPoint: "Anchor-18" 0 0 basechar 0
AnchorPoint: "Anchor-17" 0 0 basechar 0
AnchorPoint: "Anchor-16" 300 743 basechar 0
AnchorPoint: "Anchor-15" 0 0 basechar 0
AnchorPoint: "Anchor-14" 300 0 basechar 0
LayerCount: 2
Fore
SplineSet
548 0 m 1,0,-1
 390 0 l 1,1,-1
 383 59 l 1,2,3
 359 25 359 25 321.5 3.5 c 128,-1,4
 284 -18 284 -18 232 -18 c 0,5,6
 132 -18 132 -18 81 57 c 128,-1,7
 30 132 30 132 30 260 c 0,8,9
 30 339 30 339 57 401.5 c 128,-1,10
 84 464 84 464 135 499.5 c 128,-1,11
 186 535 186 535 254 535 c 0,12,13
 287 535 287 535 316.5 523 c 128,-1,14
 346 511 346 511 370 489 c 1,15,-1
 370 617 l 1,16,-1
 164 617 l 1,17,-1
 164 743 l 1,18,-1
 548 743 l 1,19,-1
 548 0 l 1,0,-1
370 163 m 1,21,-1
 370 370 l 1,22,23
 353 389 353 389 337 398 c 128,-1,24
 321 407 321 407 300 407 c 0,25,26
 260 407 260 407 236.5 370.5 c 128,-1,27
 213 334 213 334 213 259 c 0,28,29
 213 174 213 174 233.5 142 c 128,-1,30
 254 110 254 110 292 110 c 0,31,20
 338 110 338 110 370 163 c 1,21,-1
EndSplineSet
Substitution2: "'smcp' Lowercase to Small Capitals lookup 27 subtable" uni018C.sc
Substitution2: "'aalt' Access All Alternates lookup 0 subtable" uni018C.sc
EndChar

StartChar: uni02A3
Encoding: 675 675 414
Width: 1002
GlyphClass: 2
Flags: W
AnchorPoint: "Anchor-18" 301 266 basechar 0
AnchorPoint: "Anchor-17" 558 743 basechar 0
AnchorPoint: "Anchor-16" 501 743 basechar 0
AnchorPoint: "Anchor-15" 0 0 basechar 0
AnchorPoint: "Anchor-14" 501 0 basechar 0
LayerCount: 2
Fore
SplineSet
988 133 m 1,0,-1
 972 0 l 1,1,-1
 390 0 l 1,2,-1
 383 59 l 1,3,4
 359 25 359 25 321.5 3.5 c 128,-1,5
 284 -18 284 -18 232 -18 c 0,6,7
 132 -18 132 -18 81 58 c 128,-1,8
 30 134 30 134 30 268 c 0,9,10
 30 350 30 350 57.5 414.5 c 128,-1,11
 85 479 85 479 135 515 c 128,-1,12
 185 551 185 551 250 551 c 0,13,14
 322 551 322 551 370 505 c 1,15,-1
 370 761 l 1,16,-1
 548 743 l 1,17,-1
 548 533 l 1,18,-1
 982 533 l 1,19,-1
 982 408 l 1,20,-1
 743 133 l 1,21,-1
 988 133 l 1,0,-1
370 163 m 1,23,-1
 370 386 l 1,24,25
 353 405 353 405 337 414 c 128,-1,26
 321 423 321 423 300 423 c 0,27,28
 260 423 260 423 236.5 385.5 c 128,-1,29
 213 348 213 348 213 267 c 0,30,31
 213 177 213 177 233 143.5 c 128,-1,32
 253 110 253 110 290 110 c 0,33,22
 338 110 338 110 370 163 c 1,23,-1
548 401 m 1,34,-1
 548 124 l 1,35,-1
 786 401 l 1,36,-1
 548 401 l 1,34,-1
EndSplineSet
EndChar

StartChar: uni02A5
Encoding: 677 677 416
Width: 1107
GlyphClass: 2
Flags: W
AnchorPoint: "Anchor-18" 301 266 basechar 0
AnchorPoint: "Anchor-17" 558 743 basechar 0
AnchorPoint: "Anchor-16" 554 743 basechar 0
AnchorPoint: "Anchor-15" 0 0 basechar 0
AnchorPoint: "Anchor-14" 554 -213 basechar 0
LayerCount: 2
Fore
SplineSet
1086.5 247.5 m 128,-1,1
 1123 214 1123 214 1123 156 c 0,2,3
 1123 80 1123 80 1069 39.5 c 128,-1,4
 1015 -1 1015 -1 905 0 c 1,5,6
 900 -33 900 -33 900 -94 c 2,7,-1
 900 -130 l 1,8,-1
 802 -130 l 1,9,10
 802 -46 802 -46 807 0 c 1,11,-1
 390 0 l 1,12,-1
 383 59 l 1,13,14
 359 25 359 25 321.5 3.5 c 128,-1,15
 284 -18 284 -18 232 -18 c 0,16,17
 132 -18 132 -18 81 58 c 128,-1,18
 30 134 30 134 30 268 c 0,19,20
 30 350 30 350 57.5 414.5 c 128,-1,21
 85 479 85 479 135 515 c 128,-1,22
 185 551 185 551 250 551 c 0,23,24
 322 551 322 551 370 505 c 1,25,-1
 370 761 l 1,26,-1
 548 743 l 1,27,-1
 548 533 l 1,28,-1
 982 533 l 1,29,-1
 982 416 l 1,30,-1
 736 133 l 1,31,-1
 826 133 l 1,32,33
 848 212 848 212 890 246.5 c 128,-1,34
 932 281 932 281 993 281 c 0,35,0
 1050 281 1050 281 1086.5 247.5 c 128,-1,1
370 163 m 1,37,-1
 370 386 l 1,38,39
 353 405 353 405 337 414 c 128,-1,40
 321 423 321 423 300 423 c 0,41,42
 260 423 260 423 236.5 385.5 c 128,-1,43
 213 348 213 348 213 267 c 0,44,45
 213 177 213 177 233 143.5 c 128,-1,46
 253 110 253 110 290 110 c 0,47,36
 338 110 338 110 370 163 c 1,37,-1
548 401 m 1,48,-1
 548 128 l 1,49,-1
 785 401 l 1,50,-1
 548 401 l 1,48,-1
989 141 m 128,-1,52
 1005 149 1005 149 1005 167 c 0,53,54
 1005 179 1005 179 998.5 185.5 c 128,-1,55
 992 192 992 192 979 192 c 0,56,57
 938 192 938 192 924 133 c 1,58,-1
 940 133 l 2,59,51
 973 133 973 133 989 141 c 128,-1,52
907 10 m 1,60,-1
 910 22 l 1,61,-1
 908 16 l 1,62,-1
 907 10 l 1,60,-1
EndSplineSet
EndChar

StartChar: e
Encoding: 101 101 417
Width: 555
GlyphClass: 2
Flags: W
AnchorPoint: "Anchor-18" 0 0 basechar 0
AnchorPoint: "Anchor-17" 0 0 basechar 0
AnchorPoint: "Anchor-16" 284 533 basechar 0
AnchorPoint: "Anchor-15" 444 10 basechar 0
AnchorPoint: "Anchor-14" 294 0 basechar 0
LayerCount: 2
Fore
SplineSet
532 215 m 1,1,-1
 206 215 l 1,2,3
 213 154 213 154 240.5 131.5 c 128,-1,4
 268 109 268 109 319 109 c 0,5,6
 349 109 349 109 378.5 120.5 c 128,-1,7
 408 132 408 132 443 156 c 1,8,-1
 515 58 l 1,9,10
 473 23 473 23 419 2.5 c 128,-1,11
 365 -18 365 -18 302 -18 c 0,12,13
 166 -18 166 -18 95.5 58.5 c 128,-1,14
 25 135 25 135 25 264 c 0,15,16
 25 345 25 345 54.5 410 c 128,-1,17
 84 475 84 475 142 513 c 128,-1,18
 200 551 200 551 282 551 c 0,19,20
 399 551 399 551 467 478.5 c 128,-1,21
 535 406 535 406 535 275 c 0,22,0
 535 269 535 269 532 215 c 1,1,-1
360 325 m 2,23,24
 359 378 359 378 342 407 c 128,-1,25
 325 436 325 436 285 436 c 0,26,27
 248 436 248 436 229 410 c 128,-1,28
 210 384 210 384 205 319 c 1,29,-1
 360 319 l 1,30,-1
 360 325 l 2,23,24
EndSplineSet
Substitution2: "'smcp' Lowercase to Small Capitals lookup 27 subtable" e.sc
Substitution2: "'aalt' Access All Alternates lookup 0 subtable" e.sc
EndChar

